SplineFontDB: 3.2
FontName: SeriousShannsLight
FullName: Serious Shanns Light
FamilyName: Serious Shanns
Weight: Light
Copyright: https://github.com/kaBeech/serious-shanns/blob/main/LICENSE
Version: 6.0.0
ItalicAngle: 0
UnderlinePosition: 0
UnderlineWidth: 0
Ascent: 800
Descent: 200
InvalidEm: 0
sfntRevision: 0x00003333
LayerCount: 2
Layer: 0 0 "Back" 1
Layer: 1 0 "Fore" 0
XUID: [1021 329 -1817886000 12366394]
StyleMap: 0x0040
FSType: 0
OS2Version: 3
OS2_WeightWidthSlopeOnly: 0
OS2_UseTypoMetrics: 0
CreationTime: 1532631502
ModificationTime: 315532800
PfmFamily: 49
TTFWeight: 300
TTFWidth: 5
LineGap: 0
VLineGap: 0
Panose: 0 0 0 0 0 0 0 0 0 0
OS2TypoAscent: 613
OS2TypoAOffset: 0
OS2TypoDescent: -188
OS2TypoDOffset: 0
OS2TypoLinegap: 98
OS2WinAscent: 778
OS2WinAOffset: 0
OS2WinDescent: 308
OS2WinDOffset: 0
HheadAscent: 796
HheadAOffset: 0
HheadDescent: -317
HheadDOffset: 0
OS2SubXSize: 317
OS2SubYSize: 293
OS2SubXOff: 0
OS2SubYOff: 37
OS2SupXSize: 317
OS2SupYSize: 293
OS2SupXOff: 0
OS2SupYOff: 171
OS2StrikeYSize: 0
OS2StrikeYPos: 132
OS2CapHeight: 576
OS2XHeight: 485
OS2Vendor: 'NONE'
OS2CodePages: 00000001.00000000
OS2UnicodeRanges: 00000001.00000000.00000000.00000000
MarkAttachClasses: 1
DEI: 91125
LangName: 1033 "" "" "Normal" "FontForge 2.0 : Serious Shanns Light : 1-1-1980" "" "Version 0.2.0"
Encoding: UnicodeBmp
Compacted: 1
UnicodeInterp: none
NameList: AGL For New Fonts
DisplaySize: -48
AntiAlias: 1
FitToEm: 0
WinInfo: 0 16 7
BeginPrivate: 8
BlueValues 32 [-39 -8 492 523 690 718 765 769]
OtherBlues 11 [-297 -287]
BlueScale 9 0.0333333
BlueShift 2 17
StdHW 4 [67]
StdVW 4 [73]
StemSnapH 4 [67]
StemSnapV 7 [68 73]
EndPrivate
BeginChars: 65537 107

StartChar: .notdef
Encoding: 65536 -1 0
Width: 570
VWidth: 886
GlyphClass: 1
Flags: HMW
HStem: -183.225 28.9<162.575 452.425 162.575 481.325> 635.325 28.9<162.575 452.425 162.575 162.575>
VStem: 133.675 28.9<-154.325 -154.325 -154.325 635.325> 452.425 28.9<-154.325 635.325 635.325 635.325>
LayerCount: 2
Fore
SplineSet
133.674804688 664.224609375 m 1
 481.325195312 664.224609375 l 1
 481.325195312 -183.224609375 l 1
 133.674804688 -183.224609375 l 1
 133.674804688 664.224609375 l 1
162.575195312 -154.325195312 m 1
 452.424804688 -154.325195312 l 1
 452.424804688 635.325195312 l 1
 162.575195312 635.325195312 l 1
 162.575195312 -154.325195312 l 1
EndSplineSet
Validated: 524289
EndChar

StartChar: exclam
Encoding: 33 33 2
Width: 570
VWidth: 907
GlyphClass: 2
Flags: HMW
HStem: 44.2735 115.069
VStem: 246.725 121.551 275.625 66.3008 282.425 61.2
LayerCount: 2
Fore
SplineSet
348.724609375 684.646484375 m 0x90
 348.724609375 679.546875 347.591796875 647.815429688 345.325195312 589.44921875 c 0
 343.625 531.08203125 342.775390625 488.865234375 342.775390625 462.797851562 c 0
 342.491210938 449.764648438 342.349609375 437.79296875 342.349609375 426.883789062 c 0
 342.349609375 415.974609375 342.491210938 406.12890625 342.775390625 397.344726562 c 0
 343.341796875 379.778320312 343.625 364.760742188 343.625 352.293945312 c 0x90
 343.625 339.827148438 343.341796875 331.610351562 342.775390625 327.643554688 c 0
 342.01953125 321.977539062 341.641601562 314.172851562 341.641601562 304.228515625 c 0
 341.641601562 299.251953125 341.736328125 293.740234375 341.92578125 287.693359375 c 0xa0
 340.79296875 278.060546875 336.826171875 270.41015625 330.026367188 264.743164062 c 0
 323.79296875 259.076171875 316.142578125 256.243164062 307.076171875 256.243164062 c 2
 304.526367188 256.243164062 l 2
 295.458984375 256.810546875 288.091796875 259.926757812 282.424804688 265.59375 c 0x90
 277.891601562 270.694335938 275.625 277.77734375 275.625 286.84375 c 0xa0
 275.625 292.510742188 276.7578125 302.143554688 279.025390625 315.744140625 c 0
 280.724609375 323.676757812 281.858398438 332.176757812 282.424804688 341.244140625 c 0
 282.9921875 350.310546875 283.275390625 369.578125 283.275390625 399.044921875 c 0
 283.275390625 410.944335938 282.708007812 429.078125 281.575195312 453.444335938 c 0
 280.442382812 480.078125 279.875 509.260742188 279.875 540.994140625 c 0
 280.442382812 564.2265625 281.291992188 597.09375 282.424804688 639.59375 c 0
 282.9921875 661.126953125 283.275390625 675.293945312 283.275390625 682.09375 c 0
 283.841796875 695.126953125 287.2421875 704.759765625 293.474609375 710.993164062 c 0
 299.708007812 717.2265625 307.641601562 720.342773438 317.274414062 720.342773438 c 2
 319.82421875 720.342773438 l 2
 328.32421875 720.342773438 335.124023438 717.79296875 340.224609375 712.693359375 c 0
 345.891601562 707.026367188 348.724609375 697.6796875 348.724609375 684.646484375 c 0x90
352.124023438 64.1455078125 m 0
 341.357421875 53.37890625 326.907226562 46.861328125 308.774414062 44.5947265625 c 0
 306.506835938 44.3818359375 304.293945312 44.2763671875 302.1328125 44.2763671875 c 0
 287.010742188 44.2763671875 274.491210938 49.482421875 264.575195312 59.89453125 c 0
 252.674804688 71.794921875 246.724609375 86.2451171875 246.724609375 103.245117188 c 0
 246.724609375 117.977539062 252.958007812 130.727539062 265.424804688 141.495117188 c 0
 279.591796875 153.39453125 295.458984375 159.344726562 313.026367188 159.344726562 c 0
 328.892578125 159.344726562 341.92578125 154.245117188 352.125976562 144.044921875 c 0
 362.892578125 133.27734375 368.276367188 119.9609375 368.276367188 104.09375 c 0xc0
 368.276367188 88.2265625 362.891601562 74.912109375 352.124023438 64.1455078125 c 0
EndSplineSet
Validated: 524289
EndChar

StartChar: quotedbl
Encoding: 34 34 3
Width: 570
VWidth: 941
GlyphClass: 2
Flags: HMW
HStem: 469.674 278.802
VStem: 203.376 71.4 338.528 73.9483
LayerCount: 2
Fore
SplineSet
377.625976562 748.475585938 m 0
 386.125976562 748.475585938 393.776367188 746.493164062 400.576171875 742.526367188 c 0
 403.975585938 740.826171875 406.809570312 737.993164062 409.076171875 734.026367188 c 0
 411.342773438 729.493164062 412.475585938 724.392578125 412.475585938 718.725585938 c 2
 412.475585938 683.026367188 l 2
 412.475585938 666.592773438 411.909179688 636.276367188 410.776367188 592.076171875 c 0
 409.642578125 547.875976562 407.943359375 515.859375 405.67578125 496.026367188 c 0
 404.54296875 487.526367188 400.860351562 481.0078125 394.626953125 476.474609375 c 0
 388.959960938 471.94140625 382.7265625 469.674804688 375.926757812 469.674804688 c 2
 373.376953125 469.674804688 l 2
 364.309570312 470.241210938 355.809570312 473.358398438 347.876953125 479.025390625 c 0
 342.209960938 482.9921875 339.376953125 488.659179688 339.376953125 496.026367188 c 0
 339.943359375 497.159179688 340.2265625 498.576171875 340.2265625 500.276367188 c 0
 341.360351562 521.80859375 341.926757812 548.161132812 341.926757812 579.328125 c 2
 341.926757812 611.625976562 l 2
 340.793945312 656.958984375 339.661132812 694.359375 338.52734375 723.826171875 c 2
 338.52734375 725.52734375 l 2
 338.52734375 730.060546875 339.66015625 734.026367188 341.926757812 737.42578125 c 0
 344.193359375 740.826171875 347.02734375 743.092773438 350.427734375 744.225585938 c 0
 358.360351562 747.625976562 365.727539062 749.328125 372.52734375 749.328125 c 0
 374.794921875 748.760742188 376.493164062 748.475585938 377.625976562 748.475585938 c 0
269.674804688 496.026367188 m 0
 268.541992188 486.958984375 264.860351562 480.44140625 258.626953125 476.474609375 c 0
 251.827148438 471.94140625 245.309570312 469.674804688 239.077148438 469.674804688 c 2
 237.376953125 469.674804688 l 2
 228.309570312 470.241210938 219.809570312 473.358398438 211.876953125 479.025390625 c 0
 206.209960938 482.9921875 203.376953125 488.659179688 203.376953125 496.026367188 c 2
 203.376953125 500.276367188 l 2
 205.077148438 522.943359375 205.926757812 550.42578125 205.926757812 582.725585938 c 0
 205.360351562 591.79296875 205.077148438 601.42578125 205.077148438 611.625976562 c 0
 203.943359375 656.958984375 203.09375 694.359375 202.52734375 723.826171875 c 2
 202.52734375 726.375976562 l 2
 202.52734375 730.342773438 203.376953125 734.026367188 205.077148438 737.42578125 c 0
 207.34375 740.826171875 210.176757812 743.092773438 213.577148438 744.225585938 c 0
 221.34765625 747.140625 229.327148438 748.59765625 237.514648438 748.59765625 c 0
 238.87890625 748.59765625 240.25 748.557617188 241.625976562 748.475585938 c 0
 250.125976562 748.475585938 257.776367188 746.493164062 264.576171875 742.526367188 c 0
 267.409179688 740.826171875 269.958984375 737.993164062 272.225585938 734.026367188 c 0
 274.493164062 729.493164062 275.625976562 724.110351562 275.625976562 717.876953125 c 0
 276.193359375 711.077148438 276.475585938 699.744140625 276.475585938 683.876953125 c 0
 276.475585938 668.009765625 275.909179688 637.693359375 274.776367188 592.92578125 c 0
 273.642578125 548.159179688 271.942382812 515.859375 269.674804688 496.026367188 c 0
EndSplineSet
Validated: 524289
EndChar

StartChar: numbersign
Encoding: 35 35 4
Width: 570
VWidth: 904
GlyphClass: 2
Flags: HMW
HStem: 224.2 54.3991 440.948 55.2517 644.952 17G
LayerCount: 2
Fore
SplineSet
273.080078125 440.948242188 m 1
 239.92578125 278.599609375 l 1
 269.958984375 279.166015625 306.796875 279.448242188 350.4296875 279.448242188 c 2
 357.229492188 279.448242188 l 1
 367.4296875 330.448242188 377.346679688 384.28125 386.979492188 440.948242188 c 1
 273.080078125 440.948242188 l 1
236.525390625 224.200195312 m 1
 229.725585938 224.200195312 l 1
 216.692382812 158.466796875 207.625 114.266601562 202.525390625 91.599609375 c 0
 199.125 81.400390625 192.041992188 73.1826171875 181.275390625 66.9501953125 c 0
 174.475585938 62.9833984375 167.958007812 60.9990234375 161.725585938 60.9990234375 c 0
 158.892578125 60.4326171875 156.059570312 60.71484375 153.2265625 61.8486328125 c 0
 145.29296875 63.548828125 139.342773438 69.2158203125 135.375976562 78.849609375 c 0
 133.109375 84.5166015625 131.975585938 90.1826171875 131.975585938 95.849609375 c 0
 131.975585938 101.516601562 132.826171875 107.466796875 134.526367188 113.700195312 c 0
 139.059570312 127.8671875 147.842773438 164.416992188 160.875 223.349609375 c 1
 125.17578125 223.349609375 l 2
 112.142578125 223.349609375 102.791992188 225.6171875 97.125 230.150390625 c 0
 92.025390625 234.1171875 89.4755859375 239.5 89.4755859375 246.299804688 c 2
 89.4755859375 248 l 2
 90.0419921875 255.3671875 92.5927734375 261.317382812 97.125 265.849609375 c 0
 102.225585938 271.516601562 111.008789062 274.633789062 123.475585938 275.201171875 c 0
 127.442382812 275.767578125 134.2421875 276.05078125 143.875 276.05078125 c 0
 153.508789062 276.05078125 162.858398438 276.333984375 171.92578125 276.900390625 c 1
 204.225585938 440.100585938 l 1
 194.025390625 440.100585938 l 1
 158.325195312 439.250976562 l 1
 155.775390625 439.250976562 l 2
 145.575195312 438.68359375 137.642578125 440.951171875 131.975585938 446.05078125 c 0
 126.30859375 450.583984375 123.475585938 456.534179688 123.475585938 463.900390625 c 2
 123.475585938 466.451171875 l 2
 123.475585938 473.250976562 126.025390625 479.201171875 131.125 484.30078125 c 0
 136.791992188 489.967773438 145.858398438 493.084960938 158.325195312 493.651367188 c 0
 169.092773438 494.21875 185.526367188 494.501953125 207.625976562 494.501953125 c 2
 214.42578125 494.501953125 l 1
 239.92578125 632.202148438 l 2
 243.893554688 644.1015625 249.560546875 652.318359375 256.926757812 656.8515625 c 0
 262.59375 660.251953125 268.260742188 661.952148438 273.927734375 661.952148438 c 0
 276.1953125 661.952148438 278.745117188 661.668945312 281.578125 661.1015625 c 0
 291.778320312 658.834960938 299.427734375 654.017578125 304.528320312 646.650390625 c 0
 307.361328125 642.118164062 308.778320312 636.451171875 308.778320312 629.650390625 c 0
 309.344726562 625.68359375 309.061523438 621.716796875 307.928710938 617.75 c 2
 283.278320312 496.200195312 l 1
 396.329101562 496.200195312 l 1
 420.12890625 626.25 l 2
 424.095703125 638.150390625 429.762695312 646.3671875 437.129882812 650.900390625 c 0
 442.229492188 654.299804688 447.612304688 656 453.279296875 656 c 0
 456.112304688 655.432617188 459.229492188 654.866210938 462.629882812 654.298828125 c 0
 472.829101562 652.032226562 480.479492188 647.499023438 485.579101562 640.69921875 c 0
 488.413085938 636.732421875 489.829101562 631.631835938 489.829101562 625.399414062 c 0
 489.829101562 621.432617188 489.262695312 616.899414062 488.129882812 611.798828125 c 0
 481.896484375 587.999023438 474.24609375 549.749023438 465.1796875 497.048828125 c 1
 475.379882812 497.048828125 l 1
 484.729492188 497.048828125 l 2
 496.629882812 497.048828125 506.262695312 493.932617188 513.629882812 487.69921875 c 0
 520.99609375 481.465820312 524.963867188 475.233398438 525.530273438 469 c 0
 524.963867188 461.6328125 522.130859375 455.116210938 517.030273438 449.44921875 c 0
 511.930664062 444.349609375 503.713867188 441.515625 492.380859375 440.948242188 c 2
 454.130859375 440.948242188 l 1
 426.930664062 278.599609375 l 1
 471.979492188 278.599609375 l 2
 482.74609375 278.599609375 489.830078125 276.616210938 493.23046875 272.649414062 c 0
 496.630859375 268.682617188 498.61328125 262.732421875 499.180664062 254.798828125 c 0
 499.180664062 245.732421875 497.48046875 238.932617188 494.080078125 234.399414062 c 0
 490.11328125 228.732421875 482.74609375 225.899414062 471.979492188 225.899414062 c 2
 417.579101562 225.899414062 l 1
 405.6796875 157.33203125 397.1796875 111.432617188 392.079101562 88.19921875 c 0
 388.112304688 78.56640625 381.3125 71.19921875 371.6796875 66.099609375 c 0
 365.446289062 62.69921875 359.213867188 60.9990234375 352.98046875 60.9990234375 c 0
 350.147460938 60.4326171875 347.030273438 60.71484375 343.630859375 61.8486328125 c 0
 335.130859375 64.115234375 328.897460938 69.498046875 324.930664062 77.998046875 c 0
 322.663085938 83.0986328125 321.530273438 88.1982421875 321.530273438 93.298828125 c 0
 321.530273438 98.3984375 322.380859375 104.065429688 324.080078125 110.298828125 c 0
 329.747070312 132.96484375 337.680664062 171.21484375 347.880859375 225.048828125 c 1
 337.680664062 225.048828125 l 1
 236.525390625 224.200195312 l 1
EndSplineSet
Validated: 524289
EndChar

StartChar: dollar
Encoding: 36 36 5
Width: 570
VWidth: 901
GlyphClass: 2
Flags: HMW
HStem: 35.0083 55.2475 363.956 53.5525 606.206 50.15<336.821 344.473 336.821 344.473>
VStem: 131.124 62.0491 284.123 49.3 284.123 53.5517 436.272 62.8991
LayerCount: 2
Fore
SplineSet
432.448242188 259.833984375 m 0xfa
 429.8984375 269.750976562 425.22265625 280.092773438 418.422851562 290.860351562 c 0
 411.623046875 301.626953125 401.706054688 311.543945312 388.672851562 320.610351562 c 0
 375.639648438 329.110351562 360.33984375 336.760742188 342.7734375 343.560546875 c 2
 333.422851562 347.810546875 l 1
 333.422851562 335.911132812 l 1
 332.572265625 210.110351562 l 2
 332.004882812 163.643554688 331.438476562 127.376953125 330.87109375 101.309570312 c 1
 341.921875 106.40625 l 2
 367.989257812 118.305664062 390.088867188 134.743164062 408.22265625 155.709960938 c 0
 426.921875 176.676757812 436.272460938 200.759765625 436.272460938 227.959960938 c 0
 436.272460938 239.29296875 434.998046875 249.916992188 432.448242188 259.833984375 c 0xfa
216.971679688 449.80859375 m 0
 231.138671875 435.075195312 250.405273438 424.30859375 274.772460938 417.508789062 c 2
 284.123046875 415.80859375 l 1xf6
 284.690429688 461.708007812 284.97265625 519.508789062 284.97265625 589.208007812 c 2
 284.97265625 600.258789062 l 1
 274.772460938 597.708007812 l 2
 251.5390625 589.775390625 232.555664062 577.591796875 217.823242188 561.159179688 c 0
 201.389648438 545.291992188 193.172851562 525.7421875 193.172851562 502.508789062 c 0
 193.172851562 482.109375 201.104492188 464.541015625 216.971679688 449.80859375 c 0
219.5234375 41.8056640625 m 0
 202.5234375 46.3388671875 188.07421875 52.85546875 176.174804688 61.35546875 c 0
 151.807617188 77.22265625 133.958007812 95.6396484375 122.625 116.606445312 c 0
 118.091796875 126.806640625 115.82421875 135.58984375 115.82421875 142.95703125 c 0
 115.82421875 152.58984375 120.357421875 159.672851562 129.424804688 164.206054688 c 0
 135.658203125 167.0390625 140.190429688 168.739257812 143.0234375 169.305664062 c 0
 145.857421875 169.873046875 148.124023438 170.15625 149.82421875 170.15625 c 2
 154.923828125 170.15625 l 2
 158.32421875 170.15625 161.866210938 168.59765625 165.548828125 165.48046875 c 0
 169.232421875 162.364257812 173.33984375 157.40625 177.873046875 150.60546875 c 0
 189.7734375 131.90625 203.65625 117.172851562 219.5234375 106.40625 c 0
 233.690429688 95.638671875 251.5390625 90.255859375 273.072265625 90.255859375 c 2
 274.772460938 90.255859375 l 1
 282.422851562 90.255859375 l 1
 283.555664062 190.555664062 284.123046875 277.823242188 284.123046875 352.055664062 c 2
 284.123046875 359.706054688 l 1
 276.755859375 360.272460938 270.09765625 360.98046875 264.1484375 361.831054688 c 2
 249.2734375 363.956054688 l 2
 231.706054688 366.22265625 215.2734375 371.323242188 199.97265625 379.255859375 c 0
 184.106445312 387.188476562 171.356445312 396.822265625 161.72265625 408.155273438 c 0
 152.08984375 419.48828125 144.58203125 431.530273438 139.19921875 444.280273438 c 0
 133.815429688 457.030273438 131.124023438 469.35546875 131.124023438 481.254882812 c 0
 131.124023438 500.521484375 134.241210938 519.080078125 140.473632812 536.9296875 c 0
 146.70703125 554.780273438 155.7734375 571.35546875 167.673828125 586.655273438 c 0
 179.57421875 601.955078125 195.440429688 615.271484375 215.2734375 626.60546875 c 0
 233.973632812 637.938476562 255.22265625 645.87109375 279.022460938 650.404296875 c 2
 284.123046875 651.25390625 l 1xfa
 285.255859375 669.387695312 285.82421875 688.086914062 285.82421875 707.354492188 c 0
 286.390625 719.821289062 288.515625 729.313476562 292.19921875 735.830078125 c 0
 295.881835938 742.346679688 301.973632812 745.60546875 310.473632812 745.60546875 c 2
 312.173828125 745.60546875 l 2
 321.241210938 746.171875 327.7578125 743.0546875 331.724609375 736.254882812 c 0
 335.69140625 730.021484375 337.674804688 721.239257812 337.674804688 709.90625 c 2
 337.674804688 657.206054688 l 1xf6
 344.47265625 656.35546875 l 2
 355.805664062 655.7890625 371.390625 652.956054688 391.223632812 647.85546875 c 0
 412.756835938 642.755859375 428.907226562 638.22265625 439.673828125 634.255859375 c 0
 448.173828125 631.422851562 454.40625 626.60546875 458.373046875 619.805664062 c 0
 461.7734375 614.138671875 463.473632812 608.471679688 463.473632812 602.8046875 c 0
 463.473632812 601.10546875 463.190429688 599.122070312 462.624023438 596.85546875 c 0
 462.056640625 591.754882812 460.639648438 588.072265625 458.373046875 585.8046875 c 0
 455.540039062 583.538085938 452.564453125 582.262695312 449.447265625 581.98046875 c 0
 446.330078125 581.697265625 443.356445312 581.5546875 440.5234375 581.5546875 c 0
 429.190429688 581.5546875 416.72265625 584.671875 403.123046875 590.905273438 c 0
 395.755859375 594.3046875 387.3984375 597.563476562 378.047851562 600.6796875 c 0
 368.698242188 603.796875 357.505859375 605.638671875 344.47265625 606.206054688 c 2
 336.821289062 606.206054688 l 1
 333.422851562 410.706054688 l 1xfa
 340.22265625 409.005859375 l 2
 363.456054688 406.172851562 384.138671875 400.505859375 402.272460938 392.005859375 c 0
 422.10546875 383.505859375 437.830078125 373.873046875 449.447265625 363.10546875 c 0
 461.064453125 352.338867188 470.838867188 340.013671875 478.772460938 326.130859375 c 0
 486.705078125 312.248046875 492.087890625 298.505859375 494.921875 284.90625 c 0
 497.754882812 271.305664062 499.171875 257.138671875 499.171875 242.40625 c 0
 499.171875 217.47265625 494.779296875 193.814453125 485.99609375 171.431640625 c 0
 477.212890625 149.048828125 465.313476562 129.640625 450.296875 113.20703125 c 0
 435.279296875 96.7744140625 417.571289062 82.607421875 397.171875 70.70703125 c 0
 379.038085938 58.8076171875 358.921875 49.740234375 336.821289062 43.5078125 c 2
 330.87109375 41.8056640625 l 1
 330.87109375 35.857421875 l 2
 331.438476562 2.4248046875 332.004882812 -20.2421875 332.572265625 -32.142578125 c 0
 331.439453125 -42.3427734375 327.897460938 -50.134765625 321.947265625 -55.517578125 c 0
 315.997070312 -60.900390625 308.772460938 -63.5927734375 300.272460938 -63.5927734375 c 2
 299.421875 -63.5927734375 l 1
 298.572265625 -63.5927734375 l 2
 291.772460938 -63.5927734375 286.671875 -61.04296875 283.272460938 -55.9423828125 c 0
 280.439453125 -51.4091796875 279.022460938 -44.892578125 279.022460938 -36.392578125 c 2
 279.022460938 -28.7421875 l 2
 280.155273438 -16.275390625 280.72265625 2.1416015625 280.72265625 26.5087890625 c 2
 280.72265625 35.0087890625 l 1
 273.072265625 35.0087890625 l 1
 269.671875 35.0087890625 l 2
 252.10546875 35.0087890625 235.389648438 37.2724609375 219.5234375 41.8056640625 c 0
EndSplineSet
Validated: 524289
EndChar

StartChar: percent
Encoding: 37 37 6
Width: 570
VWidth: 898
GlyphClass: 2
Flags: HMW
HStem: 33.6764 48.45 202.826 45.9275 424.677 46.7492 594.714 45.0139
VStem: 103.926 45.0508 117.954 58.2241 253.527 39.0983 322.378 41.6517 415.876 59.5008 466.939 44.1384
LayerCount: 2
Fore
SplineSet
373.37890625 99.1259765625 m 0xf340
 380.74609375 88.9267578125 394.0625 83.259765625 413.329101562 82.1259765625 c 2
 415.875976562 82.1259765625 l 2xf380
 431.17578125 82.1259765625 443.221679688 87.3681640625 452.004882812 97.8515625 c 0
 460.787109375 108.334960938 465.74609375 121.79296875 466.87890625 138.225585938 c 2
 466.87890625 139.075195312 l 1
 466.87890625 141.625976562 l 2
 466.918945312 142.880859375 466.939453125 144.1171875 466.939453125 145.334960938 c 0
 466.939453125 161.158203125 463.51953125 173.8046875 456.678710938 183.275390625 c 0
 447.045898438 196.30859375 432.3125 202.825195312 412.479492188 202.825195312 c 0
 397.1796875 202.825195312 385.279296875 196.875976562 376.779296875 184.975585938 c 0
 368.846679688 173.075195312 364.596679688 158.05859375 364.029296875 139.92578125 c 2
 364.029296875 136.525390625 l 2
 363.985351562 135.3046875 363.963867188 134.103515625 363.963867188 132.921875 c 0
 363.963867188 118.759765625 367.1015625 107.495117188 373.37890625 99.1259765625 c 0xf340
360.626953125 48.5517578125 m 0
 347.59375 58.46875 337.959960938 71.076171875 331.7265625 86.3759765625 c 0
 325.494140625 101.676757812 322.37890625 118.109375 322.37890625 135.676757812 c 2
 322.37890625 137.375976562 l 2
 322.37890625 170.243164062 330.595703125 197.018554688 347.028320312 217.701171875 c 0
 363.461914062 238.384765625 387.26171875 248.7265625 418.428710938 248.7265625 c 0
 419.278320312 248.744140625 420.125 248.752929688 420.965820312 248.752929688 c 0
 447.0234375 248.752929688 468.560546875 240.244140625 485.578125 223.2265625 c 0
 494.078125 214.159179688 500.594726562 201.9765625 505.127929688 186.676757812 c 0
 509.094726562 174.776367188 511.078125 161.459960938 511.078125 146.7265625 c 0xf340
 511.078125 143.326171875 510.794921875 138.2265625 510.227539062 131.426757812 c 0
 508.528320312 98.5595703125 499.4609375 73.9091796875 483.028320312 57.4765625 c 0
 466.594726562 41.609375 441.662109375 33.6767578125 408.228515625 33.6767578125 c 2
 405.678710938 33.6767578125 l 2
 388.678710938 33.6767578125 373.66015625 38.634765625 360.626953125 48.5517578125 c 0
159.1796875 489.276367188 m 0
 167.112304688 479.076171875 181.845703125 473.125976562 203.37890625 471.426757812 c 2
 204.228515625 471.426757812 l 2
 219.528320312 471.426757812 231.145507812 476.809570312 239.079101562 487.576171875 c 0
 247.01171875 498.34375 251.544921875 512.2265625 252.677734375 529.2265625 c 0
 253.245117188 530.359375 253.528320312 531.776367188 253.528320312 533.4765625 c 0
 252.9609375 553.309570312 248.427734375 568.326171875 239.927734375 578.526367188 c 0
 230.861328125 589.29296875 218.111328125 594.676757812 201.677734375 594.676757812 c 0
 200.962890625 594.701171875 200.254882812 594.713867188 199.5546875 594.713867188 c 0
 184.142578125 594.713867188 172.100585938 588.750976562 163.427734375 576.826171875 c 0
 155.495117188 565.493164062 150.677734375 550.4765625 148.977539062 531.776367188 c 2
 148.977539062 527.526367188 l 2xfb
 148.9375 526.352539062 148.916992188 525.198242188 148.916992188 524.061523438 c 0
 148.916992188 509.291015625 152.338867188 497.696289062 159.1796875 489.276367188 c 0
208.4765625 214.727539062 m 2
 331.7265625 450.177734375 l 2
 373.09375 529.510742188 401.143554688 586.459960938 415.876953125 621.02734375 c 0
 422.676757812 631.227539062 432.310546875 636.327148438 444.77734375 636.327148438 c 0
 450.444335938 636.327148438 456.111328125 634.91015625 461.778320312 632.077148438 c 0
 470.844726562 627.543945312 475.377929688 621.59375 475.377929688 614.227539062 c 0
 475.377929688 607.994140625 472.546875 600.34375 466.879882812 591.27734375 c 0
 445.346679688 556.709960938 397.461914062 468.59375 323.228515625 326.926757812 c 0
 250.12890625 185.259765625 201.111328125 89.2099609375 176.178710938 38.7763671875 c 0
 166.545898438 21.7763671875 156.62890625 13.2763671875 146.428710938 13.2763671875 c 0
 143.028320312 13.2763671875 138.920898438 14.4091796875 134.103515625 16.6767578125 c 0
 129.287109375 18.943359375 125.461914062 21.91796875 122.62890625 25.6015625 c 0
 119.795898438 29.2841796875 118.237304688 34.1015625 117.954101562 40.0517578125 c 0xf780
 117.9375 40.4013671875 117.9296875 40.7548828125 117.9296875 41.1142578125 c 0
 117.9296875 46.85546875 120.0625 53.7265625 124.329101562 61.7265625 c 0
 136.229492188 86.09375 164.27734375 137.09375 208.4765625 214.727539062 c 2
146.000976562 439.552734375 m 0
 132.118164062 449.46875 121.634765625 462.077148438 114.551757812 477.376953125 c 0
 107.46875 492.677734375 103.926757812 509.110351562 103.926757812 526.677734375 c 2
 103.926757812 528.376953125 l 2xfb
 103.926757812 561.244140625 112.994140625 588.01953125 131.126953125 608.702148438 c 0
 149.259765625 629.385742188 174.759765625 639.727539062 207.626953125 639.727539062 c 0
 208.40625 639.745117188 209.181640625 639.75390625 209.953125 639.75390625 c 0
 233.849609375 639.75390625 253.756835938 631.245117188 269.67578125 614.227539062 c 0
 277.609375 605.16015625 283.559570312 592.977539062 287.526367188 577.677734375 c 0
 290.92578125 565.77734375 292.625976562 551.89453125 292.625976562 536.02734375 c 0
 292.625976562 496.360351562 284.125976562 467.459960938 267.125976562 449.327148438 c 0
 251.826171875 432.89453125 228.026367188 424.677734375 195.7265625 424.677734375 c 2
 194.026367188 424.677734375 l 2
 175.893554688 424.677734375 159.883789062 429.635742188 146.000976562 439.552734375 c 0
EndSplineSet
Validated: 524289
EndChar

StartChar: ampersand
Encoding: 38 38 7
Width: 570
VWidth: 901
GlyphClass: 2
Flags: HMW
HStem: 23.9575 62.9009 607.908 50.2351
VStem: 96.2781 68.0025 169.378 64.6017 369.13 53.6429
LayerCount: 2
Fore
SplineSet
506.825195312 60.5078125 m 2
 506.825195312 53.7080078125 l 2
 505.125976562 40.107421875 501.159179688 31.607421875 494.92578125 28.2080078125 c 0
 491.525390625 25.9404296875 487.55859375 24.8076171875 483.025390625 24.8076171875 c 0
 479.05859375 24.8076171875 474.2421875 26.224609375 468.575195312 29.0576171875 c 0
 457.2421875 34.724609375 447.325195312 44.9248046875 438.825195312 59.6572265625 c 0
 437.125 62.490234375 433.724609375 70.7080078125 428.625 84.3076171875 c 0
 423.524414062 97.9072265625 419.274414062 108.107421875 415.875 114.907226562 c 2
 409.924804688 127.657226562 l 1
 392.357421875 103.291015625 382.158203125 89.4072265625 379.325195312 86.0078125 c 0
 376.4921875 83.1748046875 371.958984375 78.357421875 365.725585938 71.5576171875 c 0
 359.4921875 64.7578125 354.109375 59.6572265625 349.576171875 56.2578125 c 0
 345.04296875 53.4248046875 339.09375 49.4580078125 331.7265625 44.357421875 c 0
 324.926757812 39.2578125 318.126953125 35.57421875 311.326171875 33.3076171875 c 0
 304.526367188 31.041015625 296.59375 29.0576171875 287.526367188 27.357421875 c 0
 277.893554688 25.0908203125 268.260742188 23.9580078125 258.626953125 23.9580078125 c 0
 228.594726562 23.9580078125 201.111328125 31.607421875 176.177734375 46.9072265625 c 0
 151.245117188 62.2080078125 131.6953125 82.607421875 117.528320312 108.107421875 c 0
 103.361328125 134.174804688 96.2783203125 161.94140625 96.2783203125 191.408203125 c 0
 96.2783203125 237.30859375 104.778320312 276.69140625 121.778320312 309.55859375 c 0
 142.177734375 350.358398438 176.177734375 381.241210938 223.778320312 402.208007812 c 2
 232.278320312 406.458007812 l 1
 223.778320312 420.05859375 215.844726562 432.80859375 208.478515625 444.708007812 c 0
 201.111328125 456.041015625 196.010742188 464.258789062 193.177734375 469.358398438 c 0
 190.344726562 474.458007812 186.9453125 480.69140625 182.978515625 488.05859375 c 0
 179.010742188 495.42578125 176.4609375 501.658203125 175.328125 506.758789062 c 0
 171.361328125 522.05859375 169.377929688 537.075195312 169.377929688 551.80859375 c 0
 169.377929688 561.44140625 170.794921875 570.791015625 173.627929688 579.858398438 c 0
 175.895507812 588.92578125 180.145507812 598.275390625 186.377929688 607.908203125 c 0
 192.611328125 617.541015625 200.260742188 626.041015625 209.328125 633.408203125 c 0
 218.395507812 640.775390625 230.578125 646.725585938 245.877929688 651.258789062 c 0
 260.611328125 655.791015625 277.611328125 658.05859375 296.877929688 658.05859375 c 0
 298.46484375 658.115234375 300.046875 658.142578125 301.622070312 658.142578125 c 0
 315.799804688 658.142578125 329.518554688 655.84765625 342.778320312 651.258789062 c 0
 358.078125 646.158203125 371.677734375 639.075195312 383.578125 630.008789062 c 0
 395.478515625 620.375 405.111328125 608.192382812 412.478515625 593.458984375 c 0
 419.278320312 578.7265625 422.677734375 562.29296875 422.677734375 544.16015625 c 0
 422.741210938 542.14453125 422.772460938 540.150390625 422.772460938 538.17578125 c 0
 422.772460938 522.39453125 420.7578125 507.956054688 416.728515625 494.861328125 c 0
 412.196289062 479.560546875 406.529296875 467.09375 399.728515625 457.4609375 c 0
 392.928710938 447.828125 384.428710938 438.477539062 374.228515625 429.411132812 c 0
 364.029296875 420.34375 354.678710938 412.9765625 346.178710938 407.309570312 c 0
 337.112304688 401.643554688 326.62890625 395.9765625 314.728515625 390.309570312 c 2
 307.079101562 386.909179688 l 1
 311.329101562 379.258789062 l 2
 322.095703125 361.125976562 339.663085938 334.776367188 364.030273438 300.208984375 c 0
 388.396484375 265.642578125 403.979492188 242.975585938 410.780273438 232.208007812 c 2
 418.4296875 219.458007812 l 1
 426.9296875 235.891601562 433.446289062 249.491210938 437.979492188 260.258789062 c 0
 443.080078125 271.025390625 447.046875 279.525390625 449.879882812 285.758789062 c 0
 452.712890625 291.991210938 454.979492188 296.524414062 456.6796875 299.357421875 c 0
 465.747070312 312.958007812 473.963867188 321.174804688 481.331054688 324.0078125 c 0
 483.59765625 324.57421875 486.147460938 324.857421875 488.98046875 324.857421875 c 0
 494.081054688 324.857421875 499.463867188 323.440429688 505.130859375 320.607421875 c 0
 511.930664062 317.774414062 516.180664062 311.541015625 517.880859375 301.908203125 c 0
 518.447265625 299.075195312 518.73046875 296.525390625 518.73046875 294.258789062 c 0
 518.73046875 285.758789062 516.180664062 276.125 511.081054688 265.358398438 c 0
 508.813476562 260.825195312 500.596679688 249.775390625 486.4296875 232.208007812 c 0
 472.262695312 214.641601562 460.36328125 198.491210938 450.729492188 183.758789062 c 2
 448.1796875 179.508789062 l 1
 457.247070312 164.208007812 473.6796875 135.591796875 497.479492188 93.658203125 c 0
 503.712890625 83.4580078125 506.825195312 72.4072265625 506.825195312 60.5078125 c 2
233.979492188 537.358398438 m 0
 233.979492188 522.05859375 237.946289062 505.341796875 245.879882812 487.208007812 c 0
 254.379882812 469.641601562 264.296875 454.05859375 275.629882812 440.458007812 c 2
 279.030273438 436.208007812 l 1
 284.129882812 437.908203125 l 2
 297.163085938 441.875 308.212890625 446.125 317.280273438 450.658203125 c 0
 326.346679688 455.19140625 335.129882812 461.141601562 343.629882812 468.508789062 c 0
 352.129882812 475.875 358.36328125 485.225585938 362.330078125 496.55859375 c 0
 366.86328125 507.325195312 369.129882812 520.075195312 369.129882812 534.80859375 c 0
 369.129882812 558.608398438 361.762695312 576.741210938 347.030273438 589.208007812 c 0
 332.296875 601.67578125 315.013671875 607.908203125 295.180664062 607.908203125 c 0
 272.513671875 607.908203125 256.081054688 600.258789062 245.880859375 584.958007812 c 0
 237.947265625 573.05859375 233.979492188 557.19140625 233.979492188 537.358398438 c 0
164.280273438 199.05859375 m 0
 164.280273438 167.325195312 173.063476562 140.975585938 190.630859375 120.008789062 c 0
 208.197265625 97.908203125 231.147460938 86.8583984375 259.48046875 86.8583984375 c 0
 274.213867188 87.42578125 289.513671875 90.2587890625 305.380859375 95.3583984375 c 0
 311.047851562 97.05859375 316.998046875 100.17578125 323.23046875 104.708007812 c 0
 330.030273438 108.67578125 335.130859375 112.075195312 338.530273438 114.908203125 c 0
 341.930664062 117.741210938 346.180664062 121.991210938 351.280273438 127.658203125 c 0
 356.380859375 133.325195312 359.780273438 137.291992188 361.48046875 139.559570312 c 0
 363.748046875 141.258789062 366.864257812 145.2265625 370.831054688 151.458984375 c 0
 374.798828125 157.692382812 378.198242188 162.508789062 381.03125 165.909179688 c 1
 369.131835938 191.409179688 359.78125 210.392578125 352.981445312 222.859375 c 0
 345.614257812 236.458984375 331.731445312 257.9921875 311.331054688 287.458984375 c 0
 290.931640625 316.92578125 275.064453125 340.7265625 263.731445312 358.859375 c 1
 256.931640625 356.309570312 l 2
 239.364257812 347.809570312 224.34765625 337.892578125 211.880859375 326.559570312 c 0
 198.84765625 315.2265625 188.930664062 302.4765625 182.130859375 288.309570312 c 0
 175.897460938 274.142578125 171.364257812 259.975585938 168.53125 245.80859375 c 0
 165.698242188 231.641601562 164.280273438 216.05859375 164.280273438 199.05859375 c 0
EndSplineSet
Validated: 524289
EndChar

StartChar: quotesingle
Encoding: 39 39 8
Width: 570
VWidth: 941
GlyphClass: 2
Flags: HMW
HStem: 479.034 261.057
VStem: 271.376 71.4
LayerCount: 2
Fore
SplineSet
337.674804688 505.384765625 m 0
 336.541992188 496.317382812 332.860351562 489.517578125 326.626953125 484.984375 c 0
 320.393554688 481.017578125 313.876953125 479.034179688 307.077148438 479.034179688 c 2
 305.376953125 479.034179688 l 2
 295.744140625 479.6015625 287.244140625 482.71875 279.876953125 488.385742188 c 0
 274.209960938 492.91796875 271.376953125 498.868164062 271.376953125 506.235351562 c 2
 271.376953125 508.78515625 l 1
 271.376953125 509.635742188 l 2
 272.946289062 533.174804688 273.731445312 560.395507812 273.731445312 591.298828125 c 0
 273.731445312 627.349609375 272.663085938 668.412109375 270.52734375 714.485351562 c 2
 270.52734375 716.185546875 l 2
 270.52734375 720.71875 271.376953125 724.685546875 273.077148438 728.084960938 c 0
 275.34375 731.485351562 278.176757812 733.751953125 281.577148438 734.885742188 c 0
 289.509765625 738.35546875 297.659179688 740.091796875 306.026367188 740.091796875 c 0
 307.221679688 740.091796875 308.421875 740.055664062 309.625976562 739.985351562 c 0
 318.125976562 739.41796875 325.776367188 737.151367188 332.576171875 733.184570312 c 0
 335.975585938 731.484375 338.809570312 728.651367188 341.076171875 724.684570312 c 0
 342.776367188 720.717773438 343.625976562 715.333984375 343.625976562 708.534179688 c 0
 344.193359375 701.734375 344.475585938 690.684570312 344.475585938 675.384765625 c 0
 344.475585938 660.083984375 343.909179688 632.884765625 342.776367188 593.784179688 c 0
 341.642578125 554.684570312 339.942382812 525.217773438 337.674804688 505.384765625 c 0
EndSplineSet
Validated: 524289
EndChar

StartChar: parenleft
Encoding: 40 40 9
Width: 570
VWidth: 901
GlyphClass: 2
Flags: HMW
HStem: -52.55 55.2491 682.7 51.85<391.781 403.114>
VStem: 188.792 66.4232
LayerCount: 2
Fore
SplineSet
425.213867188 -27.900390625 m 0
 425.213867188 -34.7001953125 422.380859375 -40.3671875 416.713867188 -44.900390625 c 0
 411.614257812 -50 405.947265625 -52.5498046875 399.713867188 -52.5498046875 c 0
 363.447265625 -51.9833984375 330.580078125 -38.666015625 301.11328125 -12.599609375 c 0
 271.646484375 13.4677734375 247.563476562 50.017578125 228.86328125 97.05078125 c 0
 210.163085938 144.650390625 197.696289062 199.333984375 191.462890625 261.100585938 c 0
 189.763671875 278.100585938 188.913085938 299.350585938 188.913085938 324.850585938 c 0
 188.83203125 328.495117188 188.791015625 332.271484375 188.791015625 336.181640625 c 0
 188.791015625 359.633789062 190.249023438 387.874023438 193.163085938 420.900390625 c 0
 199.396484375 486.633789062 210.446289062 540.466796875 226.313476562 582.400390625 c 0
 233.11328125 601.099609375 242.462890625 619.233398438 254.36328125 636.799804688 c 0
 266.263671875 654.3671875 279.86328125 670.516601562 295.163085938 685.25 c 0
 309.896484375 699.983398438 326.61328125 711.8828125 345.313476562 720.950195312 c 0
 364.580078125 730.016601562 382.997070312 734.549804688 400.564453125 734.549804688 c 0
 409.064453125 734.549804688 415.296875 732.849609375 419.263671875 729.450195312 c 0
 423.796875 725.483398438 426.064453125 718.682617188 426.064453125 709.049804688 c 0
 426.064453125 699.416992188 423.796875 692.6171875 419.263671875 688.650390625 c 0
 414.1640625 684.682617188 407.364257812 682.700195312 398.864257812 682.700195312 c 0
 382.430664062 682.700195312 367.130859375 677.8828125 352.963867188 668.25 c 0
 339.364257812 659.182617188 327.463867188 646.715820312 317.263671875 630.849609375 c 0
 297.430664062 601.381835938 282.698242188 565.399414062 273.065429688 522.899414062 c 0
 265.698242188 493.432617188 260.59765625 452.631835938 257.764648438 400.499023438 c 0
 256.065429688 373.866210938 255.21484375 350.06640625 255.21484375 329.099609375 c 0
 255.782226562 307.56640625 256.631835938 288.866210938 257.764648438 272.999023438 c 0
 260.59765625 238.432617188 266.831054688 204.432617188 276.463867188 170.999023438 c 0
 285.53125 137.56640625 296.581054688 108.94921875 309.614257812 85.1494140625 c 0
 322.081054688 60.7822265625 336.248046875 40.94921875 352.115234375 25.6494140625 c 0
 368.547851562 10.349609375 384.415039062 2.69921875 399.71484375 2.69921875 c 0
 408.21484375 2.69921875 414.732421875 0.7158203125 419.264648438 -3.2509765625 c 0
 423.232421875 -7.2177734375 425.213867188 -15.4326171875 425.213867188 -27.900390625 c 0
EndSplineSet
Validated: 524289
EndChar

StartChar: parenright
Encoding: 41 41 10
Width: 570
VWidth: 901
GlyphClass: 2
Flags: HMW
HStem: -52.5499 55.2508 682.701 51.85
VStem: 359.755 66.3
LayerCount: 2
Fore
SplineSet
423.505859375 261.099609375 m 0
 417.2734375 199.333007812 404.805664062 144.650390625 386.106445312 97.0498046875 c 0
 367.40625 50.0166015625 343.323242188 13.466796875 313.856445312 -12.599609375 c 0
 283.823242188 -39.2333984375 250.956054688 -52.5498046875 215.255859375 -52.5498046875 c 0
 209.588867188 -51.9833984375 203.921875 -49.4326171875 198.254882812 -44.900390625 c 0
 192.022460938 -40.3671875 188.905273438 -34.7001953125 188.905273438 -27.900390625 c 0
 188.905273438 -15.4326171875 191.171875 -7.2158203125 195.705078125 -3.2490234375 c 0
 199.671875 0.7177734375 206.189453125 2.701171875 215.255859375 2.701171875 c 0
 230.555664062 2.701171875 246.138671875 10.3505859375 262.005859375 25.6513671875 c 0
 277.873046875 41.517578125 292.323242188 61.3505859375 305.356445312 85.1513671875 c 0
 317.823242188 108.951171875 328.873046875 137.567382812 338.505859375 171.000976562 c 0
 348.138671875 204.43359375 354.372070312 238.43359375 357.205078125 273.000976562 c 0
 358.905273438 290.000976562 359.754882812 308.984375 359.754882812 329.951171875 c 0
 359.754882812 350.91796875 358.905273438 374.434570312 357.205078125 400.501953125 c 0
 354.372070312 452.068359375 349.272460938 492.869140625 341.905273438 522.901367188 c 0
 331.705078125 565.401367188 316.971679688 601.668945312 297.705078125 631.702148438 c 0
 288.072265625 646.434570312 276.171875 658.618164062 262.004882812 668.250976562 c 0
 247.837890625 677.883789062 232.821289062 682.701171875 216.954101562 682.701171875 c 0
 208.454101562 682.701171875 201.37109375 684.68359375 195.704101562 688.651367188 c 0
 191.170898438 692.05078125 188.904296875 698.567382812 188.904296875 708.201171875 c 0
 188.337890625 714.43359375 188.904296875 719.250976562 190.604492188 722.651367188 c 0
 192.3046875 726.618164062 194.287109375 729.16796875 196.5546875 730.30078125 c 0
 201.654296875 733.133789062 207.604492188 734.55078125 214.404296875 734.55078125 c 0
 233.104492188 734.55078125 251.521484375 730.017578125 269.654296875 720.951171875 c 0
 287.787109375 711.883789062 304.50390625 699.984375 319.8046875 685.250976562 c 0
 335.104492188 670.517578125 348.704101562 654.368164062 360.604492188 636.80078125 c 0
 372.50390625 618.66796875 381.854492188 600.53515625 388.654296875 582.401367188 c 0
 404.521484375 540.46875 415.288085938 486.635742188 420.955078125 420.90234375 c 0
 424.35546875 382.369140625 426.055664062 350.352539062 426.055664062 324.852539062 c 0
 426.055664062 299.352539062 425.206054688 278.099609375 423.505859375 261.099609375 c 0
EndSplineSet
Validated: 524289
EndChar

StartChar: asterisk
Encoding: 42 42 11
Width: 570
VWidth: 902
GlyphClass: 2
Flags: HMW
HStem: 309.609 71.4<132.257 134.525 131.975 148.974> 320.658 48.4492 320.658 59.4991
VStem: 364.025 61.1958
LayerCount: 2
Fore
SplineSet
416.724609375 164.258789062 m 0x50
 411.625 160.859375 405.106445312 159.442382812 397.173828125 160.008789062 c 0
 389.806640625 160.008789062 383.006835938 161.42578125 376.7734375 164.258789062 c 0
 370.541015625 167.092773438 366.291015625 171.625 364.0234375 177.858398438 c 0
 356.657226562 201.658203125 341.639648438 235.091796875 318.97265625 278.158203125 c 2
 311.323242188 292.608398438 l 1
 304.522460938 278.158203125 l 2
 277.323242188 224.891601562 260.606445312 189.758789062 254.373046875 172.758789062 c 0
 252.672851562 168.225585938 249.83984375 164.541992188 245.873046875 161.708984375 c 0
 241.90625 159.442382812 237.373046875 158.025390625 232.272460938 157.458007812 c 2
 228.022460938 157.458007812 l 2
 217.823242188 157.458007812 209.323242188 159.44140625 202.522460938 163.408203125 c 0
 199.123046875 165.108398438 196.005859375 168.225585938 193.172851562 172.758789062 c 0
 190.33984375 177.858398438 188.356445312 183.525390625 187.223632812 189.758789062 c 2
 187.223632812 192.30859375 l 2
 187.223632812 197.975585938 188.640625 203.642578125 191.473632812 209.309570312 c 2
 256.07421875 314.708984375 l 1
 199.407226562 311.309570312 160.0234375 309.609375 137.923828125 309.609375 c 0
 126.590820312 309.609375 117.807617188 313.291992188 111.57421875 320.659179688 c 0
 105.341796875 327.458984375 102.224609375 335.109375 102.224609375 343.609375 c 2
 102.224609375 346.159179688 l 2
 102.224609375 354.659179688 104.491210938 362.592773438 109.024414062 369.958984375 c 0
 111.291015625 373.92578125 114.408203125 376.758789062 118.375 378.458984375 c 0
 122.908203125 380.159179688 127.44140625 381.008789062 131.974609375 381.008789062 c 2
 134.524414062 381.008789062 l 2x90
 160.591796875 378.7421875 204.224609375 375.625 265.424804688 371.658203125 c 1
 257.774414062 385.258789062 l 2
 233.407226562 426.625 213.291015625 458.358398438 197.423828125 480.458007812 c 0
 191.756835938 490.091796875 188.923828125 499.44140625 188.923828125 508.508789062 c 2
 188.923828125 513.608398438 l 2
 190.056640625 522.67578125 193.740234375 528.625 199.97265625 531.458007812 c 1
 199.97265625 532.30859375 l 1
 204.505859375 535.141601562 209.888671875 536.55859375 216.122070312 536.55859375 c 0
 222.35546875 537.125 228.872070312 535.42578125 235.671875 531.458007812 c 0
 242.471679688 527.491210938 247.572265625 521.82421875 250.971679688 514.458007812 c 0
 257.205078125 500.291015625 276.188476562 463.173828125 307.920898438 403.106445312 c 1
 314.721679688 415.856445312 l 2
 337.388671875 454.95703125 354.670898438 487.540039062 366.571289062 513.606445312 c 0
 369.971679688 520.407226562 374.788085938 525.790039062 381.021484375 529.756835938 c 0
 386.9140625 533.587890625 392.654296875 535.502929688 398.241210938 535.502929688 c 0
 403.3984375 535.502929688 408.42578125 533.87109375 413.321289062 530.606445312 c 0
 417.288085938 528.33984375 420.688476562 524.939453125 423.521484375 520.407226562 c 0
 426.354492188 515.874023438 427.771484375 509.923828125 427.771484375 502.556640625 c 0
 427.771484375 495.189453125 425.50390625 488.106445312 420.971679688 481.306640625 c 0
 402.837890625 454.673828125 382.721679688 421.5234375 360.62109375 381.856445312 c 2
 353.821289062 369.106445312 l 1
 368.271484375 369.106445312 l 2x50
 418.704101562 369.106445312 454.6875 372.223632812 476.220703125 378.45703125 c 0
 479.053710938 379.58984375 481.88671875 380.157226562 484.719726562 380.157226562 c 0
 490.953125 380.157226562 496.3359375 378.173828125 500.869140625 374.20703125 c 0
 508.235351562 367.407226562 512.203125 360.323242188 512.76953125 352.95703125 c 0
 512.76953125 348.423828125 512.203125 343.890625 511.069335938 339.357421875 c 0
 508.236328125 328.590820312 503.703125 321.5078125 497.470703125 318.107421875 c 0
 495.203125 316.974609375 492.936523438 316.407226562 490.669921875 316.407226562 c 0
 487.836914062 315.840820312 485.569335938 315.840820312 483.869140625 316.407226562 c 0
 469.13671875 319.240234375 443.069335938 320.657226562 405.669921875 320.657226562 c 0x30
 400.00390625 320.94140625 392.920898438 321.083007812 384.420898438 321.083007812 c 0
 375.920898438 321.083007812 366.00390625 320.94140625 354.670898438 320.657226562 c 1
 419.270507812 210.157226562 l 2
 423.803710938 200.524414062 426.0703125 192.024414062 426.0703125 184.657226562 c 0
 425.50390625 183.524414062 425.220703125 182.107421875 425.220703125 180.407226562 c 0
 424.653320312 172.474609375 421.82421875 167.092773438 416.724609375 164.258789062 c 0x50
EndSplineSet
Validated: 524289
EndChar

StartChar: plus
Encoding: 43 43 12
Width: 570
VWidth: 909
GlyphClass: 2
Flags: HMW
HStem: 371.876 54.3991
VStem: 279.873 52.7025
LayerCount: 2
Fore
SplineSet
186.375 371.025390625 m 2
 174.474609375 371.025390625 165.974609375 373.858398438 160.875 379.525390625 c 0
 155.208007812 384.625 152.375 391.141601562 152.375 399.075195312 c 2
 152.375 401.625 l 2
 152.942382812 408.9921875 155.4921875 415.224609375 160.025390625 420.325195312 c 0
 165.125 425.424804688 172.775390625 427.974609375 182.974609375 427.974609375 c 2
 185.525390625 427.974609375 l 2
 225.7578125 426.841796875 254.655273438 426.275390625 272.22265625 426.275390625 c 2
 279.873046875 426.275390625 l 1
 279.873046875 434.775390625 l 2
 279.873046875 463.108398438 279.30859375 493.708007812 278.174804688 526.575195312 c 2
 278.174804688 529.974609375 l 2
 278.174804688 539.041992188 280.724609375 545.55859375 285.825195312 549.526367188 c 0
 290.358398438 552.92578125 297.158203125 554.625976562 306.224609375 554.625976562 c 2
 309.625 554.625976562 l 2
 317.55859375 554.625976562 324.075195312 552.92578125 329.174804688 549.526367188 c 0
 333.141601562 546.692382812 335.125 540.743164062 335.125 531.67578125 c 2
 335.125 527.42578125 l 2
 333.424804688 494.55859375 332.575195312 463.109375 332.575195312 433.076171875 c 2
 332.575195312 425.42578125 l 1
 434.575195312 425.42578125 l 2
 445.341796875 425.42578125 452.424804688 423.442382812 455.825195312 419.475585938 c 0
 459.791992188 414.942382812 462.05859375 408.9921875 462.625976562 401.625 c 0
 462.05859375 397.091796875 461.4921875 393.125976562 460.924804688 389.725585938 c 0
 460.358398438 386.326171875 458.94140625 382.924804688 456.673828125 379.525390625 c 0
 453.840820312 374.9921875 447.891601562 372.725585938 438.82421875 372.725585938 c 2
 435.423828125 372.725585938 l 2
 425.791015625 373.859375 412.19140625 374.42578125 394.624023438 374.42578125 c 0
 377.624023438 374.42578125 356.657226562 374.142578125 331.724609375 373.576171875 c 1
 331.724609375 365.076171875 l 1
 331.724609375 310.67578125 l 2
 332.291015625 289.708984375 332.575195312 276.958984375 332.575195312 272.42578125 c 0
 332.0078125 262.225585938 329.740234375 255.142578125 325.7734375 251.17578125 c 0
 321.806640625 247.208984375 316.139648438 244.942382812 308.772460938 244.375 c 0
 299.706054688 244.942382812 292.905273438 246.924804688 288.373046875 250.325195312 c 0
 282.706054688 254.291992188 279.873046875 261.659179688 279.873046875 272.42578125 c 2
 279.873046875 371.875976562 l 1
 272.22265625 371.875976562 l 1
 186.375 371.025390625 l 2
EndSplineSet
Validated: 524289
EndChar

StartChar: comma
Encoding: 44 44 13
Width: 570
VWidth: 845
GlyphClass: 2
Flags: HMW
VStem: 228.875 158.098
LayerCount: 2
Fore
SplineSet
259.474609375 -180.900390625 m 0
 249.274414062 -180.900390625 241.057617188 -177.783203125 234.825195312 -171.549804688 c 0
 231.424804688 -167.583007812 229.44140625 -162.765625 228.875 -157.098632812 c 0
 228.307617188 -155.965820312 228.024414062 -155.116210938 228.024414062 -154.548828125 c 0
 228.591796875 -151.149414062 230.575195312 -146.048828125 233.974609375 -139.249023438 c 0
 245.875 -122.249023438 262.307617188 -84.56640625 283.274414062 -26.19921875 c 0
 304.807617188 32.16796875 317.840820312 72.9677734375 322.374023438 96.201171875 c 0
 323.506835938 101.868164062 326.33984375 106.401367188 330.873046875 109.80078125 c 0
 335.973632812 113.201171875 341.073242188 114.901367188 346.172851562 114.901367188 c 2
 347.873046875 114.901367188 l 2
 353.540039062 114.901367188 358.922851562 114.333984375 364.0234375 113.201171875 c 0
 371.389648438 110.93359375 377.33984375 106.68359375 381.873046875 100.451171875 c 0
 385.2734375 96.484375 386.973632812 91.3837890625 386.973632812 85.1513671875 c 0
 386.973632812 84.017578125 386.690429688 81.7509765625 386.123046875 78.3505859375 c 0
 380.456054688 50.583984375 368.2734375 8.083984375 349.573242188 -49.1494140625 c 0
 339.373046875 -80.8818359375 330.873046875 -104.96484375 324.073242188 -121.3984375 c 0
 316.706054688 -137.265625 311.0390625 -148.032226562 307.072265625 -153.69921875 c 0
 299.139648438 -164.465820312 288.939453125 -172.116210938 276.47265625 -176.649414062 c 0
 269.671875 -179.482421875 264.0078125 -180.900390625 259.474609375 -180.900390625 c 0
EndSplineSet
Validated: 524289
EndChar

StartChar: hyphen
Encoding: 45 45 14
Width: 570
VWidth: 893
GlyphClass: 2
Flags: HMW
HStem: 257.325 57.8<212.723 222.64> 263.275 51.85
VStem: 184.673 245.652
LayerCount: 2
Fore
SplineSet
184.674804688 289.625 m 2x60
 184.674804688 299.2578125 187.224609375 306.057617188 192.325195312 310.025390625 c 0
 196.291992188 313.424804688 202.524414062 315.125 211.024414062 315.125 c 0
 243.325195312 315.125 281.857421875 315.408203125 326.625 315.974609375 c 0
 371.391601562 317.108398438 396.891601562 317.674804688 403.125 317.674804688 c 0
 413.891601562 317.674804688 420.974609375 315.692382812 424.375 311.724609375 c 0
 427.774414062 307.192382812 429.7578125 301.2421875 430.325195312 293.875 c 0
 430.325195312 284.807617188 428.625 278.0078125 425.224609375 273.474609375 c 0
 421.2578125 267.807617188 413.890625 264.974609375 403.124023438 264.974609375 c 0
 395.756835938 264.974609375 367.139648438 263.841796875 317.2734375 261.575195312 c 0
 267.40625 258.7421875 232.556640625 257.325195312 212.723632812 257.325195312 c 0xa0
 203.65625 257.891601562 196.856445312 259.875 192.323242188 263.275390625 c 0
 187.223632812 267.807617188 184.672851562 275.458007812 184.672851562 286.224609375 c 2
 184.674804688 289.625 l 2x60
EndSplineSet
Validated: 524289
EndChar

StartChar: period
Encoding: 46 46 15
Width: 570
VWidth: 859
GlyphClass: 2
Flags: HMW
HStem: 6.05 113.945
VStem: 246.726 121.551
LayerCount: 2
Fore
SplineSet
308.775390625 6.0498046875 m 2
 301.125 6.0498046875 l 2
 300.348632812 6.0205078125 299.580078125 6.0048828125 298.819335938 6.0048828125 c 0
 285.116210938 6.0048828125 273.702148438 10.8369140625 264.576171875 20.5 c 0
 252.67578125 32.966796875 246.725585938 47.4169921875 246.725585938 63.849609375 c 0
 246.725585938 78.5830078125 252.958984375 91.3330078125 265.42578125 102.099609375 c 0
 279.592773438 114 295.459960938 119.950195312 313.02734375 119.950195312 c 0
 313.862304688 119.979492188 314.689453125 119.995117188 315.509765625 119.995117188 c 0
 330.258789062 119.995117188 342.463867188 115.163085938 352.126953125 105.5 c 0
 362.893554688 94.7333984375 368.27734375 81.416015625 368.27734375 65.548828125 c 0
 368.27734375 49.6826171875 362.893554688 36.365234375 352.126953125 25.5986328125 c 0
 341.926757812 14.8310546875 327.475585938 8.3173828125 308.775390625 6.0498046875 c 2
EndSplineSet
Validated: 524289
EndChar

StartChar: slash
Encoding: 47 47 16
Width: 570
VWidth: 901
GlyphClass: 2
Flags: W
LayerCount: 2
Fore
SplineSet
103 44.25 m 0
 103 56.150390625 106.1171875 66.9169921875 112.349609375 76.5498046875 c 0
 195.083007812 212.549804688 265.916015625 333.533203125 324.849609375 439.5 c 0
 362.249023438 504.666992188 401.631835938 578.6171875 442.999023438 661.349609375 c 0
 446.965820312 668.716796875 452.06640625 674.383789062 458.298828125 678.350585938 c 0
 464.532226562 682.317382812 470.482421875 684.30078125 476.149414062 684.30078125 c 0
 482.381835938 684.30078125 488.899414062 682.883789062 495.69921875 680.05078125 c 0
 503.06640625 675.517578125 507.8828125 669.284179688 510.150390625 661.3515625 c 0
 510.716796875 659.651367188 511 657.384765625 511 654.551757812 c 0
 511 650.584960938 509.016601562 642.651367188 505.049804688 630.751953125 c 0
 490.317382812 601.284179688 448.950195312 530.16796875 380.950195312 417.400390625 c 0
 312.950195312 304.633789062 271.583007812 234.3671875 256.849609375 206.599609375 c 0
 250.049804688 193.56640625 235.317382812 163.81640625 212.650390625 117.349609375 c 0
 192.25 75.9833984375 179.5 50.765625 174.400390625 41.69921875 c 0
 166.466796875 27.5322265625 156.266601562 17.615234375 143.799804688 11.9482421875 c 0
 138.1328125 9.115234375 133.033203125 7.6982421875 128.5 7.6982421875 c 0
 123.400390625 7.6982421875 118.8671875 9.115234375 114.900390625 11.9482421875 c 0
 108.666992188 15.3486328125 104.984375 23.5654296875 103.850585938 36.5986328125 c 0
 103.284179688 39.431640625 103 41.9833984375 103 44.25 c 0
EndSplineSet
Validated: 524289
EndChar

StartChar: zero
Encoding: 48 48 17
Width: 570
VWidth: 901
GlyphClass: 2
Flags: HMW
HStem: 39.2268 55.2508 601.078 52.6992
VStem: 124.303 67.15 426.904 63.7483
LayerCount: 2
Fore
SplineSet
125.150390625 384.325195312 m 0
 125.716796875 407.55859375 127.133789062 427.532226562 129.401367188 444.249023438 c 0
 131.66796875 460.965820312 134.78515625 478.958007812 138.751953125 498.225585938 c 0
 142.71875 517.4921875 147.251953125 534.4921875 152.3515625 549.225585938 c 0
 165.384765625 583.791992188 187.485351562 609.859375 218.65234375 627.42578125 c 0
 246.985351562 644.993164062 281.551757812 653.776367188 322.3515625 653.776367188 c 0
 342.184570312 653.776367188 360.884765625 650.092773438 378.452148438 642.725585938 c 0
 397.15234375 635.359375 414.15234375 624.451171875 429.452148438 610.000976562 c 0
 444.751953125 595.55078125 457.501953125 576.42578125 467.702148438 552.625976562 c 0
 477.90234375 528.826171875 484.418945312 501.625976562 487.251953125 471.026367188 c 0
 489.518554688 437.026367188 490.65234375 399.909179688 490.65234375 359.67578125 c 0
 490.65234375 329.076171875 489.66015625 296.91796875 487.676757812 263.201171875 c 0
 485.694335938 229.484375 482.15234375 203.276367188 477.051757812 184.576171875 c 0
 467.418945312 148.875976562 455.518554688 120.258789062 441.3515625 98.7255859375 c 0
 434.551757812 88.5263671875 426.90234375 80.0263671875 418.40234375 73.2255859375 c 0
 409.90234375 66.42578125 401.119140625 60.7587890625 392.051757812 56.2255859375 c 0
 384.119140625 51.693359375 374.486328125 48.1513671875 363.15234375 45.6005859375 c 0
 351.819335938 43.05078125 340.76953125 41.3505859375 330.002929688 40.5009765625 c 0
 319.236328125 39.6513671875 306.203125 39.2255859375 290.90234375 39.2255859375 c 0
 267.669921875 39.79296875 246.419921875 44.609375 227.15234375 53.6767578125 c 0
 205.620117188 62.744140625 187.203125 75.3515625 171.90234375 91.501953125 c 0
 156.602539062 107.651367188 144.844726562 127.626953125 136.627929688 151.426757812 c 0
 128.411132812 175.2265625 124.302734375 201.009765625 124.302734375 228.776367188 c 2
 124.302734375 233.876953125 l 1
 124.302734375 314.626953125 l 2
 124.11328125 320.682617188 124.018554688 327.306640625 124.018554688 334.499023438 c 0
 124.018554688 348.844726562 124.395507812 365.453125 125.150390625 384.325195312 c 0
239.051757812 573.026367188 m 0
 220.918945312 554.326171875 207.03515625 524.573242188 197.40234375 483.7734375 c 0
 194.001953125 469.040039062 191.452148438 452.040039062 189.751953125 432.7734375 c 0
 188.3359375 416.057617188 187.627929688 393.81640625 187.627929688 366.049804688 c 0
 187.627929688 338.284179688 188.3359375 304.993164062 189.752929688 266.176757812 c 0
 190.319335938 250.876953125 190.745117188 241.1015625 191.02734375 236.8515625 c 0
 191.310546875 232.6015625 191.453125 229.626953125 191.453125 227.926757812 c 2
 191.453125 202.426757812 l 1
 206.752929688 222.827148438 l 1
 277.01953125 326.526367188 340.203125 433.34375 396.302734375 543.276367188 c 2
 398.852539062 548.376953125 l 1
 395.453125 552.626953125 l 2
 385.252929688 567.926757812 372.927734375 579.827148438 358.477539062 588.327148438 c 0
 344.02734375 596.827148438 328.01953125 601.077148438 310.453125 601.077148438 c 0
 279.852539062 601.077148438 256.051757812 591.725585938 239.051757812 573.026367188 c 0
329.577148438 98.724609375 m 0
 341.194335938 101.557617188 352.385742188 106.374023438 363.15234375 113.173828125 c 0
 384.685546875 127.340820312 401.40234375 153.69140625 413.302734375 192.224609375 c 0
 415.569335938 199.590820312 417.977539062 218.715820312 420.52734375 249.599609375 c 0
 423.078125 280.482421875 424.919921875 315.7578125 426.052734375 355.424804688 c 0
 426.620117188 366.19140625 426.90234375 376.674804688 426.90234375 386.874023438 c 0
 426.90234375 415.774414062 425.76953125 443.541015625 423.502929688 470.174804688 c 2
 420.953125 499.924804688 l 1
 407.352539062 472.724609375 l 1
 351.252929688 349.19140625 285.51953125 245.491210938 210.15234375 161.624023438 c 1
 206.752929688 157.374023438 l 1
 208.453125 152.274414062 l 2
 218.0859375 131.307617188 230.8359375 116.0078125 246.703125 106.374023438 c 0
 259.169921875 98.44140625 273.90234375 94.474609375 290.90234375 94.474609375 c 0
 305.069335938 94.474609375 317.959960938 95.8916015625 329.577148438 98.724609375 c 0
EndSplineSet
Validated: 524289
EndChar

StartChar: one
Encoding: 49 49 18
Width: 570
VWidth: 904
GlyphClass: 2
Flags: HMW
HStem: 54.9998 55.2467<461.774 463.474 461.491 468.858> 496.999 17.85G
VStem: 279.873 59.5 289.223 51.85
LayerCount: 2
Fore
SplineSet
489.825195312 104.299804688 m 0xe0
 494.924804688 99.2001953125 497.474609375 92.3994140625 497.474609375 83.8994140625 c 0
 497.474609375 75.3994140625 495.06640625 68.4580078125 490.25 63.0751953125 c 0
 485.432617188 57.69140625 475.94140625 55 461.774414062 55 c 0
 271.94140625 56.7001953125 166.541015625 57.5498046875 145.57421875 57.5498046875 c 0
 135.374023438 57.5498046875 128.149414062 60.2421875 123.899414062 65.625 c 0
 119.649414062 71.0078125 117.524414062 77.9501953125 117.524414062 86.4501953125 c 2
 117.524414062 89 l 2
 117.524414062 96.9326171875 119.649414062 103.732421875 123.899414062 109.399414062 c 0
 128.149414062 115.06640625 135.657226562 117.899414062 146.423828125 117.899414062 c 0
 171.357421875 117.899414062 215.83984375 117.333007812 279.873046875 116.200195312 c 1
 279.873046875 124.700195312 l 2xe0
 279.873046875 146.799804688 279.58984375 162.666992188 279.0234375 172.299804688 c 0
 278.456054688 181.932617188 278.172851562 190.715820312 278.172851562 198.649414062 c 0
 278.172851562 207.715820312 278.456054688 234.6328125 279.0234375 279.399414062 c 0
 279.0234375 290.732421875 280.297851562 333.515625 282.848632812 407.749023438 c 0
 285.3984375 481.982421875 287.5234375 536.94921875 289.223632812 572.649414062 c 1
 275.623046875 560.749023438 l 2
 238.223632812 526.749023438 210.172851562 506.065429688 191.473632812 498.69921875 c 0
 188.640625 497.565429688 186.08984375 496.999023438 183.823242188 496.999023438 c 0
 178.723632812 496.999023438 172.7734375 499.83203125 165.973632812 505.499023438 c 0
 156.90625 513.431640625 152.373046875 521.08203125 152.373046875 528.44921875 c 2
 152.373046875 529.298828125 l 1
 152.373046875 530.149414062 l 2
 152.373046875 537.515625 154.073242188 544.315429688 157.473632812 550.548828125 c 0
 160.873046875 556.782226562 167.106445312 563.298828125 176.172851562 570.098632812 c 0
 193.172851562 583.131835938 210.456054688 597.014648438 228.0234375 611.748046875 c 2
 263.723632812 644.047851562 l 2
 270.5234375 650.28125 277.46484375 655.6640625 284.547851562 660.197265625 c 0
 291.630859375 664.73046875 297.439453125 666.997070312 301.97265625 666.997070312 c 0
 311.60546875 666.997070312 321.522460938 662.463867188 331.72265625 653.397460938 c 0
 337.389648438 648.296875 341.356445312 643.764648438 343.623046875 639.796875 c 0
 345.323242188 637.530273438 346.172851562 635.546875 346.172851562 633.84765625 c 0
 345.606445312 620.247070312 343.90625 573.780273438 341.073242188 494.447265625 c 0xd0
 338.240234375 415.114257812 336.823242188 368.647460938 336.823242188 355.046875 c 0
 336.823242188 255.879882812 337.672851562 175.413085938 339.373046875 113.646484375 c 1
 376.206054688 112.513671875 405.106445312 111.663085938 426.073242188 111.096679688 c 0
 447.040039062 110.529296875 459.506835938 110.24609375 463.473632812 110.24609375 c 0
 464.923828125 110.309570312 466.322265625 110.340820312 467.666992188 110.340820312 c 0
 478.41015625 110.340820312 485.796875 108.328125 489.825195312 104.299804688 c 0xe0
EndSplineSet
Validated: 524289
EndChar

StartChar: two
Encoding: 50 50 19
Width: 570
VWidth: 902
GlyphClass: 2
Flags: HMW
HStem: 45.85 54.4025 50.9541 58.6483 602.602 55.2483
VStem: 125.175 68.8525 409.076 68.0017
LayerCount: 2
Fore
SplineSet
295.174804688 45.849609375 m 0xb8
 270.2421875 44.716796875 245.025390625 44.150390625 219.525390625 44.150390625 c 0
 191.192382812 44.716796875 169.091796875 45.849609375 153.225585938 47.5498046875 c 0
 148.125 48.1171875 143.875 49.958984375 140.475585938 53.076171875 c 0
 137.075195312 56.1923828125 134.525390625 60.30078125 132.825195312 65.400390625 c 0
 127.725585938 78.43359375 125.174804688 97.275390625 125.174804688 121.92578125 c 0
 125.174804688 146.576171875 130.275390625 171.79296875 140.475585938 197.576171875 c 0
 150.674804688 223.359375 165.833007812 248.150390625 185.950195312 271.951171875 c 0
 206.067382812 295.750976562 228.309570312 315.017578125 252.67578125 329.750976562 c 0
 308.208984375 364.317382812 343.909179688 388.400390625 359.776367188 402.000976562 c 0
 382.443359375 421.267578125 397.17578125 442.234375 403.975585938 464.901367188 c 0
 407.375976562 477.368164062 409.076171875 492.668945312 409.076171875 510.801757812 c 0
 409.076171875 543.1015625 399.725585938 566.618164062 381.026367188 581.3515625 c 0
 364.026367188 595.518554688 340.225585938 602.6015625 309.625976562 602.6015625 c 0
 288.092773438 602.6015625 267.693359375 595.518554688 248.42578125 581.3515625 c 0
 229.159179688 567.184570312 213.576171875 551.317382812 201.67578125 533.750976562 c 0
 196.576171875 526.951171875 192.326171875 521.993164062 188.92578125 518.875976562 c 0
 185.526367188 515.758789062 182.125976562 513.916992188 178.725585938 513.349609375 c 2
 174.05078125 513.349609375 l 2
 172.068359375 513.349609375 169.66015625 513.6328125 166.827148438 514.200195312 c 0
 163.994140625 514.766601562 159.4609375 516.466796875 153.227539062 519.299804688 c 0
 145.860351562 523.266601562 141.328125 528.650390625 139.627929688 535.450195312 c 2
 139.627929688 541.400390625 l 2
 139.571289062 542.080078125 139.54296875 542.779296875 139.54296875 543.499023438 c 0
 139.54296875 549.9765625 141.837890625 558.059570312 146.427734375 567.75 c 0
 151.52734375 577.3828125 159.4609375 587.44140625 170.227539062 597.923828125 c 0
 180.995117188 608.407226562 193.461914062 618.182617188 207.62890625 627.249023438 c 0
 221.795898438 636.31640625 237.37890625 643.682617188 254.37890625 649.349609375 c 0
 271.37890625 655.016601562 288.661132812 657.849609375 306.228515625 657.849609375 c 0
 360.061523438 657.849609375 401.995117188 644.533203125 432.02734375 617.900390625 c 0
 462.060546875 591.266601562 477.078125 550.75 477.078125 496.349609375 c 0
 477.078125 451.583007812 465.745117188 415.599609375 443.078125 388.400390625 c 0
 425.510742188 368.567382812 395.760742188 346.18359375 353.828125 321.250976562 c 0
 340.794921875 312.750976562 323.227539062 301.984375 301.127929688 288.951171875 c 0
 277.89453125 275.91796875 258.627929688 259.484375 243.328125 239.651367188 c 0
 227.4609375 219.818359375 215.703125 199.560546875 208.052734375 178.877929688 c 0
 200.40234375 158.194335938 195.727539062 135.952148438 194.02734375 112.15234375 c 2
 194.02734375 103.65234375 l 1
 232.560546875 101.385742188 267.127929688 100.252929688 297.727539062 100.252929688 c 0xb8
 319.828125 100.252929688 337.9609375 100.819335938 352.127929688 101.952148438 c 0
 366.294921875 103.0859375 384.995117188 104.502929688 408.227539062 106.202148438 c 0
 432.594726562 107.90234375 448.177734375 109.03515625 454.977539062 109.602539062 c 2
 463.477539062 109.602539062 l 2
 466.123046875 109.791992188 468.422851562 109.88671875 470.375 109.88671875 c 0
 474.27734375 109.88671875 476.794921875 109.508789062 477.927734375 108.752929688 c 0
 479.627929688 108.186523438 481.610351562 107.053710938 483.877929688 105.353515625 c 0
 485.578125 104.220703125 486.7109375 103.086914062 487.27734375 101.954101562 c 0
 488.977539062 98.5537109375 489.828125 93.7373046875 489.828125 87.50390625 c 0
 489.828125 75.037109375 486.7109375 64.8369140625 480.477539062 56.904296875 c 0
 477.64453125 52.9375 473.961914062 50.9541015625 469.428710938 50.9541015625 c 0x78
 428.62890625 50.9541015625 370.541992188 49.25 295.174804688 45.849609375 c 0xb8
EndSplineSet
Validated: 524289
EndChar

StartChar: three
Encoding: 51 51 20
Width: 570
VWidth: 902
GlyphClass: 2
Flags: HMW
HStem: 39.5272 55.2483 331.077 68.8517 602.229 55.2508
VStem: 397.172 68.85 416.721 68.0017
LayerCount: 2
Fore
SplineSet
465.174804688 504.475585938 m 0xf0
 465.741210938 503.342773438 466.022460938 502.208984375 466.022460938 501.076171875 c 0xf0
 466.022460938 486.909179688 463.899414062 473.734375 459.649414062 461.551757812 c 0
 455.399414062 449.368164062 449.875 439.16796875 443.07421875 430.951171875 c 0
 436.274414062 422.734375 427.916992188 415.2265625 418 408.426757812 c 0
 408.083007812 401.625976562 397.741210938 396.243164062 386.973632812 392.276367188 c 0
 377.340820312 388.309570312 367.140625 385.192382812 356.374023438 382.92578125 c 2
 320.673828125 375.275390625 l 1
 356.374023438 366.775390625 l 2
 376.7734375 362.2421875 394.765625 356.434570312 410.348632812 349.3515625 c 0
 425.931640625 342.268554688 439.389648438 333.201171875 450.72265625 322.151367188 c 0
 462.055664062 311.1015625 470.555664062 297.359375 476.22265625 280.926757812 c 0
 481.889648438 264.493164062 484.72265625 244.66015625 484.72265625 221.426757812 c 0
 484.72265625 165.89453125 467.440429688 121.694335938 432.873046875 88.8271484375 c 0
 398.873046875 55.9599609375 353.823242188 39.52734375 297.72265625 39.52734375 c 0
 280.72265625 39.52734375 263.72265625 42.3603515625 246.72265625 48.02734375 c 0
 228.58984375 54.259765625 212.297851562 61.7685546875 197.84765625 70.5517578125 c 0
 183.3984375 79.333984375 170.930664062 88.9677734375 160.448242188 99.4501953125 c 0
 149.96484375 109.93359375 142.172851562 120.275390625 137.073242188 130.475585938 c 0
 132.540039062 138.975585938 130.2734375 146.908203125 130.2734375 154.275390625 c 0
 130.2734375 156.541992188 130.555664062 158.809570312 131.123046875 161.076171875 c 0
 132.823242188 169.009765625 137.073242188 174.676757812 143.873046875 178.076171875 c 0
 150.106445312 181.4765625 156.055664062 183.176757812 161.72265625 183.176757812 c 0
 163.990234375 183.176757812 166.256835938 182.893554688 168.5234375 182.326171875 c 0
 176.45703125 180.059570312 184.389648438 173.826171875 192.323242188 163.625976562 c 0
 205.356445312 146.059570312 221.7890625 130.192382812 241.622070312 116.025390625 c 0
 259.754882812 101.858398438 279.587890625 94.775390625 301.12109375 94.775390625 c 0
 333.421875 94.775390625 360.0546875 105.258789062 381.021484375 126.225585938 c 0
 404.821289062 147.192382812 416.721679688 174.109375 416.721679688 206.9765625 c 0xe8
 416.721679688 226.243164062 413.604492188 243.384765625 407.37109375 258.40234375 c 0
 401.138671875 273.418945312 391.504882812 286.59375 378.47265625 297.926757812 c 0
 354.671875 320.02734375 314.72265625 331.077148438 258.622070312 331.077148438 c 0
 250.122070312 331.077148438 242.754882812 334.759765625 236.522460938 342.126953125 c 0
 230.2890625 349.494140625 227.171875 358.135742188 227.171875 368.052734375 c 0
 227.171875 377.969726562 229.439453125 385.76171875 233.97265625 391.428710938 c 0
 237.939453125 397.095703125 244.171875 399.928710938 252.671875 399.928710938 c 0
 296.872070312 399.928710938 331.72265625 409.845703125 357.22265625 429.678710938 c 0
 383.85546875 449.51171875 397.171875 478.12890625 397.171875 515.529296875 c 2
 397.171875 518.928710938 l 1
 397.171875 522.329101562 l 2
 397.188476562 523.08984375 397.197265625 523.846679688 397.197265625 524.596679688 c 0
 397.197265625 550.106445312 387.838867188 569.467773438 369.122070312 582.678710938 c 0
 350.989257812 595.711914062 325.489257812 602.228515625 292.622070312 602.228515625 c 0
 281.85546875 602.228515625 270.522460938 600.24609375 258.622070312 596.279296875 c 0
 254.655273438 594.579101562 250.405273438 591.74609375 245.872070312 587.779296875 c 0
 241.338867188 583.811523438 237.65625 580.6953125 234.823242188 578.427734375 c 0
 231.990234375 576.161132812 228.448242188 572.3359375 224.198242188 566.953125 c 0
 219.948242188 561.5703125 216.97265625 557.88671875 215.2734375 555.904296875 c 0
 213.573242188 553.920898438 210.740234375 549.8125 206.7734375 543.580078125 c 0
 198.83984375 532.8125 191.190429688 526.580078125 183.823242188 524.879882812 c 0
 181.555664062 524.3125 179.2890625 524.029296875 177.022460938 524.029296875 c 0
 171.35546875 524.029296875 165.122070312 525.729492188 158.322265625 529.129882812 c 0
 151.522460938 532.529296875 147.272460938 538.196289062 145.572265625 546.129882812 c 0
 145.004882812 547.830078125 144.72265625 549.8125 144.72265625 552.080078125 c 0
 144.72265625 559.446289062 146.989257812 567.663085938 151.522460938 576.73046875 c 0
 162.2890625 598.263671875 178.72265625 616.680664062 200.822265625 631.98046875 c 0
 212.155273438 639.913085938 225.754882812 646.146484375 241.622070312 650.6796875 c 0
 256.35546875 655.212890625 272.22265625 657.479492188 289.22265625 657.479492188 c 0
 407.088867188 657.479492188 466.022460938 607.612304688 466.022460938 507.879882812 c 0
 465.455078125 506.747070312 465.174804688 505.608398438 465.174804688 504.475585938 c 0xf0
EndSplineSet
Validated: 524289
EndChar

StartChar: four
Encoding: 52 52 21
Width: 570
VWidth: 902
GlyphClass: 2
Flags: HMW
HStem: 40.7519 17.85G 251.55 51.8517 644.251 17G
VStem: 366.577 55.6741 372.525 56.9509 372.525 63.7508
LayerCount: 2
Fore
SplineSet
385.275390625 51.7998046875 m 0xf0
 377.341796875 58.6005859375 373.091796875 65.1171875 372.525390625 71.3505859375 c 2
 372.525390625 103.650390625 l 1xe4
 372.525390625 250.700195312 l 1xe8
 354.391601562 251.267578125 339.375 251.549804688 327.474609375 251.549804688 c 0
 252.674804688 250.983398438 197.708007812 247.016601562 162.575195312 239.649414062 c 0
 159.174804688 239.08203125 155.775390625 238.799804688 152.375 238.799804688 c 0
 148.974609375 238.799804688 145.575195312 239.366210938 142.174804688 240.499023438 c 0
 137.075195312 242.766601562 132.825195312 245.8828125 129.424804688 249.850585938 c 0
 121.4921875 260.049804688 117.525390625 272.233398438 117.525390625 286.400390625 c 0
 117.525390625 293.200195312 118.658203125 300 120.924804688 306.799804688 c 0
 126.591796875 322.666992188 141.609375 348.309570312 165.975585938 383.725585938 c 0
 190.342773438 419.142578125 220.942382812 463.201171875 257.776367188 515.901367188 c 0
 294.04296875 568.600585938 319.826171875 607.133789062 335.125976562 631.500976562 c 0
 341.359375 641.133789062 348.159179688 648.359375 355.526367188 653.17578125 c 0
 362.892578125 657.993164062 369.692382812 660.401367188 375.92578125 660.401367188 c 0
 377.625976562 660.967773438 379.326171875 661.250976562 381.026367188 661.250976562 c 0
 387.826171875 661.250976562 394.625976562 659.267578125 401.42578125 655.30078125 c 0
 408.225585938 651.333984375 412.475585938 644.534179688 414.17578125 634.901367188 c 0
 417.576171875 615.633789062 420.267578125 585.458984375 422.250976562 544.375976562 c 0xf0
 424.234375 503.29296875 425.508789062 468.584960938 426.076171875 440.251953125 c 2
 428.625976562 302.551757812 l 1
 443.359375 301.418945312 456.534179688 300.8515625 468.151367188 300.8515625 c 0
 479.767578125 300.8515625 487.41796875 298.7265625 491.100585938 294.4765625 c 0
 494.784179688 290.2265625 496.909179688 284.418945312 497.475585938 277.051757812 c 0
 497.475585938 267.985351562 495.776367188 261.184570312 492.375976562 256.65234375 c 0
 487.842773438 250.985351562 480.05078125 248.15234375 469.000976562 248.15234375 c 0
 457.951171875 248.15234375 444.776367188 248.71875 429.475585938 249.8515625 c 1xe8
 430.04296875 160.318359375 431.743164062 109.6015625 434.576171875 97.7021484375 c 0
 435.708984375 91.46875 436.276367188 85.8017578125 436.276367188 80.7021484375 c 0xe4
 436.842773438 71.634765625 435.142578125 63.41796875 431.17578125 56.05078125 c 0
 428.909179688 51.517578125 425.93359375 47.8349609375 422.250976562 45.001953125 c 0
 418.567382812 42.1689453125 414.17578125 40.751953125 409.076171875 40.751953125 c 0
 401.142578125 41.318359375 393.208007812 45 385.275390625 51.7998046875 c 0xf0
366.577148438 565.202148438 m 2xf0
 365.7265625 587.301757812 l 1
 352.9765625 569.452148438 l 2
 275.91015625 458.952148438 222.926757812 373.1015625 194.026367188 311.90234375 c 2
 188.077148438 299.15234375 l 1
 201.676757812 300.001953125 l 2
 231.709960938 302.268554688 267.9765625 303.40234375 310.4765625 303.40234375 c 0
 327.4765625 303.40234375 348.16015625 303.119140625 372.526367188 302.551757812 c 1
 372.526367188 311.051757812 l 2
 372.526367188 417.584960938 370.543945312 502.301757812 366.577148438 565.202148438 c 2xf0
EndSplineSet
Validated: 524289
EndChar

StartChar: five
Encoding: 53 53 22
Width: 570
VWidth: 902
GlyphClass: 2
Flags: HMW
HStem: 45.3258 55.2491 417.625 59.4975 586.772 58.6517 596.122 51.0025
VStem: 130.275 62.8991 137.075 57.7991 425.224 68
LayerCount: 2
Fore
SplineSet
477.924804688 193.224609375 m 0xd6
 467.724609375 160.358398438 453.416992188 133.158203125 435 111.625 c 0
 416.583007812 90.091796875 395.474609375 73.6591796875 371.674804688 62.326171875 c 0
 348.44140625 50.9931640625 322.94140625 45.326171875 295.174804688 45.326171875 c 0
 273.641601562 45.326171875 253.524414062 47.8759765625 234.825195312 52.9755859375 c 0
 214.9921875 58.076171875 198.274414062 64.734375 184.674804688 72.951171875 c 0
 171.075195312 81.16796875 159.7421875 90.0927734375 150.674804688 99.7255859375 c 0
 141.607421875 109.359375 134.241210938 119.275390625 128.57421875 129.475585938 c 0
 124.041015625 140.243164062 121.774414062 149.025390625 121.774414062 155.826171875 c 0
 121.774414062 165.458984375 126.590820312 172.541992188 136.223632812 177.075195312 c 0
 145.857421875 181.608398438 152.657226562 183.875 156.624023438 183.875 c 0
 158.32421875 183.307617188 159.741210938 183.025390625 160.874023438 183.025390625 c 0
 164.274414062 183.025390625 167.673828125 181.325195312 171.07421875 177.924804688 c 0
 174.473632812 174.525390625 178.723632812 169.424804688 183.82421875 162.625 c 0
 211.590820312 121.2578125 246.44140625 100.575195312 288.374023438 100.575195312 c 0
 329.173828125 100.575195312 361.756835938 118.424804688 386.124023438 154.125 c 0
 412.19140625 189.2578125 425.223632812 236.0078125 425.223632812 294.375 c 0
 425.223632812 331.208007812 416.723632812 360.674804688 399.723632812 382.775390625 c 0
 383.291015625 406.0078125 359.208007812 417.625 327.474609375 417.625 c 0
 313.875 417.625 299.708007812 415.924804688 284.974609375 412.525390625 c 0
 277.041992188 410.2578125 266.55859375 405.44140625 253.525390625 398.07421875 c 0
 250.125976562 396.374023438 245.733398438 393.116210938 240.350585938 388.298828125 c 0
 234.967773438 383.482421875 231.42578125 380.224609375 229.725585938 378.524414062 c 0
 221.225585938 370.590820312 214.142578125 363.791015625 208.475585938 358.124023438 c 0
 199.409179688 350.19140625 188.358398438 345.658203125 175.325195312 344.525390625 c 2
 171.92578125 344.525390625 l 2
 166.258789062 344.525390625 160.875976562 345.658203125 155.775390625 347.924804688 c 0
 148.409179688 350.7578125 142.7421875 357.840820312 138.774414062 369.173828125 c 0
 134.2421875 382.20703125 131.69140625 398.357421875 131.125 417.624023438 c 0
 130.557617188 426.69140625 130.274414062 435.474609375 130.274414062 443.974609375 c 0xda
 130.274414062 464.94140625 131.69140625 494.69140625 134.524414062 533.224609375 c 0
 136.224609375 554.19140625 137.075195312 568.923828125 137.075195312 577.423828125 c 2
 137.075195312 579.974609375 l 1
 135.375 581.673828125 l 2
 130.274414062 590.173828125 127.724609375 600.374023438 127.724609375 612.274414062 c 0
 127.724609375 625.307617188 131.408203125 635.506835938 138.774414062 642.874023438 c 0
 143.307617188 647.407226562 148.408203125 649.673828125 154.075195312 649.673828125 c 0
 175.041992188 649.107421875 222.075195312 648.256835938 295.174804688 647.124023438 c 0xd6
 367.141601562 645.991210938 423.524414062 645.423828125 464.325195312 645.423828125 c 0
 468.291992188 645.423828125 471.974609375 643.44140625 475.375 639.474609375 c 0
 479.341796875 634.374023438 481.891601562 628.282226562 483.024414062 621.19921875 c 0
 484.158203125 614.116210938 484.44140625 607.741210938 483.874023438 602.07421875 c 0
 483.306640625 596.407226562 481.749023438 592.865234375 479.19921875 591.448242188 c 0
 476.649414062 590.03125 474.666015625 589.0390625 473.249023438 588.47265625 c 0
 471.83203125 587.905273438 469.423828125 587.48046875 466.024414062 587.197265625 c 0
 462.624023438 586.9140625 460.215820312 586.772460938 458.798828125 586.772460938 c 0xe6
 457.381835938 586.772460938 454.264648438 586.9140625 449.448242188 587.197265625 c 0
 444.630859375 587.48046875 440.098632812 587.763671875 435.848632812 588.046875 c 0
 431.598632812 588.330078125 419.2734375 589.321289062 398.873046875 591.021484375 c 0
 380.172851562 592.721679688 363.456054688 593.997070312 348.723632812 594.846679688 c 0
 333.990234375 595.696289062 313.732421875 596.122070312 287.94921875 596.122070312 c 0
 262.166015625 596.122070312 231.991210938 594.98828125 197.423828125 592.721679688 c 1
 196.857421875 581.955078125 196.006835938 562.971679688 194.874023438 535.771484375 c 0xd6
 193.741210938 508.571289062 193.173828125 491.2890625 193.173828125 483.921875 c 0xda
 193.173828125 476.5546875 193.31640625 469.330078125 193.598632812 462.247070312 c 0
 193.881835938 455.1640625 194.306640625 435.755859375 194.874023438 404.022460938 c 1
 208.473632812 419.322265625 l 2
 223.20703125 435.755859375 242.33203125 449.497070312 265.848632812 460.547851562 c 0
 289.366210938 471.59765625 316.423828125 477.122070312 347.024414062 477.122070312 c 0
 369.124023438 477.122070312 389.241210938 472.58984375 407.374023438 463.522460938 c 0
 426.640625 454.456054688 442.366210938 442.272460938 454.548828125 426.97265625 c 0
 466.732421875 411.672851562 476.223632812 393.397460938 483.024414062 372.147460938 c 0
 489.82421875 350.897460938 493.223632812 328.08984375 493.223632812 303.72265625 c 0
 493.223632812 262.922851562 488.125 226.091796875 477.924804688 193.224609375 c 0xd6
EndSplineSet
Validated: 524289
EndChar

StartChar: six
Encoding: 54 54 23
Width: 570
VWidth: 903
GlyphClass: 2
Flags: HMW
HStem: 42.5001 55.2483 395.249 59.4991
VStem: 120.076 59.4991 428.625 66.3017
LayerCount: 2
Fore
SplineSet
479.625 175.950195312 m 0
 469.424804688 148.75 455.68359375 125.375 438.400390625 105.825195312 c 0
 421.1171875 86.275390625 400.859375 70.8330078125 377.625976562 59.5 c 0
 355.526367188 48.1669921875 332.29296875 42.5 307.92578125 42.5 c 0
 277.326171875 42.5 250.693359375 49.0166015625 228.026367188 62.0498046875 c 0
 203.092773438 75.0830078125 182.693359375 93.6416015625 166.826171875 117.724609375 c 0
 150.958984375 141.807617188 139.201171875 170.423828125 131.55078125 203.57421875 c 0
 123.901367188 236.724609375 120.076171875 273.416015625 120.076171875 313.649414062 c 0
 120.076171875 364.649414062 124.892578125 410.548828125 134.526367188 451.349609375 c 0
 143.592773438 489.31640625 155.91796875 521.333007812 171.500976562 547.400390625 c 0
 187.083984375 573.466796875 206.208984375 595.284179688 228.875976562 612.850585938 c 0
 249.842773438 630.984375 272.509765625 644.583984375 296.876953125 653.651367188 c 0
 321.244140625 662.717773438 348.443359375 668.66796875 378.4765625 671.500976562 c 2
 383.577148438 671.500976562 l 2
 392.077148438 671.500976562 399.7265625 669.80078125 406.52734375 666.401367188 c 0
 413.327148438 663.000976562 417.293945312 657.333984375 418.426757812 649.401367188 c 2
 418.426757812 648.55078125 l 2
 418.426757812 644.583984375 415.876953125 639.766601562 410.77734375 634.099609375 c 0
 404.543945312 626.733398438 397.744140625 621.916015625 390.376953125 619.649414062 c 0
 384.709960938 617.94921875 375.926757812 615.82421875 364.02734375 613.274414062 c 0
 352.126953125 610.724609375 341.926757812 608.032226562 333.426757812 605.19921875 c 0
 324.926757812 602.366210938 315.009765625 598.399414062 303.676757812 593.298828125 c 0
 281.009765625 582.532226562 258.059570312 562.69921875 234.827148438 533.798828125 c 0
 222.360351562 517.932617188 210.743164062 496.965820312 199.975585938 470.8984375 c 0
 189.208984375 444.831054688 182.409179688 421.598632812 179.576171875 401.198242188 c 2
 176.17578125 373.1484375 l 1
 194.026367188 394.3984375 l 2
 211.026367188 414.231445312 231.993164062 429.248046875 256.92578125 439.448242188 c 0
 281.29296875 449.6484375 308.776367188 454.748046875 339.375976562 454.748046875 c 0
 362.04296875 454.181640625 382.443359375 450.498046875 400.576171875 443.698242188 c 0
 419.842773438 436.8984375 436.559570312 425.990234375 450.7265625 410.973632812 c 0
 464.893554688 395.956054688 475.801757812 376.123046875 483.452148438 351.473632812 c 0
 491.1015625 326.823242188 494.926757812 297.215820312 494.926757812 262.6484375 c 0
 494.926757812 232.048828125 489.825195312 203.150390625 479.625 175.950195312 c 0
181.27734375 248.198242188 m 0
 183.543945312 220.431640625 192.043945312 193.798828125 206.77734375 168.298828125 c 0
 214.143554688 154.698242188 222.643554688 142.798828125 232.27734375 132.598632812 c 0
 241.34375 121.831054688 252.393554688 113.331054688 265.426757812 107.098632812 c 0
 278.459960938 100.865234375 292.342773438 97.748046875 307.076171875 97.748046875 c 2
 308.776367188 97.748046875 l 2
 329.743164062 97.748046875 349.29296875 105.681640625 367.42578125 121.548828125 c 0
 385.559570312 136.848632812 400.291992188 156.3984375 411.625 180.198242188 c 0
 422.958007812 203.998046875 428.625 228.081054688 428.625 252.448242188 c 0
 428.625 280.215820312 426.075195312 303.590820312 420.975585938 322.573242188 c 0
 415.875 341.556640625 407.942382812 356.431640625 397.174804688 367.198242188 c 0
 386.975585938 377.965820312 375.642578125 385.33203125 363.174804688 389.298828125 c 0
 350.708007812 393.266601562 335.975585938 395.249023438 318.975585938 395.249023438 c 0
 291.775390625 395.249023438 266.275390625 387.599609375 242.475585938 372.298828125 c 0
 218.108398438 356.999023438 197.708007812 337.44921875 181.275390625 313.649414062 c 1
 179.575195312 311.94921875 l 1
 179.575195312 309.399414062 l 2
 179.575195312 282.766601562 180.143554688 262.365234375 181.27734375 248.198242188 c 0
EndSplineSet
Validated: 524289
EndChar

StartChar: seven
Encoding: 55 55 24
Width: 570
VWidth: 901
GlyphClass: 2
Flags: HMW
HStem: 39.8501 17.85G<177.594 182.128> 589.63 60.5209
LayerCount: 2
Fore
SplineSet
474.950195312 641.224609375 m 0
 479.767578125 639.2421875 484.159179688 635.984375 488.125976562 631.451171875 c 0
 492.092773438 626.91796875 494.076171875 620.967773438 494.076171875 613.600585938 c 0
 494.076171875 606.234375 491.80859375 597.166992188 487.276367188 586.400390625 c 0
 479.342773438 569.400390625 465.03515625 543.900390625 444.3515625 509.900390625 c 0
 423.668945312 475.900390625 402.560546875 440.766601562 381.02734375 404.5 c 0
 360.627929688 368.799804688 335.694335938 321.05859375 306.227539062 261.275390625 c 0
 276.760742188 201.4921875 248.994140625 140.150390625 222.926757812 77.25 c 0
 216.693359375 63.650390625 208.760742188 53.7333984375 199.127929688 47.5 c 0
 192.328125 42.400390625 185.52734375 39.849609375 178.727539062 39.849609375 c 0
 176.4609375 39.849609375 174.477539062 40.1328125 172.77734375 40.7001953125 c 0
 163.7109375 42.966796875 157.193359375 48.4921875 153.2265625 57.275390625 c 0
 151.491210938 61.1171875 150.624023438 65.095703125 150.624023438 69.2099609375 c 0
 150.624023438 74.4990234375 152.057617188 80.0126953125 154.926757812 85.75 c 0
 184.393554688 143.549804688 214.7109375 201.349609375 245.877929688 259.150390625 c 0
 275.911132812 316.950195312 300.703125 362.9921875 320.252929688 397.275390625 c 0
 339.802734375 431.55859375 358.078125 465.1328125 375.078125 498 c 0
 392.64453125 530.299804688 404.828125 556.650390625 411.627929688 577.049804688 c 2
 415.02734375 588.099609375 l 1
 383.408203125 589.120117188 352.095703125 589.629882812 321.087890625 589.629882812 c 0
 300.415039062 589.629882812 279.87890625 589.403320312 259.477539062 588.950195312 c 0
 205.078125 587.25 169.094726562 584.1328125 151.52734375 579.599609375 c 0
 149.828125 579.033203125 147.844726562 578.75 145.578125 578.75 c 0
 143.310546875 578.75 141.043945312 579.317382812 138.776367188 580.450195312 c 0
 134.809570312 581.583007812 131.693359375 583.849609375 129.42578125 587.25 c 0
 124.326171875 594.6171875 121.493164062 603.1171875 120.92578125 612.75 c 0
 120.92578125 620.68359375 122.767578125 627.05859375 126.451171875 631.875 c 0
 130.133789062 636.692382812 137.92578125 640.234375 149.826171875 642.500976562 c 0
 179.859375 647.600585938 227.458984375 650.151367188 292.625976562 650.151367188 c 0
 313.026367188 650.151367188 352.975585938 648.734375 412.475585938 645.901367188 c 0
 442.508789062 644.767578125 458.659179688 644.201171875 460.92578125 644.201171875 c 0
 465.458984375 644.201171875 470.1328125 643.208007812 474.950195312 641.224609375 c 0
EndSplineSet
Validated: 524289
EndChar

StartChar: eight
Encoding: 56 56 25
Width: 570
VWidth: 901
GlyphClass: 2
Flags: HMW
HStem: 36.4511 56.1009 609.352 44.2008
VStem: 114.977 56.9475 137.928 62.8975 403.127 59.5 437.125 62.9017
LayerCount: 2
Fore
SplineSet
493.225585938 172.875 m 0xc4
 488.692382812 155.591796875 480.900390625 138.734375 469.850585938 122.30078125 c 0
 458.80078125 105.868164062 445.483398438 91.41796875 429.900390625 78.951171875 c 0
 414.317382812 66.484375 394.909179688 56.2841796875 371.67578125 48.3515625 c 0
 349.576171875 40.41796875 325.208984375 36.451171875 298.576171875 36.451171875 c 0
 271.943359375 36.451171875 248.42578125 40.1337890625 228.026367188 47.5009765625 c 0
 206.493164062 54.8681640625 188.92578125 64.5009765625 175.326171875 76.4013671875 c 0
 161.7265625 88.30078125 150.109375 102.326171875 140.4765625 118.4765625 c 0
 130.842773438 134.625976562 124.184570312 150.91796875 120.501953125 167.3515625 c 0
 116.819335938 183.784179688 114.9765625 200.92578125 114.9765625 218.776367188 c 0xe4
 114.9765625 236.625976562 119.65234375 256.034179688 129.001953125 277.000976562 c 0
 138.3515625 297.967773438 151.809570312 317.518554688 169.376953125 335.651367188 c 0
 186.944335938 353.784179688 205.926757812 366.250976562 226.327148438 373.05078125 c 2
 245.02734375 379.8515625 l 1
 227.176757812 388.3515625 l 2
 198.84375 401.951171875 176.885742188 419.518554688 161.302734375 441.05078125 c 0
 145.719726562 462.583984375 137.927734375 484.401367188 137.927734375 506.500976562 c 0
 137.927734375 512.734375 138.352539062 519.534179688 139.203125 526.901367188 c 0
 140.052734375 534.268554688 142.177734375 542.91015625 145.578125 552.827148438 c 0
 148.977539062 562.744140625 153.0859375 572.236328125 157.90234375 581.302734375 c 0
 162.719726562 590.370117188 169.51953125 599.294921875 178.302734375 608.078125 c 0
 187.0859375 616.861328125 197.143554688 624.65234375 208.4765625 631.453125 c 0
 219.244140625 637.685546875 232.418945312 642.927734375 248.001953125 647.177734375 c 0
 263.584960938 651.427734375 281.009765625 653.552734375 300.27734375 653.552734375 c 0
 319.543945312 653.552734375 336.96875 651.569335938 352.551757812 647.602539062 c 0
 368.134765625 643.635742188 381.309570312 638.252929688 392.077148438 631.453125 c 0
 403.41015625 624.65234375 413.467773438 616.861328125 422.250976562 608.078125 c 0
 431.034179688 599.294921875 437.833984375 590.370117188 442.651367188 581.302734375 c 0
 447.467773438 572.236328125 451.434570312 562.602539062 454.551757812 552.40234375 c 0
 457.668945312 542.203125 459.793945312 533.27734375 460.926757812 525.627929688 c 0
 462.059570312 517.977539062 462.626953125 510.752929688 462.626953125 503.953125 c 0xd8
 462.626953125 497.15234375 461.77734375 490.77734375 460.077148438 484.828125 c 0
 458.376953125 478.877929688 456.393554688 473.495117188 454.126953125 468.677734375 c 0
 451.860351562 463.861328125 448.6015625 458.90234375 444.3515625 453.802734375 c 0
 440.1015625 448.703125 435.994140625 444.169921875 432.02734375 440.203125 c 0
 425.2265625 432.8359375 413.610351562 423.486328125 397.176757812 412.15234375 c 0
 390.376953125 407.052734375 379.327148438 398.8359375 364.02734375 387.502929688 c 1
 376.77734375 381.552734375 l 2
 396.043945312 373.052734375 413.327148438 363.27734375 428.626953125 352.227539062 c 0
 443.926757812 341.177734375 455.96875 330.26953125 464.751953125 319.502929688 c 0
 473.53515625 308.736328125 480.759765625 297.543945312 486.426757812 285.926757812 c 0
 492.09375 274.309570312 495.77734375 263.827148438 497.4765625 254.4765625 c 0
 499.176757812 245.126953125 500.02734375 235.3515625 500.02734375 225.15234375 c 0
 500.02734375 207.584960938 497.758789062 190.158203125 493.225585938 172.875 c 0xc4
228.876953125 452.952148438 m 0
 245.309570312 437.65234375 272.2265625 422.634765625 309.626953125 407.90234375 c 1
 312.176757812 406.202148438 l 1
 315.577148438 407.90234375 l 2
 337.676757812 417.53515625 357.509765625 431.134765625 375.077148438 448.702148438 c 0
 393.77734375 466.834960938 403.126953125 484.40234375 403.126953125 501.40234375 c 0
 403.126953125 518.40234375 398.59375 535.119140625 389.52734375 551.551757812 c 0
 380.459960938 567.985351562 367.993164062 581.7265625 352.125976562 592.77734375 c 0
 336.258789062 603.827148438 319.258789062 609.3515625 301.125976562 609.3515625 c 2
 299.42578125 609.3515625 l 2
 273.359375 608.78515625 250.692382812 598.301757812 231.42578125 577.90234375 c 0
 211.025390625 557.501953125 200.825195312 534.551757812 200.825195312 509.051757812 c 0xd8
 200.825195312 488.084960938 210.176757812 469.384765625 228.876953125 452.952148438 c 0
192.325195312 148.2265625 m 0
 205.92578125 129.809570312 222.358398438 115.78515625 241.625 106.15234375 c 0
 260.325195312 97.0849609375 280.442382812 92.5517578125 301.975585938 92.5517578125 c 0
 317.275390625 92.5517578125 332.575195312 95.1015625 347.875 100.202148438 c 0
 363.17578125 105.301757812 377.341796875 112.668945312 390.375 122.301757812 c 0
 403.975585938 132.501953125 415.166992188 145.393554688 423.950195312 160.9765625 c 0
 432.733398438 176.559570312 437.125 193.41796875 437.125 211.55078125 c 0
 437.125 221.750976562 436.416992188 231.243164062 435 240.026367188 c 0
 433.583007812 248.809570312 430.041015625 258.8671875 424.374023438 270.200195312 c 0
 418.70703125 281.533203125 411.057617188 292.016601562 401.424804688 301.649414062 c 0
 392.357421875 311.282226562 380.315429688 321.057617188 365.298828125 330.974609375 c 0
 350.28125 340.891601562 331.723632812 350.383789062 309.624023438 359.450195312 c 1
 307.073242188 358.600585938 l 2
 268.541015625 347.267578125 236.807617188 327.716796875 211.874023438 299.950195312 c 0
 185.241210938 272.18359375 171.924804688 242.150390625 171.924804688 209.850585938 c 0xe4
 171.924804688 187.18359375 178.725585938 166.643554688 192.325195312 148.2265625 c 0
EndSplineSet
Validated: 524289
EndChar

StartChar: nine
Encoding: 57 57 26
Width: 570
VWidth: 903
GlyphClass: 2
Flags: HMW
HStem: 42.6501 17.85G<207.626 211.876 211.876 218.676> 261.949 58.65 618.949 54.4017
VStem: 120.075 66.3<448.1 476.15> 436.274 58.6509
LayerCount: 2
Fore
SplineSet
478.775390625 256 m 0
 468.575195312 220.299804688 454.692382812 189.983398438 437.125 165.049804688 c 0
 419.557617188 140.1171875 398.875 118.8671875 375.075195312 101.299804688 c 0
 352.408203125 83.7333984375 328.182617188 70.275390625 302.400390625 60.9248046875 c 0
 276.6171875 51.5751953125 248.708984375 45.4833984375 218.67578125 42.650390625 c 2
 211.875976562 42.650390625 l 2
 203.375976562 42.650390625 195.583984375 44.4921875 188.500976562 48.1748046875 c 0
 181.41796875 51.8583984375 177.309570312 57.3828125 176.176757812 64.75 c 2
 176.176757812 65.599609375 l 2
 176.176757812 70.1328125 178.7265625 75.2333984375 183.826171875 80.900390625 c 0
 190.059570312 87.7001953125 197.142578125 92.2333984375 205.076171875 94.5 c 0
 211.30859375 96.7666015625 220.942382812 99.3173828125 233.974609375 102.150390625 c 0
 247.0078125 104.983398438 258.625 107.81640625 268.825195312 110.649414062 c 0
 279.025390625 113.482421875 290.641601562 117.590820312 303.674804688 122.973632812 c 0
 316.708007812 128.356445312 329.31640625 135.723632812 341.499023438 145.073242188 c 0
 353.682617188 154.423828125 365.157226562 165.615234375 375.923828125 178.6484375 c 0
 389.524414062 196.215820312 401.991210938 216.048828125 413.32421875 238.1484375 c 0
 424.657226562 260.248046875 432.307617188 280.6484375 436.274414062 299.348632812 c 2
 442.224609375 329.948242188 l 1
 421.82421875 306.1484375 l 2
 407.090820312 289.715820312 388.958007812 278.381835938 367.424804688 272.149414062 c 0
 346.458007812 265.349609375 319.541015625 261.94921875 286.673828125 261.94921875 c 0
 265.140625 261.94921875 244.458007812 267.616210938 224.625 278.94921875 c 0
 203.658203125 289.715820312 185.525390625 304.30859375 170.224609375 322.724609375 c 0
 154.924804688 341.141601562 142.7421875 362.391601562 133.674804688 386.474609375 c 0
 124.608398438 410.55859375 120.075195312 435.349609375 120.075195312 460.849609375 c 0
 120.075195312 491.450195312 125.174804688 520.067382812 135.375 546.700195312 c 0
 145.575195312 573.333007812 159.174804688 595.858398438 176.174804688 614.275390625 c 0
 193.174804688 632.692382812 213.291992188 647.284179688 236.525390625 658.05078125 c 0
 258.625 668.250976562 282.141601562 673.350585938 307.075195312 673.350585938 c 0
 367.708007812 673.350585938 414.174804688 648.41796875 446.474609375 598.55078125 c 0
 478.775390625 548.68359375 494.924804688 477.567382812 494.924804688 385.200195312 c 0
 494.924804688 337.033203125 489.541992188 293.966796875 478.775390625 256 c 0
218.674804688 359.69921875 m 0
 238.5078125 333.631835938 267.69140625 320.599609375 306.224609375 320.599609375 c 0
 330.024414062 320.599609375 353.256835938 326.548828125 375.923828125 338.44921875 c 0
 400.291015625 350.349609375 419.840820312 366.782226562 434.57421875 387.749023438 c 2
 436.274414062 390.298828125 l 1
 436.274414062 403.899414062 l 2
 436.274414062 419.766601562 435.423828125 441.016601562 433.724609375 467.649414062 c 2
 433.724609375 468.499023438 l 2
 430.890625 496.266601562 422.390625 522.899414062 408.224609375 548.399414062 c 0
 400.857421875 561.999023438 392.357421875 573.899414062 382.724609375 584.099609375 c 0
 373.657226562 594.298828125 362.607421875 602.657226562 349.57421875 609.173828125 c 0
 336.541015625 615.69140625 322.658203125 618.94921875 307.924804688 618.94921875 c 2
 306.224609375 618.94921875 l 2
 285.825195312 618.381835938 266.557617188 611.015625 248.424804688 596.848632812 c 0
 230.291992188 582.681640625 215.416992188 564.264648438 203.799804688 541.59765625 c 0
 192.182617188 518.930664062 186.375 495.4140625 186.375 471.046875 c 0
 186.375 422.879882812 197.141601562 385.766601562 218.674804688 359.69921875 c 0
EndSplineSet
Validated: 524289
EndChar

StartChar: colon
Encoding: 58 58 27
Width: 570
VWidth: 887
GlyphClass: 2
Flags: HMW
HStem: 79.2367 115.705 307.036 114.872
VStem: 261.135 93.5008
LayerCount: 2
Fore
SplineSet
310.4375 307.036132812 m 2
 307.887695312 307.036132812 l 2
 294.287109375 307.602539062 283.520507812 310.15234375 275.586914062 314.685546875 c 0
 267.086914062 319.786132812 262.270507812 327.71875 261.137695312 338.486328125 c 0
 260.5703125 348.119140625 260.287109375 358.036132812 260.287109375 368.236328125 c 0
 260.002929688 373.051757812 259.861328125 377.797851562 259.861328125 382.47265625 c 0
 259.861328125 387.147460938 260.002929688 391.751953125 260.287109375 396.286132812 c 0
 260.854492188 401.953125 262.5546875 406.486328125 265.387695312 409.885742188 c 0
 268.220703125 413.286132812 271.903320312 415.8359375 276.436523438 417.536132812 c 0
 285.178710938 420.450195312 294.337890625 421.908203125 303.913085938 421.908203125 c 0
 305.508789062 421.908203125 307.1171875 421.8671875 308.736328125 421.786132812 c 0
 313.26953125 421.786132812 317.802734375 421.21875 322.3359375 420.0859375 c 0
 334.235351562 417.819335938 342.452148438 413.286132812 346.985351562 406.486328125 c 0
 349.818359375 402.518554688 351.518554688 397.418945312 352.0859375 391.185546875 c 0
 352.65234375 387.786132812 352.935546875 384.385742188 352.935546875 380.986328125 c 0
 352.935546875 366.252929688 350.668945312 350.669921875 346.135742188 334.236328125 c 0
 343.869140625 325.169921875 339.051757812 318.370117188 331.684570312 313.836914062 c 0
 324.317382812 309.303710938 317.237304688 307.036132812 310.4375 307.036132812 c 2
307.884765625 79.236328125 m 0
 297.118164062 79.236328125 286.634765625 82.63671875 276.434570312 89.4365234375 c 0
 267.934570312 94.537109375 263.118164062 101.620117188 261.984375 110.686523438 c 0
 261.41796875 125.986328125 261.134765625 134.486328125 261.134765625 136.186523438 c 0
 261.134765625 137.88671875 261.41796875 142.704101562 261.984375 150.63671875 c 0
 262.551757812 158.569335938 263.119140625 164.802734375 263.685546875 169.3359375 c 0
 263.685546875 174.435546875 265.102539062 178.685546875 267.935546875 182.0859375 c 0
 270.202148438 185.486328125 273.602539062 188.036132812 278.135742188 189.736328125 c 0
 288.051757812 193.206054688 297.317382812 194.942382812 305.931640625 194.942382812 c 0
 307.163085938 194.942382812 308.379882812 194.90625 309.584960938 194.8359375 c 0
 315.251953125 194.8359375 320.918945312 193.986328125 326.5859375 192.286132812 c 0
 332.818359375 190.5859375 338.485351562 187.185546875 343.5859375 182.0859375 c 0
 348.685546875 176.986328125 351.802734375 171.036132812 352.935546875 164.236328125 c 0
 354.068359375 156.869140625 354.635742188 149.786132812 354.635742188 142.986328125 c 0
 354.635742188 131.0859375 352.935546875 118.90234375 349.53515625 106.435546875 c 0
 347.268554688 97.369140625 341.6015625 90.5693359375 332.53515625 86.0361328125 c 0
 324.03515625 81.5029296875 315.817382812 79.236328125 307.884765625 79.236328125 c 0
EndSplineSet
Validated: 524289
EndChar

StartChar: semicolon
Encoding: 59 59 28
Width: 570
VWidth: 864
GlyphClass: 2
Flags: HMW
HStem: 248.377 115.601
VStem: 285.261 93.2161
LayerCount: 2
Fore
SplineSet
361.4765625 81.77734375 m 0
 361.4765625 67.6103515625 343.059570312 -6.9072265625 306.2265625 -141.7734375 c 0
 303.393554688 -151.973632812 298.860351562 -159.056640625 292.626953125 -163.0234375 c 0
 286.393554688 -166.991210938 279.876953125 -168.973632812 273.077148438 -168.973632812 c 2
 271.376953125 -168.973632812 l 2
 261.744140625 -168.407226562 252.9609375 -165.290039062 245.028320312 -159.623046875 c 0
 239.361328125 -155.65625 236.528320312 -149.989257812 236.528320312 -142.622070312 c 0
 236.528320312 -132.989257812 242.477539062 -98.7060546875 254.377929688 -39.7734375 c 0
 265.14453125 12.3603515625 273.927734375 52.3095703125 280.727539062 80.0771484375 c 0
 282.427734375 87.4443359375 284.552734375 93.111328125 287.102539062 97.078125 c 0
 289.653320312 101.044921875 292.060546875 103.594726562 294.328125 104.727539062 c 0
 299.995117188 106.995117188 305.377929688 108.127929688 310.477539062 108.127929688 c 0
 312.177734375 108.127929688 314.161132812 107.844726562 316.427734375 107.27734375 c 2
 317.278320312 107.27734375 l 2
 326.911132812 107.27734375 336.828125 105.010742188 347.028320312 100.477539062 c 0
 352.127929688 98.2109375 356.094726562 95.09375 358.927734375 91.126953125 c 0
 360.627929688 88.8603515625 361.4765625 85.744140625 361.4765625 81.77734375 c 0
334.278320312 248.376953125 m 2
 328.044921875 248.944335938 321.383789062 250.359375 314.30078125 252.625976562 c 0
 307.217773438 254.892578125 300.985351562 258.434570312 295.6015625 263.251953125 c 0
 290.21875 268.069335938 287.244140625 273.59375 286.676757812 279.827148438 c 0
 286.110351562 289.459960938 285.685546875 299.235351562 285.40234375 309.15234375 c 0
 285.307617188 312.454101562 285.259765625 315.709960938 285.259765625 318.91796875 c 0
 285.259765625 325.34375 285.44921875 331.580078125 285.828125 337.627929688 c 0
 286.39453125 342.727539062 288.094726562 347.120117188 290.927734375 350.802734375 c 0
 293.760742188 354.486328125 297.727539062 357.177734375 302.828125 358.877929688 c 0
 307.927734375 360.578125 312.885742188 361.852539062 317.703125 362.703125 c 0
 322.51953125 363.552734375 326.203125 363.977539062 328.752929688 363.977539062 c 2
 334.278320312 363.977539062 l 2
 343.911132812 363.411132812 352.9765625 361.143554688 361.4765625 357.176757812 c 0
 366.008789062 355.4765625 369.694335938 352.501953125 372.52734375 348.251953125 c 0
 375.360351562 344.001953125 377.060546875 339.043945312 377.626953125 333.376953125 c 0
 378.194335938 329.9765625 378.4765625 326.577148438 378.4765625 323.176757812 c 0
 378.4765625 307.876953125 376.209960938 292.009765625 371.676757812 275.577148438 c 0
 369.41015625 266.509765625 364.592773438 259.709960938 357.2265625 255.176757812 c 0
 349.859375 250.643554688 342.776367188 248.376953125 335.9765625 248.376953125 c 2
 334.701171875 248.376953125 l 1
 334.278320312 248.376953125 l 2
EndSplineSet
Validated: 524289
EndChar

StartChar: less
Encoding: 60 60 29
Width: 570
VWidth: 902
GlyphClass: 2
Flags: HMW
HStem: 633.05 17G<466.592 472.826>
LayerCount: 2
Fore
SplineSet
501.724609375 603.299804688 m 0
 496.05859375 594.233398438 484.158203125 583.18359375 466.025390625 570.150390625 c 0
 434.291992188 548.049804688 386.125 511.783203125 321.525390625 461.349609375 c 0
 256.358398438 410.349609375 212.158203125 376.067382812 188.924804688 358.5 c 1
 198.275390625 352.549804688 l 2
 219.80859375 335.549804688 244.174804688 314.8671875 271.375 290.5 c 0
 298.575195312 266.1328125 322.375 244.31640625 342.775390625 225.048828125 c 0
 363.174804688 205.215820312 385.275390625 185.099609375 409.075195312 164.69921875 c 0
 433.442382812 144.298828125 454.409179688 128.432617188 471.975585938 117.099609375 c 0
 490.109375 105.19921875 501.725585938 95.2822265625 506.826171875 87.349609375 c 0
 509.092773438 83.94921875 510.225585938 80.2666015625 510.225585938 76.298828125 c 0
 510.225585938 74.599609375 509.659179688 71.7666015625 508.526367188 67.798828125 c 0
 506.826171875 63.2666015625 503.708984375 59.5830078125 499.17578125 56.75 c 0
 494.642578125 53.9169921875 488.125976562 51.93359375 479.625976562 50.80078125 c 0
 477.359375 50.234375 475.375976562 49.951171875 473.67578125 49.951171875 c 0
 466.30859375 49.951171875 458.091796875 51.6513671875 449.025390625 55.05078125 c 0
 434.858398438 59.583984375 417.858398438 69.216796875 398.025390625 83.9501953125 c 0
 377.625 98.68359375 355.525390625 116.81640625 331.724609375 138.349609375 c 0
 307.924804688 159.881835938 284.125 181.69921875 260.325195312 203.798828125 c 0
 236.525390625 225.899414062 211.30859375 248.56640625 184.674804688 271.798828125 c 0
 158.041992188 295.032226562 135.375 313.44921875 116.674804688 327.048828125 c 0
 111.0078125 331.58203125 107.325195312 337.815429688 105.625 345.748046875 c 0
 105.05859375 349.715820312 104.775390625 353.682617188 104.775390625 357.649414062 c 0
 104.775390625 361.616210938 105.341796875 365.583007812 106.474609375 369.549804688 c 0
 108.7421875 376.916992188 112.424804688 382.299804688 117.525390625 385.700195312 c 0
 149.825195312 409.5 187.791992188 439.533203125 231.424804688 475.799804688 c 0
 275.05859375 512.067382812 314.724609375 544.650390625 350.424804688 573.549804688 c 0
 386.692382812 602.450195312 418.708984375 625.1171875 446.475585938 641.549804688 c 0
 454.975585938 647.216796875 462.909179688 650.049804688 470.276367188 650.049804688 c 0
 475.375976562 650.049804688 479.625976562 648.916992188 483.026367188 646.650390625 c 0
 492.659179688 641.549804688 499.458984375 634.466796875 503.42578125 625.400390625 c 0
 505.125976562 621.43359375 505.975585938 617.75 505.975585938 614.349609375 c 0
 505.409179688 610.950195312 503.9921875 607.266601562 501.724609375 603.299804688 c 0
EndSplineSet
Validated: 524289
EndChar

StartChar: equal
Encoding: 61 61 30
Width: 570
VWidth: 908
GlyphClass: 2
Flags: HMW
HStem: 276.566 53.6273 443.164 56.179
LayerCount: 2
Fore
SplineSet
182.975585938 499.342773438 m 2
 185.525390625 499.342773438 l 2
 217.825195312 498.209960938 250.975585938 497.643554688 284.975585938 497.643554688 c 0
 319.541992188 497.643554688 351.559570312 497.92578125 381.026367188 498.493164062 c 0
 410.493164062 499.060546875 428.342773438 499.342773438 434.576171875 499.342773438 c 0
 445.342773438 498.776367188 452.42578125 496.509765625 455.826171875 492.541992188 c 0
 459.79296875 488.575195312 462.059570312 482.908203125 462.626953125 475.541992188 c 0
 462.059570312 460.80859375 457.809570312 451.741210938 449.876953125 448.341796875 c 0
 447.610351562 447.208007812 445.059570312 446.641601562 442.2265625 446.641601562 c 2
 435.426757812 446.641601562 l 2
 422.393554688 447.208007812 410.494140625 447.491210938 399.7265625 447.491210938 c 2
 369.9765625 447.491210938 l 1
 276.4765625 444.94140625 l 2
 237.376953125 443.80859375 208.4765625 443.241210938 189.77734375 443.241210938 c 0
 188.642578125 443.190429688 187.53515625 443.1640625 186.452148438 443.1640625 c 0
 175.634765625 443.1640625 167.392578125 445.740234375 161.7265625 450.891601562 c 0
 155.494140625 455.991210938 152.376953125 462.224609375 152.376953125 469.591796875 c 2
 152.376953125 472.141601562 l 2
 152.943359375 479.508789062 155.494140625 485.741210938 160.02734375 490.841796875 c 0
 165.126953125 496.508789062 172.775390625 499.342773438 182.975585938 499.342773438 c 2
188.077148438 330.19140625 m 2
 206.209960938 329.625 227.743164062 329.341796875 252.67578125 329.341796875 c 0
 278.17578125 329.908203125 308.776367188 330.475585938 344.475585938 331.041992188 c 2
 434.576171875 332.7421875 l 2
 445.342773438 332.7421875 452.42578125 330.759765625 455.826171875 326.791992188 c 0
 459.79296875 322.259765625 462.059570312 316.309570312 462.626953125 308.942382812 c 0
 462.626953125 299.875 460.926757812 292.791992188 457.52734375 287.692382812 c 0
 455.259765625 284.859375 452.709960938 282.875976562 449.876953125 281.743164062 c 0
 447.610351562 280.610351562 445.059570312 280.04296875 442.2265625 280.04296875 c 2
 435.426757812 280.04296875 l 2
 421.259765625 280.610351562 405.392578125 280.893554688 387.826171875 280.893554688 c 0
 370.258789062 280.893554688 332.291992188 280.04296875 273.924804688 278.342773438 c 0
 233.692382812 277.209960938 204.508789062 276.643554688 186.375976562 276.643554688 c 0
 185.293945312 276.591796875 184.239257812 276.56640625 183.213867188 276.56640625 c 0
 172.958007812 276.56640625 165.51171875 279.141601562 160.875976562 284.29296875 c 0
 155.208984375 289.959960938 152.375976562 296.759765625 152.375976562 304.693359375 c 2
 152.375976562 306.393554688 l 2
 152.943359375 313.193359375 155.776367188 318.860351562 160.875976562 323.393554688 c 0
 165.975585938 327.92578125 174.475585938 330.193359375 186.375976562 330.193359375 c 2
 188.077148438 330.19140625 l 2
EndSplineSet
Validated: 524289
EndChar

StartChar: greater
Encoding: 62 62 31
Width: 570
VWidth: 903
GlyphClass: 2
Flags: HMW
HStem: 640.05 17G<140.473 145.007>
LayerCount: 2
Fore
SplineSet
508.524414062 337.450195312 m 0
 506.2578125 330.083007812 502.575195312 324.700195312 497.474609375 321.299804688 c 0
 465.174804688 297.5 427.208007812 267.466796875 383.575195312 231.200195312 c 0
 339.94140625 194.932617188 300.274414062 162.349609375 264.575195312 133.450195312 c 0
 228.307617188 105.1171875 196.291015625 82.4501953125 168.524414062 65.4501953125 c 0
 160.024414062 59.783203125 151.806640625 56.9501953125 143.874023438 56.9501953125 c 0
 139.340820312 56.9501953125 135.374023438 58.0830078125 131.973632812 60.349609375 c 0
 122.340820312 65.4501953125 115.541015625 72.533203125 111.57421875 81.599609375 c 0
 109.874023438 85.5673828125 109.024414062 89.25 109.024414062 92.650390625 c 0
 109.024414062 96.0498046875 110.157226562 99.7333984375 112.423828125 103.700195312 c 0
 118.090820312 112.766601562 130.274414062 123.817382812 148.973632812 136.849609375 c 0
 180.70703125 158.950195312 228.874023438 195.216796875 293.473632812 245.650390625 c 0
 358.07421875 296.650390625 399.44140625 328.666992188 417.57421875 341.700195312 c 2
 426.07421875 348.5 l 1
 417.57421875 354.450195312 l 2
 395.473632812 371.450195312 370.82421875 392.1328125 343.624023438 416.5 c 0
 316.423828125 440.8671875 292.624023438 462.68359375 272.223632812 481.951171875 c 0
 251.82421875 501.784179688 229.723632812 521.900390625 205.923828125 542.30078125 c 0
 181.556640625 562.701171875 160.58984375 578.567382812 143.0234375 589.900390625 c 0
 124.890625 601.80078125 113.2734375 611.717773438 108.172851562 619.650390625 c 0
 105.90625 623.618164062 104.7734375 627.584960938 104.7734375 631.551757812 c 0
 104.7734375 632.684570312 105.33984375 635.234375 106.473632812 639.201171875 c 0
 108.172851562 643.734375 111.290039062 647.41796875 115.823242188 650.250976562 c 0
 120.356445312 653.083984375 126.873046875 655.067382812 135.373046875 656.200195312 c 0
 137.640625 656.766601562 139.623046875 657.049804688 141.323242188 657.049804688 c 0
 148.690429688 657.049804688 156.907226562 655.349609375 165.973632812 651.950195312 c 0
 179.57421875 647.416992188 196.57421875 637.784179688 216.973632812 623.05078125 c 0
 237.374023438 608.317382812 259.473632812 590.184570312 283.274414062 568.651367188 c 0
 307.07421875 547.118164062 330.874023438 525.301757812 354.673828125 503.201171875 c 0
 378.473632812 481.1015625 403.69140625 458.434570312 430.32421875 435.201171875 c 0
 456.390625 411.96875 479.057617188 393.551757812 498.325195312 379.951171875 c 0
 503.9921875 375.418945312 507.674804688 369.185546875 509.375 361.252929688 c 0
 509.94140625 357.28515625 510.224609375 353.318359375 510.224609375 349.3515625 c 0
 510.224609375 345.384765625 509.658203125 341.416992188 508.524414062 337.450195312 c 0
EndSplineSet
Validated: 524289
EndChar

StartChar: question
Encoding: 63 63 32
Width: 570
VWidth: 903
GlyphClass: 2
Flags: HMW
HStem: 49.6941 113.945 603.045 55.2491
VStem: 228.017 121.55 407.367 68.0008
LayerCount: 2
Fore
SplineSet
475.3671875 496.795898438 m 0
 475.3671875 482.62890625 473.100585938 469.595703125 468.567382812 457.6953125 c 0
 464.034179688 446.362304688 458.083984375 436.4453125 450.717773438 427.9453125 c 0
 443.350585938 419.4453125 434.850585938 411.228515625 425.217773438 403.295898438 c 0
 415.017578125 395.928710938 404.817382812 388.278320312 394.6171875 380.345703125 c 0
 384.416992188 372.413085938 374.500976562 363.913085938 364.8671875 354.845703125 c 0
 355.80078125 345.212890625 347.583984375 333.879882812 340.216796875 320.846679688 c 0
 332.849609375 307.813476562 328.033203125 293.36328125 325.765625 277.49609375 c 0
 323.499023438 264.463867188 318.965820312 254.546875 312.166015625 247.74609375 c 0
 308.19921875 244.346679688 302.815429688 242.646484375 296.015625 242.646484375 c 0
 292.616210938 242.080078125 288.932617188 242.362304688 284.965820312 243.49609375 c 0
 271.932617188 246.895507812 263.432617188 252.845703125 259.465820312 261.345703125 c 0
 257.19921875 265.87890625 256.065429688 271.26171875 256.065429688 277.495117188 c 0
 256.065429688 284.294921875 256.916015625 291.662109375 258.616210938 299.594726562 c 0
 262.583007812 313.76171875 268.25 327.362304688 275.616210938 340.39453125 c 0
 282.983398438 353.427734375 290.916992188 364.477539062 299.416992188 373.544921875 c 0
 308.483398438 383.177734375 317.833984375 392.245117188 327.466796875 400.745117188 c 0
 337.099609375 409.245117188 346.44921875 417.461914062 355.516601562 425.39453125 c 0
 364.583984375 433.328125 373.083984375 441.544921875 381.016601562 450.044921875 c 0
 388.383789062 458.544921875 394.616210938 467.89453125 399.716796875 478.094726562 c 0
 404.81640625 488.294921875 407.366210938 499.344726562 407.366210938 511.245117188 c 0
 407.366210938 543.544921875 397.733398438 567.061523438 378.466796875 581.794921875 c 0
 360.333984375 595.961914062 334.266601562 603.044921875 300.266601562 603.044921875 c 0
 291.19921875 603.044921875 282.1328125 601.061523438 273.065429688 597.094726562 c 0
 263.999023438 593.6953125 256.348632812 589.4453125 250.116210938 584.344726562 c 0
 243.8828125 579.245117188 237.366210938 572.727539062 230.565429688 564.794921875 c 0
 223.19921875 556.294921875 217.815429688 549.495117188 214.416015625 544.39453125 c 0
 211.015625 539.294921875 206.765625 533.061523438 201.666015625 525.6953125 c 0
 196.565429688 518.328125 192.315429688 512.9453125 188.916015625 509.544921875 c 0
 185.515625 506.711914062 182.116210938 505.01171875 178.715820312 504.4453125 c 2
 173.616210938 504.4453125 l 2
 171.916015625 504.4453125 169.6484375 504.727539062 166.815429688 505.294921875 c 0
 163.982421875 505.862304688 159.44921875 507.561523438 153.216796875 510.39453125 c 0
 146.416992188 514.362304688 142.166992188 519.745117188 140.466796875 526.544921875 c 0
 139.887695312 528.279296875 139.532226562 530.862304688 139.532226562 534.594726562 c 0
 139.532226562 541.072265625 141.827148438 549.155273438 146.416992188 558.844726562 c 0
 158.883789062 582.078125 176.733398438 603.611328125 199.966796875 623.444335938 c 0
 212.43359375 634.2109375 227.166992188 642.7109375 244.166992188 648.944335938 c 0
 261.166992188 655.176757812 278.733398438 658.293945312 296.866210938 658.293945312 c 0
 355.799804688 658.293945312 400.283203125 644.977539062 430.315429688 618.34375 c 0
 460.348632812 591.7109375 475.3671875 551.1953125 475.3671875 496.795898438 c 0
289.215820312 49.6943359375 m 2
 281.56640625 49.6943359375 l 2
 280.790039062 49.6640625 280.021484375 49.6494140625 279.260742188 49.6494140625 c 0
 265.557617188 49.6494140625 254.143554688 54.4814453125 245.017578125 64.14453125 c 0
 233.684570312 76.611328125 228.017578125 91.060546875 228.017578125 107.494140625 c 0
 228.017578125 122.227539062 234.250976562 134.977539062 246.717773438 145.744140625 c 0
 260.317382812 157.64453125 276.184570312 163.59375 294.317382812 163.59375 c 0
 295.123046875 163.624023438 295.920898438 163.638671875 296.711914062 163.638671875 c 0
 310.952148438 163.638671875 322.903320312 158.806640625 332.56640625 149.14453125 c 0
 343.899414062 138.376953125 349.56640625 125.060546875 349.56640625 109.193359375 c 0
 349.56640625 93.326171875 344.18359375 80.009765625 333.416992188 69.2421875 c 0
 322.083984375 58.4755859375 307.348632812 51.9609375 289.215820312 49.6943359375 c 2
EndSplineSet
Validated: 524289
EndChar

StartChar: at
Encoding: 64 64 33
Width: 570
VWidth: 892
GlyphClass: 2
Flags: HMW
HStem: -59.0249 56.1042 137.329 50.15 150.929 51.8517 375.332 48.4483 572.529 59.4975
VStem: 96.2742 56.9542 200.826 49.3025 355.528 51.8508 472.829 45.8975
LayerCount: 2
Fore
SplineSet
476.224609375 50.625 m 0xdf80
 473.391601562 42.6923828125 470.275390625 35.892578125 466.875 30.2255859375 c 0
 464.041992188 23.9921875 460.075195312 16.9091796875 454.974609375 8.9755859375 c 0
 449.875 0.4755859375 444.4921875 -6.607421875 438.825195312 -12.2744140625 c 0
 433.158203125 -17.94140625 425.791015625 -23.890625 416.724609375 -30.1240234375 c 0
 408.224609375 -36.357421875 398.590820312 -41.45703125 387.82421875 -45.423828125 c 0
 377.057617188 -49.390625 364.590820312 -52.5078125 350.423828125 -54.7744140625 c 0
 336.256835938 -57.607421875 321.5234375 -59.0244140625 306.223632812 -59.0244140625 c 2
 301.123046875 -59.0244140625 l 2
 272.790039062 -59.0244140625 246.157226562 -51.94140625 221.224609375 -37.7744140625 c 0
 195.724609375 -23.607421875 173.907226562 -3.7744140625 155.774414062 21.7255859375 c 0
 137.641601562 47.2255859375 123.19140625 78.392578125 112.423828125 115.225585938 c 0
 101.657226562 152.625 96.2744140625 193.142578125 96.2744140625 236.775390625 c 0
 96.8408203125 286.075195312 100.80859375 331.975585938 108.174804688 374.475585938 c 0
 116.108398438 417.541992188 126.875 454.659179688 140.474609375 485.826171875 c 0
 154.075195312 516.993164062 170.224609375 543.625976562 188.924804688 565.725585938 c 0
 207.05859375 588.392578125 227.174804688 605.110351562 249.275390625 615.876953125 c 0
 271.375 626.643554688 294.608398438 632.026367188 318.974609375 632.026367188 c 0
 337.674804688 632.026367188 354.391601562 630.610351562 369.125 627.776367188 c 0
 384.424804688 624.943359375 398.875 620.126953125 412.474609375 613.327148438 c 0
 426.075195312 606.526367188 437.974609375 597.459960938 448.174804688 586.126953125 c 0
 458.942382812 574.793945312 468.859375 560.626953125 477.92578125 543.626953125 c 0
 486.993164062 526.626953125 494.359375 506.509765625 500.026367188 483.276367188 c 0
 512.494140625 432.84375 518.7265625 368.810546875 518.7265625 291.177734375 c 0
 518.16015625 250.944335938 512.209960938 215.811523438 500.876953125 185.778320312 c 0
 495.209960938 170.478515625 487.276367188 158.578125 477.077148438 150.078125 c 0
 467.443359375 141.578125 455.827148438 137.328125 442.2265625 137.328125 c 0xdf80
 422.393554688 137.895507812 407.376953125 144.412109375 397.176757812 156.87890625 c 0
 388.676757812 167.079101562 383.293945312 182.096679688 381.026367188 201.9296875 c 2
 377.626953125 240.1796875 l 1
 364.876953125 203.62890625 l 2
 359.209960938 187.76171875 351.842773438 175.579101562 342.776367188 167.079101562 c 0
 332.008789062 156.3125 317.55859375 150.9296875 299.42578125 150.9296875 c 0
 268.258789062 151.49609375 244.17578125 161.413085938 227.17578125 180.6796875 c 0
 209.609375 199.947265625 200.826171875 229.98046875 200.826171875 270.780273438 c 0
 200.826171875 291.1796875 203.092773438 310.163085938 207.625976562 327.73046875 c 0
 212.159179688 345.296875 218.391601562 360.030273438 226.325195312 371.9296875 c 0
 234.2578125 383.263671875 243.325195312 393.1796875 253.525390625 401.6796875 c 0
 264.291992188 410.1796875 275.05859375 416.129882812 285.826171875 419.530273438 c 0
 296.592773438 422.36328125 307.359375 423.780273438 318.126953125 423.780273438 c 0
 333.426757812 423.780273438 348.16015625 420.947265625 362.327148438 415.280273438 c 0
 374.2265625 410.747070312 383.577148438 404.796875 390.376953125 397.4296875 c 0
 394.34375 392.897460938 396.327148438 389.213867188 396.327148438 386.380859375 c 0
 396.327148438 385.248046875 396.043945312 384.115234375 395.4765625 382.981445312 c 0
 392.077148438 376.181640625 387.827148438 371.931640625 382.7265625 370.231445312 c 0
 377.059570312 368.532226562 372.809570312 367.681640625 369.9765625 367.681640625 c 0
 365.443359375 368.249023438 359.2109375 369.381835938 351.27734375 371.08203125 c 2
 338.52734375 373.631835938 l 2
 333.427734375 374.764648438 328.610351562 375.33203125 324.077148438 375.33203125 c 2
 313.877929688 375.33203125 l 2
 305.944335938 374.764648438 298.01171875 371.931640625 290.078125 366.83203125 c 0
 282.145507812 361.731445312 275.345703125 355.499023438 269.678710938 348.131835938 c 0
 263.4453125 341.33203125 258.627929688 331.98046875 255.228515625 320.080078125 c 0
 251.828125 308.1796875 250.127929688 295.1484375 250.127929688 280.981445312 c 0
 250.127929688 273.615234375 250.6953125 266.248046875 251.828125 258.880859375 c 0
 252.395507812 252.081054688 254.095703125 244.145507812 256.928710938 235.078125 c 0
 259.76171875 226.01171875 264.578125 218.364257812 271.377929688 212.130859375 c 0
 278.178710938 205.897460938 286.678710938 202.78125 296.877929688 202.78125 c 0xbf80
 317.845703125 202.78125 332.862304688 211.28125 341.9296875 228.28125 c 0
 349.862304688 243.013671875 354.395507812 267.096679688 355.528320312 300.530273438 c 0
 356.095703125 306.197265625 361.762695312 311.296875 372.529296875 315.830078125 c 0
 381.029296875 318.663085938 388.396484375 320.080078125 394.62890625 320.080078125 c 0
 398.595703125 320.080078125 402.27734375 319.513671875 405.677734375 318.379882812 c 0
 409.077148438 316.6796875 410.779296875 314.697265625 410.779296875 312.4296875 c 2
 410.779296875 310.73046875 l 2
 408.512695312 289.763671875 407.37890625 272.196289062 407.37890625 258.029296875 c 0
 407.37890625 250.662109375 407.662109375 244.145507812 408.229492188 238.478515625 c 0
 410.49609375 220.345703125 413.896484375 207.595703125 418.4296875 200.228515625 c 0
 424.095703125 191.728515625 432.026367188 187.478515625 442.2265625 187.478515625 c 0
 450.7265625 187.478515625 457.24609375 192.861328125 461.779296875 203.62890625 c 0
 465.1796875 212.12890625 467.729492188 222.611328125 469.4296875 235.078125 c 0
 471.696289062 256.045898438 472.829101562 275.595703125 472.829101562 293.728515625 c 0
 472.829101562 323.1953125 471.696289062 350.108398438 469.4296875 374.475585938 c 0
 466.595703125 399.408203125 463.1953125 420.662109375 459.228515625 438.229492188 c 0
 455.26171875 456.362304688 450.161132812 472.512695312 443.928710938 486.6796875 c 0
 437.6953125 501.412109375 431.462890625 513.3125 425.23046875 522.37890625 c 0
 418.997070312 531.446289062 411.629882812 539.37890625 403.129882812 546.1796875 c 0
 394.629882812 552.412109375 387.259765625 557.229492188 381.026367188 560.62890625 c 0
 374.793945312 564.596679688 367.4296875 567.4296875 358.9296875 569.12890625 c 0
 350.4296875 570.829101562 344.197265625 571.6796875 340.23046875 571.6796875 c 0
 336.262695312 572.24609375 331.446289062 572.529296875 325.779296875 572.529296875 c 0
 301.412109375 571.961914062 278.745117188 564.3125 257.778320312 549.579101562 c 0
 236.811523438 534.846679688 218.678710938 514.446289062 203.377929688 488.37890625 c 0
 188.078125 461.74609375 175.895507812 429.446289062 166.828125 391.479492188 c 0
 157.76171875 353.512695312 153.228515625 312.145507812 153.228515625 267.37890625 c 0
 153.794921875 228.278320312 156.912109375 193.145507812 162.579101562 161.978515625 c 0
 168.8125 130.245117188 176.745117188 104.461914062 186.377929688 84.62890625 c 0
 196.01171875 64.7958984375 207.624023438 48.0791015625 221.224609375 34.4794921875 c 0
 234.256835938 20.87890625 247.861328125 11.24609375 262.028320312 5.5791015625 c 0
 276.1953125 -0.087890625 290.923828125 -2.9208984375 306.223632812 -2.9208984375 c 0
 320.956054688 -2.9208984375 334.844726562 -1.50390625 347.877929688 1.3291015625 c 0
 360.91015625 4.162109375 371.677734375 7.845703125 380.177734375 12.37890625 c 0
 389.244140625 16.9111328125 397.744140625 22.8583984375 405.677734375 30.2255859375 c 0
 413.044921875 37.025390625 418.994140625 43.5458984375 423.52734375 49.7783203125 c 0
 427.494140625 56.01171875 432.311523438 63.6611328125 437.978515625 72.728515625 c 0
 440.245117188 76.6953125 442.228515625 79.8125 443.928710938 82.0791015625 c 0
 445.627929688 83.779296875 447.328125 86.0458984375 449.028320312 88.87890625 c 0
 451.294921875 91.7119140625 452.995117188 93.6953125 454.127929688 94.828125 c 2
 459.228515625 97.37890625 l 2
 461.495117188 99.078125 464.612304688 99.078125 468.579101562 97.37890625 c 0
 474.8125 95.111328125 479.0625 91.4287109375 481.329101562 86.328125 c 0
 482.461914062 84.0615234375 483.029296875 81.794921875 483.029296875 79.52734375 c 0
 483.029296875 72.1611328125 480.7578125 62.525390625 476.224609375 50.625 c 0xdf80
EndSplineSet
Validated: 524289
EndChar

StartChar: A
Encoding: 65 65 34
Width: 570
VWidth: 905
GlyphClass: 2
Flags: HMW
HStem: 285.775 43.3483
VStem: 97.1242 61.2009
LayerCount: 2
Fore
SplineSet
337.67578125 571.372070312 m 2
 314.442382812 532.838867188 281.29296875 451.805664062 238.225585938 328.2734375 c 2
 233.975585938 315.5234375 l 1
 245.875976562 317.22265625 l 2
 299.142578125 324.0234375 346.459960938 327.990234375 387.827148438 329.123046875 c 2
 397.176757812 329.123046875 l 1
 347.876953125 588.373046875 l 1
 337.67578125 571.372070312 l 2
449.875 101.32421875 m 0
 443.075195312 118.890625 428.625 180.375 406.525390625 285.774414062 c 0
 404.825195312 291.44140625 402.841796875 291.44140625 400.575195312 285.774414062 c 1
 333.141601562 282.375 271.091796875 275.856445312 214.424804688 266.223632812 c 1
 195.724609375 216.356445312 177.025390625 161.107421875 158.325195312 100.474609375 c 0
 153.791992188 85.1748046875 147.275390625 75.2548828125 138.775390625 70.7216796875 c 0
 134.2421875 68.455078125 129.9921875 67.322265625 126.025390625 67.322265625 c 0
 122.05859375 67.322265625 118.090820312 68.171875 114.124023438 69.8720703125 c 0
 102.791015625 74.4052734375 97.1240234375 84.607421875 97.1240234375 100.474609375 c 0
 97.1240234375 107.274414062 98.2568359375 115.208007812 100.524414062 124.274414062 c 0
 104.491210938 144.107421875 121.491210938 190.291015625 151.524414062 262.82421875 c 1
 149.256835938 269.624023438 147.274414062 270.756835938 145.57421875 266.223632812 c 1
 138.20703125 271.32421875 134.524414062 277.2734375 134.524414062 284.07421875 c 2
 134.524414062 284.923828125 l 2
 133.95703125 290.0234375 136.506835938 295.124023438 142.173828125 300.223632812 c 0
 149.541015625 306.45703125 158.608398438 311.2734375 169.375 314.673828125 c 1
 170.5078125 320.340820312 171.641601562 320.623046875 172.774414062 315.5234375 c 1
 239.641601562 479.856445312 290.358398438 588.939453125 324.924804688 642.7734375 c 0
 332.291992188 653.540039062 338.383789062 661.047851562 343.201171875 665.297851562 c 0
 348.017578125 669.547851562 353.259765625 671.672851562 358.926757812 671.672851562 c 2
 359.776367188 671.672851562 l 1
 364.876953125 671.672851562 l 2
 371.109375 671.672851562 377.059570312 669.97265625 382.7265625 666.573242188 c 0
 388.393554688 663.172851562 392.077148438 656.373046875 393.776367188 646.172851562 c 0
 405.109375 575.90625 424.66015625 476.172851562 452.426757812 346.97265625 c 0
 480.193359375 217.206054688 499.744140625 142.40625 511.077148438 122.573242188 c 0
 515.609375 114.639648438 517.876953125 107.556640625 517.876953125 101.32421875 c 0
 517.309570312 100.756835938 517.026367188 99.9072265625 517.026367188 98.7734375 c 0
 516.459960938 91.4072265625 514.334960938 85.314453125 510.651367188 80.498046875 c 0
 506.96875 75.6806640625 502.577148438 72.138671875 497.4765625 69.8720703125 c 0
 493.509765625 68.171875 489.54296875 67.322265625 485.576171875 67.322265625 c 0
 481.04296875 67.322265625 476.509765625 68.455078125 471.9765625 70.7216796875 c 0
 462.91015625 75.2548828125 455.541992188 85.45703125 449.875 101.32421875 c 0
EndSplineSet
Validated: 524289
EndChar

StartChar: B
Encoding: 66 66 35
Width: 570
VWidth: 899
GlyphClass: 2
Flags: HMW
HStem: 32.6853 67.4621 310.947 44.1992 593.999 42.4983
VStem: 117.523 66.1298 120.923 70.5491 402.273 61.2009 431.175 67.9983
LayerCount: 2
Fore
SplineSet
390.370117188 270.999023438 m 0xea
 378.470703125 278.932617188 362.178710938 286.440429688 341.495117188 293.5234375 c 0
 320.8125 300.606445312 297.154296875 306.4140625 270.521484375 310.947265625 c 1
 269.671875 310.947265625 l 2
 231.138671875 310.947265625 202.805664062 310.6640625 184.671875 310.09765625 c 1
 187.504882812 213.197265625 189.772460938 142.647460938 191.47265625 98.447265625 c 1
 202.805664062 99.580078125 215.272460938 100.147460938 228.872070312 100.147460938 c 0
 242.47265625 100.71484375 252.671875 100.997070312 259.47265625 100.997070312 c 0
 283.838867188 102.130859375 306.930664062 106.6640625 328.748046875 114.596679688 c 0
 350.565429688 122.529296875 368.556640625 132.446289062 382.723632812 144.346679688 c 0
 396.890625 155.6796875 408.5078125 168.004882812 417.57421875 181.321289062 c 0
 426.641601562 194.638671875 431.174804688 207.247070312 431.174804688 219.146484375 c 0
 431.174804688 236.713867188 417.5703125 253.999023438 390.370117188 270.999023438 c 0xea
194.0234375 582.946289062 m 2
 188.073242188 581.247070312 l 1
 188.073242188 566.513671875 187.505859375 547.247070312 186.373046875 523.446289062 c 0
 184.559570312 478.116210938 183.653320312 433.692382812 183.653320312 390.17578125 c 0
 183.653320312 379.29296875 183.708984375 368.465820312 183.823242188 357.696289062 c 1
 214.422851562 355.997070312 240.7734375 355.146484375 262.873046875 355.146484375 c 0
 279.305664062 355.146484375 294.180664062 356.705078125 307.498046875 359.821289062 c 0
 320.815429688 362.938476562 332.290039062 366.905273438 341.922851562 371.72265625 c 0
 351.555664062 376.5390625 360.055664062 382.489257812 367.422851562 389.572265625 c 0
 374.790039062 396.655273438 380.456054688 403.880859375 384.422851562 411.247070312 c 0
 388.389648438 418.614257812 391.791015625 426.547851562 394.624023438 435.047851562 c 0
 397.45703125 443.547851562 399.440429688 451.48046875 400.573242188 458.84765625 c 0
 401.706054688 466.21484375 402.2734375 473.581054688 402.2734375 480.948242188 c 0xf4
 401.706054688 496.815429688 398.588867188 511.547851562 392.921875 525.1484375 c 0
 387.254882812 538.748046875 379.888671875 549.65625 370.821289062 557.873046875 c 0
 361.754882812 566.08984375 351.837890625 573.032226562 341.0703125 578.69921875 c 0
 321.803710938 588.899414062 301.403320312 593.999023438 279.870117188 593.999023438 c 0
 250.970703125 593.999023438 222.356445312 590.313476562 194.0234375 582.946289062 c 2
483.44921875 160.497070312 m 0
 472.966796875 140.6640625 457.6640625 122.106445312 437.546875 104.823242188 c 0
 417.430664062 87.5400390625 392.639648438 72.9482421875 363.172851562 61.0478515625 c 0
 334.2734375 49.1484375 302.255859375 41.498046875 267.123046875 38.0986328125 c 1
 250.391601562 32.685546875 l 2
 246.3359375 32.685546875 242.280273438 33.6396484375 238.224609375 35.5478515625 c 2
 222.4765625 30.1357421875 l 2
 218.659179688 30.1357421875 214.841796875 31.08984375 211.0234375 32.998046875 c 0
 194.0234375 31.2978515625 180.70703125 30.4482421875 171.07421875 30.4482421875 c 0
 164.840820312 30.4482421875 158.890625 31.015625 153.223632812 32.1484375 c 2
 149.82421875 32.1484375 l 2
 140.756835938 31.5810546875 133.389648438 34.4140625 127.72265625 40.6474609375 c 0
 123.190429688 45.7470703125 120.922851562 52.830078125 120.922851562 61.8974609375 c 2
 120.922851562 66.1474609375 l 2xea
 122.055664062 83.71484375 122.623046875 113.181640625 122.623046875 154.547851562 c 0
 122.623046875 231.615234375 120.922851562 316.8984375 117.5234375 410.3984375 c 0
 116.389648438 448.365234375 115.823242188 473.723632812 115.823242188 486.473632812 c 0
 115.823242188 499.223632812 116.389648438 516.6484375 117.5234375 538.748046875 c 0
 118.65625 560.848632812 119.22265625 576.1484375 119.22265625 584.6484375 c 0
 119.790039062 597.681640625 123.33203125 607.314453125 129.848632812 613.547851562 c 0
 136.366210938 619.780273438 144.157226562 622.897460938 153.223632812 622.897460938 c 2
 156.625 622.897460938 l 1
 157.474609375 622.897460938 l 2
 167.107421875 625.73046875 176.740234375 627.997070312 186.373046875 629.697265625 c 0
 205.073242188 633.09765625 222.07421875 635.080078125 237.374023438 635.647460938 c 0
 245.874023438 636.21484375 252.390625 636.497070312 256.923828125 636.497070312 c 2
 273.07421875 636.497070312 l 1
 281.57421875 636.497070312 l 2
 315.57421875 636.497070312 345.607421875 629.697265625 371.673828125 616.09765625 c 0
 398.874023438 602.497070312 420.973632812 582.805664062 437.973632812 557.022460938 c 0
 454.973632812 531.239257812 463.473632812 500.497070312 463.473632812 464.797851562 c 0xf4
 463.473632812 434.764648438 456.390625 408.981445312 442.223632812 387.448242188 c 0
 428.056640625 365.915039062 408.790039062 350.047851562 384.422851562 339.848632812 c 1
 377.623046875 331.348632812 371.106445312 328.515625 364.873046875 331.348632812 c 1
 371.672851562 322.848632812 378.190429688 320.297851562 384.422851562 323.698242188 c 1
 401.990234375 317.46484375 419.698242188 308.540039062 437.547851562 296.922851562 c 0
 455.3984375 285.306640625 470.130859375 272.4140625 481.748046875 258.247070312 c 0
 493.365234375 244.080078125 499.172851562 231.61328125 499.172851562 220.846679688 c 2
 499.172851562 219.146484375 l 2xe2
 499.172851562 199.879882812 493.932617188 180.330078125 483.44921875 160.497070312 c 0
EndSplineSet
Validated: 524289
EndChar

StartChar: C
Encoding: 67 67 36
Width: 570
VWidth: 903
GlyphClass: 2
Flags: HMW
HStem: 26.9011 61.2009 605.752 53.5491
VStem: 104.699 68.8491 438.75 70.5508
LayerCount: 2
Fore
SplineSet
498.25 523.725585938 m 0
 490.8828125 513.2421875 483.799804688 507.434570312 477 506.30078125 c 2
 471.900390625 506.30078125 l 2
 465.099609375 506.30078125 458.016601562 508.568359375 450.650390625 513.100585938 c 0
 442.716796875 518.767578125 438.75 526.134765625 438.75 535.202148438 c 0
 438.75 539.735351562 439.317382812 553.334960938 440.450195312 576.001953125 c 1
 427.416992188 585.068359375 419.766601562 590.452148438 417.5 592.15234375 c 0
 415.233398438 593.8515625 411.833007812 595.834960938 407.299804688 598.1015625 c 0
 398.799804688 603.202148438 390.016601562 605.751953125 380.950195312 605.751953125 c 0
 363.3828125 605.751953125 344.825195312 599.518554688 325.275390625 587.051757812 c 0
 305.724609375 574.584960938 287.166992188 557.301757812 269.599609375 535.202148438 c 0
 252.033203125 513.1015625 236.166015625 487.884765625 221.999023438 459.551757812 c 0
 207.83203125 430.65234375 196.21484375 398.3515625 187.1484375 362.65234375 c 0
 178.081054688 326.952148438 173.547851562 290.96875 173.547851562 254.702148438 c 0
 173.547851562 227.501953125 178.6484375 201.293945312 188.848632812 176.077148438 c 0
 199.047851562 150.860351562 213.21484375 129.751953125 231.348632812 112.751953125 c 0
 248.915039062 96.318359375 268.46484375 88.1015625 289.998046875 88.1015625 c 0
 307.565429688 88.1015625 324.565429688 90.0849609375 340.998046875 94.0517578125 c 0
 357.431640625 98.0185546875 372.306640625 103.260742188 385.623046875 109.77734375 c 0
 398.940429688 116.294921875 410.698242188 122.669921875 420.8984375 128.90234375 c 0
 430.53125 135.135742188 439.881835938 141.935546875 448.948242188 149.302734375 c 0
 455.748046875 153.8359375 461.556640625 157.235351562 466.373046875 159.502929688 c 0
 471.190429688 161.76953125 476.1484375 162.90234375 481.248046875 162.90234375 c 0
 485.78125 162.90234375 490.03125 161.485351562 493.998046875 158.65234375 c 0
 501.365234375 152.985351562 505.047851562 146.46875 505.047851562 139.1015625 c 0
 505.047851562 130.03515625 499.665039062 119.267578125 488.8984375 106.80078125 c 0
 442.998046875 53.5341796875 375.848632812 26.9013671875 287.448242188 26.9013671875 c 2
 280.6484375 26.9013671875 l 2
 260.248046875 26.9013671875 240.981445312 30.583984375 222.848632812 37.951171875 c 0
 204.1484375 45.8837890625 187.71484375 56.3671875 173.547851562 69.400390625 c 0
 159.381835938 82.43359375 147.056640625 97.4501953125 136.573242188 114.450195312 c 0
 126.08984375 131.450195312 118.157226562 149.583007812 112.774414062 168.850585938 c 0
 107.390625 188.1171875 104.69921875 207.383789062 104.69921875 226.651367188 c 0
 104.69921875 268.017578125 108.94921875 308.392578125 117.44921875 347.776367188 c 0
 125.94921875 387.159179688 137.282226562 422.434570312 151.44921875 453.600585938 c 0
 165.616210938 484.767578125 182.333007812 513.384765625 201.599609375 539.452148438 c 0
 219.166992188 566.084960938 237.724609375 588.04296875 257.275390625 605.326171875 c 0
 276.825195312 622.609375 296.658203125 635.92578125 316.775390625 645.276367188 c 0
 336.891601562 654.625976562 356.299804688 659.30078125 375 659.30078125 c 0
 393.700195312 659.30078125 411.266601562 657.034179688 427.700195312 652.500976562 c 1
 429.966796875 657.034179688 432.516601562 656.184570312 435.349609375 649.951171875 c 1
 436.483398438 658.451171875 437.333007812 661.284179688 437.900390625 658.451171875 c 1
 439.599609375 665.250976562 443 670.91796875 448.099609375 675.451171875 c 0
 453.200195312 679.41796875 458.8671875 681.684570312 465.099609375 682.251953125 c 0
 467.932617188 682.818359375 469.6328125 683.1015625 470.200195312 683.1015625 c 0
 475.8671875 683.1015625 481.817382812 681.119140625 488.049804688 677.15234375 c 0
 495.416992188 672.619140625 500.233398438 665.536132812 502.500976562 655.90234375 c 0
 507.034179688 634.370117188 509.30078125 611.418945312 509.30078125 587.051757812 c 2
 509.30078125 555.602539062 l 2
 509.30078125 544.8359375 505.6171875 534.208007812 498.25 523.725585938 c 0
EndSplineSet
Validated: 524289
EndChar

StartChar: D
Encoding: 68 68 37
Width: 570
VWidth: 899
GlyphClass: 2
Flags: HMW
HStem: 23.45 64.5991 623.55 17G<134.806 148.69>
VStem: 103.074 66.0546 446.475 65.446
LayerCount: 2
Fore
SplineSet
319.821289062 518.150390625 m 0
 290.920898438 537.983398438 249.271484375 558.666015625 194.87109375 580.19921875 c 1
 194.021484375 581.048828125 l 1
 193.170898438 581.048828125 l 1
 192.321289062 581.899414062 l 1
 191.471679688 581.899414062 l 1
 190.62109375 581.899414062 l 1
 190.62109375 582.749023438 l 1
 189.771484375 582.749023438 l 1
 188.920898438 582.749023438 l 1
 188.071289062 582.749023438 l 1
 188.071289062 583.599609375 l 1
 187.221679688 583.599609375 l 1
 186.37109375 583.599609375 l 1
 185.521484375 583.599609375 l 1
 185.521484375 584.44921875 l 1
 184.670898438 584.44921875 l 1
 183.821289062 584.44921875 l 1
 182.969726562 585.298828125 l 1
 182.12109375 585.298828125 l 1
 171.071289062 597.19921875 l 1
 170.221679688 577.649414062 l 2
 169.4921875 545.590820312 169.127929688 514 169.127929688 482.877929688 c 0
 169.127929688 441.385742188 169.775390625 400.7265625 171.071289062 360.899414062 c 0
 172.204101562 325.765625 173.337890625 283.69140625 174.470703125 234.673828125 c 0
 175.603515625 185.657226562 176.736328125 146.982421875 177.870117188 118.649414062 c 1
 182.969726562 116.94921875 l 2
 206.203125 106.182617188 229.719726562 98.673828125 253.51953125 94.423828125 c 0
 277.319335938 90.173828125 304.51953125 88.048828125 335.120117188 88.048828125 c 0
 351.552734375 88.048828125 366.852539062 93.857421875 381.01953125 105.474609375 c 0
 395.186523438 117.090820312 406.803710938 131.682617188 415.870117188 149.25 c 0
 425.50390625 166.817382812 433.01171875 185.942382812 438.39453125 206.625 c 0
 446.4375 237.52734375 446.475585938 259.958007812 446.475585938 269.5703125 c 0
 446.475585938 377.873046875 404.258789062 460.732421875 319.821289062 518.150390625 c 0
504.274414062 179.424804688 m 0
 499.174804688 159.307617188 491.241210938 139.900390625 480.474609375 121.200195312 c 0
 469.708007812 102.5 457.241210938 85.9248046875 443.07421875 71.474609375 c 0
 428.907226562 57.025390625 412.473632812 45.2666015625 393.7734375 36.2001953125 c 0
 375.640625 27.7001953125 356.374023438 23.4501953125 335.973632812 23.4501953125 c 2
 328.32421875 23.4501953125 l 2
 305.090820312 23.4501953125 281.715820312 24.5830078125 258.19921875 26.849609375 c 0
 234.681640625 29.1171875 215.556640625 31.9501953125 200.82421875 35.349609375 c 0
 185.5234375 39.3173828125 171.782226562 42.716796875 159.598632812 45.5498046875 c 0
 147.416015625 48.3828125 139.907226562 49.7998046875 137.07421875 49.7998046875 c 0
 128.0078125 49.7998046875 120.640625 52.6328125 114.973632812 58.2998046875 c 0
 109.874023438 63.400390625 107.32421875 70.4833984375 107.32421875 79.5498046875 c 2
 107.32421875 84.650390625 l 2
 109.0234375 105.049804688 109.874023438 136.783203125 109.874023438 179.849609375 c 0
 109.306640625 256.916992188 107.32421875 348.716796875 103.923828125 455.25 c 0
 103.356445312 486.983398438 103.07421875 507.807617188 103.07421875 517.724609375 c 0
 103.07421875 527.641601562 103.499023438 543.083984375 104.348632812 564.05078125 c 0
 105.19921875 585.017578125 105.624023438 597.767578125 105.624023438 602.30078125 c 0
 106.190429688 615.333984375 109.590820312 624.966796875 115.82421875 631.200195312 c 0
 122.056640625 637.432617188 129.990234375 640.549804688 139.623046875 640.549804688 c 0
 157.755859375 640.549804688 180.989257812 637.716796875 209.322265625 632.049804688 c 0
 225.754882812 628.650390625 242.471679688 623.974609375 259.471679688 618.025390625 c 0
 276.471679688 612.075195312 294.888671875 603.858398438 314.721679688 593.375 c 0
 334.555664062 582.891601562 353.254882812 570.567382812 370.822265625 556.400390625 c 0
 388.388671875 542.233398438 405.671875 524.950195312 422.671875 504.549804688 c 0
 440.805664062 484.150390625 456.388671875 461.625 469.420898438 436.974609375 c 0
 482.454101562 412.325195312 492.795898438 382.858398438 500.446289062 348.575195312 c 0
 508.096679688 314.291992188 511.920898438 277.317382812 511.920898438 237.650390625 c 0
 511.920898438 218.950195312 509.375 199.541992188 504.274414062 179.424804688 c 0
EndSplineSet
Validated: 524289
EndChar

StartChar: E
Encoding: 69 69 38
Width: 570
VWidth: 899
GlyphClass: 2
Flags: HMW
HStem: 32.8751 57.8033<206.498 258.069> 44.7751 60.3533<450.164 477.369 456.681 477.369> 315.078 56.0983 332.078 52.6992 572.627 54.3991
VStem: 114.981 64.6033
LayerCount: 2
Fore
SplineSet
467.731445312 44.775390625 m 2x4c
 456.681640625 44.775390625 l 2x4c
 443.6484375 44.775390625 422.3984375 43.9248046875 392.931640625 42.224609375 c 0
 307.364257812 35.9921875 248.147460938 32.875 215.280273438 32.875 c 0
 197.713867188 32.875 182.98046875 33.4423828125 171.081054688 34.5751953125 c 0
 159.747070312 35.1416015625 148.272460938 40.80859375 136.655273438 51.576171875 c 0
 125.0390625 62.3427734375 118.380859375 75.3779296875 116.680664062 90.6787109375 c 0
 114.98046875 104.278320312 114.130859375 127.508789062 114.130859375 160.375976562 c 0
 114.130859375 193.243164062 114.4140625 228.942382812 114.98046875 267.475585938 c 2
 114.98046875 341.850585938 l 2
 114.98046875 364.80078125 114.4140625 396.67578125 113.280273438 437.475585938 c 0
 112.713867188 471.475585938 112.430664062 493.859375 112.430664062 504.625976562 c 0
 112.430664062 515.392578125 112.85546875 531.401367188 113.706054688 552.651367188 c 0
 114.555664062 573.901367188 114.98046875 587.359375 114.98046875 593.026367188 c 0
 115.547851562 606.05859375 119.08984375 615.833984375 125.606445312 622.350585938 c 0
 132.123046875 628.868164062 139.915039062 632.125976562 148.982421875 632.125976562 c 1
 149.548828125 626.458984375 150.399414062 626.458984375 151.532226562 632.125976562 c 1
 162.298828125 631.55859375 170.516601562 627.591796875 176.182617188 620.224609375 c 0
 177.31640625 613.9921875 178.451171875 612.859375 179.583984375 616.826171875 c 1
 181.284179688 611.725585938 182.982421875 612.008789062 184.682617188 617.67578125 c 1
 227.749023438 623.909179688 281.866210938 627.026367188 347.033203125 627.026367188 c 0
 365.166015625 627.026367188 381.31640625 626.743164062 395.483398438 626.17578125 c 0
 428.349609375 624.475585938 454.416992188 622.4921875 473.68359375 620.224609375 c 0
 485.583984375 619.091796875 493.375976562 616.684570312 497.05859375 613.001953125 c 0
 500.7421875 609.318359375 502.583984375 604.077148438 502.583984375 597.276367188 c 0
 502.583984375 582.543945312 498.6171875 573.4765625 490.68359375 570.077148438 c 0
 487.284179688 568.376953125 484.30859375 567.668945312 481.758789062 567.952148438 c 0
 479.208984375 568.234375 477.083984375 568.376953125 475.383789062 568.376953125 c 0
 435.716796875 571.209960938 397.18359375 572.626953125 359.784179688 572.626953125 c 0
 346.750976562 572.626953125 333.717773438 572.34375 320.684570312 571.776367188 c 0
 271.384765625 570.643554688 228.03515625 567.244140625 190.634765625 561.577148438 c 1
 188.368164062 555.91015625 186.100585938 555.626953125 183.833984375 560.7265625 c 1
 181.000976562 496.693359375 179.583984375 436.34375 179.583984375 379.676757812 c 2
 179.583984375 371.176757812 l 1xac
 224.916992188 371.744140625 280.450195312 374.010742188 346.182617188 377.977539062 c 0
 414.182617188 382.510742188 452.432617188 384.77734375 460.932617188 384.77734375 c 0
 471.700195312 384.77734375 479.067382812 382.65234375 483.034179688 378.40234375 c 0
 487.000976562 374.15234375 488.984375 368.344726562 488.984375 360.977539062 c 0
 488.984375 351.344726562 487.284179688 344.26171875 483.883789062 339.728515625 c 0
 479.350585938 334.627929688 471.842773438 332.078125 461.359375 332.078125 c 0x1c
 450.876953125 332.078125 409.084960938 329.245117188 335.984375 323.578125 c 0
 264.584960938 317.911132812 215.28515625 315.078125 188.084960938 315.078125 c 1
 185.817382812 308.845703125 183.267578125 308.5625 180.434570312 314.229492188 c 1
 180.434570312 291.5625 180.717773438 260.395507812 181.28515625 220.728515625 c 0
 181.28515625 196.361328125 181.567382812 176.528320312 182.134765625 161.228515625 c 0
 183.267578125 128.928710938 185.53515625 108.245117188 188.934570312 99.1787109375 c 0
 189.501953125 92.3779296875 190.067382812 91.2451171875 190.634765625 95.7783203125 c 1
 192.334960938 90.111328125 193.752929688 89.828125 194.885742188 94.9287109375 c 1
 203.952148438 92.095703125 221.802734375 90.6787109375 248.435546875 90.6787109375 c 0xac
 267.702148438 90.6787109375 291.78515625 91.2451171875 320.684570312 92.3779296875 c 0
 389.817382812 95.7783203125 435.1484375 99.4619140625 456.681640625 103.428710938 c 0
 464.048828125 104.561523438 470.143554688 105.127929688 474.9609375 105.127929688 c 0x4c
 479.77734375 105.127929688 483.885742188 104.278320312 487.28515625 102.578125 c 0
 490.685546875 100.877929688 493.235351562 99.1787109375 494.935546875 97.478515625 c 0
 496.635742188 95.7783203125 498.052734375 93.51171875 499.185546875 90.6787109375 c 0x8c
 500.318359375 87.845703125 501.168945312 85.4375 501.735351562 83.4541015625 c 0
 502.302734375 81.470703125 502.583984375 79.0634765625 502.583984375 76.23046875 c 0
 503.150390625 67.1630859375 500.319335938 59.23046875 494.0859375 52.4296875 c 0
 489.553710938 46.7626953125 482.470703125 43.9296875 472.836914062 43.9296875 c 0
 471.137695312 44.4970703125 469.431640625 44.775390625 467.731445312 44.775390625 c 2x4c
EndSplineSet
Validated: 524289
EndChar

StartChar: F
Encoding: 70 70 39
Width: 570
VWidth: 900
GlyphClass: 2
Flags: HMW
HStem: 313.658 52.7 324.708 55.2491 576.307 57.7983 623.906 17G
VStem: 113.195 66.1324 116.595 71.4009
LayerCount: 2
Fore
SplineSet
474.44921875 629.85546875 m 0x28
 485.782226562 628.72265625 493.149414062 626.313476562 496.549804688 622.630859375 c 0
 499.94921875 618.947265625 501.932617188 613.422851562 502.5 606.055664062 c 0
 502.5 598.122070312 499.94921875 591.0390625 494.849609375 584.806640625 c 0
 490.8828125 579.139648438 483.515625 576.306640625 472.749023438 576.306640625 c 2
 471.8984375 576.306640625 l 2
 440.731445312 578.006835938 409.282226562 578.856445312 377.548828125 578.856445312 c 0
 319.181640625 578.856445312 254.58203125 575.739257812 183.749023438 569.506835938 c 1
 183.181640625 555.33984375 182.615234375 537.489257812 182.047851562 515.956054688 c 0
 180.234375 477.42578125 179.328125 439.62109375 179.328125 402.541015625 c 0
 179.328125 393.267578125 179.383789062 384.0390625 179.498046875 374.857421875 c 0
 182.8984375 369.756835938 186.014648438 370.040039062 188.84765625 375.70703125 c 1
 212.081054688 378.540039062 237.013671875 379.95703125 263.647460938 379.95703125 c 2
 282.346679688 379.95703125 l 2x68
 316.346679688 378.82421875 346.947265625 377.124023438 374.147460938 374.857421875 c 0
 401.9140625 372.024414062 424.581054688 369.19140625 442.1484375 366.358398438 c 0
 454.615234375 364.090820312 462.547851562 361.2578125 465.948242188 357.858398438 c 0
 469.34765625 354.458007812 471.331054688 349.358398438 471.8984375 342.557617188 c 0
 471.8984375 334.057617188 469.915039062 326.69140625 465.948242188 320.458007812 c 0
 463.680664062 315.924804688 458.013671875 313.658203125 448.947265625 313.658203125 c 2
 444.697265625 313.658203125 l 2x88
 427.129882812 316.491210938 403.046875 319.041015625 372.447265625 321.307617188 c 0
 343.546875 323.575195312 310.963867188 324.708007812 274.697265625 324.708007812 c 0
 240.129882812 324.140625 210.947265625 322.158203125 187.147460938 318.7578125 c 1
 184.879882812 313.090820312 182.61328125 312.807617188 180.346679688 317.908203125 c 1
 182.61328125 227.241210938 185.163085938 142.241210938 187.99609375 62.908203125 c 0
 186.86328125 53.275390625 182.471679688 45.625 174.821289062 39.9580078125 c 0
 167.170898438 34.291015625 158.529296875 31.4580078125 148.896484375 31.4580078125 c 1
 148.329101562 26.3583984375 147.479492188 26.640625 146.346679688 32.3076171875 c 1
 137.279296875 31.7412109375 129.912109375 34.57421875 124.245117188 40.8076171875 c 0
 119.145507812 45.9072265625 116.595703125 52.990234375 116.595703125 62.0576171875 c 2
 116.595703125 66.3076171875 l 2x44
 118.295898438 85.0068359375 119.145507812 116.173828125 119.145507812 159.807617188 c 0
 118.578125 240.274414062 116.595703125 329.807617188 113.1953125 428.407226562 c 0
 112.0625 466.374023438 111.495117188 491.874023438 111.495117188 504.907226562 c 0
 111.495117188 517.940429688 112.0625 535.365234375 113.1953125 557.182617188 c 0
 114.328125 578.999023438 114.895507812 594.157226562 114.895507812 602.657226562 c 0
 115.462890625 615.690429688 118.862304688 625.323242188 125.095703125 631.556640625 c 0
 131.328125 637.7890625 139.26171875 640.90625 148.89453125 640.90625 c 1
 150.594726562 635.239257812 152.01171875 635.239257812 153.14453125 640.90625 c 1x58
 163.911132812 640.90625 172.12890625 637.223632812 177.795898438 629.856445312 c 1
 178.362304688 622.489257812 179.212890625 621.072265625 180.345703125 625.60546875 c 1
 248.345703125 631.272460938 312.095703125 634.10546875 371.595703125 634.10546875 c 0
 411.262695312 634.10546875 445.549804688 632.688476562 474.44921875 629.85546875 c 0x28
EndSplineSet
Validated: 524289
EndChar

StartChar: G
Encoding: 71 71 40
Width: 570
VWidth: 901
GlyphClass: 2
Flags: HMW
HStem: 25.623 61.2017 263.2 63.3259 295.073 54.8269 613.825 53.5483
VStem: 103.943 67.9983
LayerCount: 2
Fore
SplineSet
447.33984375 651.224609375 m 0xb8
 475.672851562 640.458007812 493.5234375 631.107421875 500.890625 623.174804688 c 0
 507.690429688 616.375 511.08984375 608.44140625 511.08984375 599.375 c 0
 511.657226562 594.274414062 510.807617188 588.607421875 508.540039062 582.375 c 0
 507.407226562 577.274414062 503.723632812 573.591796875 497.491210938 571.32421875 c 0
 493.524414062 570.19140625 490.265625 569.625 487.715820312 569.625 c 0
 485.166015625 569.625 481.624023438 570.19140625 477.090820312 571.32421875 c 0
 473.69140625 572.458007812 465.899414062 576.708007812 453.715820312 584.07421875 c 0
 441.533203125 591.44140625 428.640625 598.241210938 415.041015625 604.474609375 c 0
 402.0078125 610.708007812 390.108398438 613.82421875 379.340820312 613.82421875 c 0
 361.774414062 613.82421875 343.215820312 607.44921875 323.666015625 594.69921875 c 0
 304.116210938 581.94921875 285.69921875 564.099609375 268.416015625 541.149414062 c 0
 251.1328125 518.19921875 235.408203125 492.274414062 221.241210938 463.375 c 0
 206.5078125 433.908203125 194.608398438 400.899414062 185.541015625 364.349609375 c 0
 176.473632812 327.799804688 171.94140625 290.82421875 171.94140625 253.424804688 c 0
 171.94140625 226.224609375 177.041015625 200.016601562 187.241210938 174.799804688 c 0
 197.44140625 149.583007812 211.608398438 128.474609375 229.741210938 111.474609375 c 0
 247.307617188 95.0419921875 266.858398438 86.8251953125 288.390625 86.8251953125 c 0
 302.557617188 86.8251953125 316.724609375 91.6416015625 330.891601562 101.274414062 c 0
 345.05859375 110.908203125 357.666992188 123.090820312 368.716796875 137.82421875 c 0
 379.766601562 152.556640625 390.108398438 168.70703125 399.7421875 186.2734375 c 0
 409.375 203.840820312 417.591796875 221.124023438 424.391601562 238.124023438 c 0
 431.19140625 255.124023438 436.575195312 270.70703125 440.541992188 284.874023438 c 0
 441.674804688 287.140625 442.807617188 290.82421875 443.94140625 295.923828125 c 1
 439.973632812 294.791015625 436.006835938 294.5078125 432.040039062 295.07421875 c 0
 398.040039062 293.375 364.890625 290.116210938 332.58984375 285.299804688 c 0
 300.290039062 280.482421875 277.623046875 274.107421875 264.58984375 266.174804688 c 0
 261.756835938 264.474609375 258.923828125 263.482421875 256.090820312 263.19921875 c 0
 253.2578125 262.916992188 250.424804688 263.908203125 247.591796875 266.17578125 c 0
 241.358398438 270.708984375 237.67578125 276.658203125 236.54296875 284.025390625 c 2
 236.54296875 290.825195312 l 2
 236.54296875 305.55859375 245.326171875 317.458984375 262.892578125 326.525390625 c 0xd8
 276.493164062 334.458984375 307.375976562 340.69140625 355.54296875 345.224609375 c 0
 391.243164062 348.057617188 422.409179688 349.474609375 449.04296875 349.474609375 c 0
 454.142578125 349.758789062 458.959960938 349.900390625 463.493164062 349.900390625 c 0
 468.025390625 349.900390625 472.275390625 349.758789062 476.243164062 349.474609375 c 0
 488.709960938 348.341796875 496.926757812 346.07421875 500.893554688 342.674804688 c 0
 505.993164062 338.708007812 508.543945312 331.340820312 508.543945312 320.57421875 c 0
 508.543945312 314.907226562 507.551757812 310.08984375 505.568359375 306.123046875 c 0
 503.5859375 302.15625 500.043945312 299.323242188 494.943359375 297.623046875 c 0
 493.243164062 295.356445312 491.543945312 294.505859375 489.84375 295.073242188 c 1
 489.84375 289.123046875 l 2
 489.84375 287.422851562 489.418945312 282.889648438 488.568359375 275.5234375 c 0
 487.71875 268.15625 487.010742188 262.206054688 486.443359375 257.672851562 c 0
 485.310546875 245.7734375 481.91015625 232.03125 476.243164062 216.448242188 c 0
 470.576171875 200.865234375 463.068359375 184.1484375 453.71875 166.297851562 c 0
 444.368164062 148.448242188 433.176757812 131.0234375 420.143554688 114.0234375 c 0
 407.676757812 97.58984375 394.359375 82.5732421875 380.192382812 68.97265625 c 0
 366.025390625 55.373046875 350.442382812 44.6064453125 333.442382812 36.6728515625 c 0
 316.442382812 29.3056640625 299.159179688 25.623046875 281.592773438 25.623046875 c 2
 279.892578125 25.623046875 l 1
 279.04296875 25.623046875 l 2
 258.642578125 25.623046875 239.375976562 29.3056640625 221.243164062 36.6728515625 c 0
 202.54296875 44.6064453125 186.109375 55.0888671875 171.942382812 68.1220703125 c 0
 157.775390625 81.1552734375 145.451171875 96.171875 134.967773438 113.171875 c 0
 124.484375 130.171875 116.692382812 148.305664062 111.592773438 167.572265625 c 0
 106.493164062 186.838867188 103.942382812 206.106445312 103.942382812 225.373046875 c 0
 103.942382812 267.873046875 108.05078125 309.240234375 116.267578125 349.47265625 c 0
 124.484375 389.706054688 135.676757812 425.831054688 149.84375 457.84765625 c 0
 164.010742188 489.865234375 180.727539062 519.190429688 199.994140625 545.823242188 c 0
 217.561523438 572.456054688 236.119140625 594.555664062 255.668945312 612.123046875 c 0
 275.219726562 629.690429688 295.194335938 643.290039062 315.594726562 652.922851562 c 0
 335.994140625 662.555664062 355.543945312 667.373046875 374.244140625 667.373046875 c 0
 394.64453125 667.373046875 419.006835938 661.991210938 447.33984375 651.224609375 c 0xb8
EndSplineSet
Validated: 524289
EndChar

StartChar: H
Encoding: 72 72 41
Width: 570
VWidth: 900
GlyphClass: 2
Flags: HMW
HStem: 315.349 56.1017 623.899 17G
VStem: 127.302 67.5741 417.575 70.5508 425.225 68.0008
LayerCount: 2
Fore
SplineSet
192.75 298.354492188 m 0xe8
 192.466796875 294.387695312 192.325195312 291.5546875 192.325195312 289.854492188 c 0
 190.625 261.521484375 189.775390625 228.513671875 189.775390625 190.830078125 c 0
 189.775390625 153.147460938 190.625 110.5 192.325195312 62.900390625 c 0
 191.192382812 53.267578125 186.659179688 45.6171875 178.725585938 39.9501953125 c 0
 170.79296875 34.283203125 162.009765625 31.4501953125 152.376953125 31.4501953125 c 1
 151.809570312 26.3505859375 150.959960938 26.6337890625 149.827148438 32.30078125 c 1
 141.327148438 31.7333984375 134.244140625 34.56640625 128.577148438 40.7998046875 c 0
 123.4765625 45.8994140625 120.926757812 52.7041015625 120.926757812 61.2041015625 c 0
 121.494140625 62.904296875 121.77734375 64.599609375 121.77734375 66.2998046875 c 0
 122.91015625 82.732421875 123.4765625 119.287109375 123.4765625 175.954101562 c 0
 123.4765625 205.421875 123.759765625 232.0546875 124.327148438 255.854492188 c 2
 124.327148438 256.704101562 l 2
 124.327148438 275.404296875 124.751953125 302.74609375 125.6015625 338.729492188 c 0
 126.452148438 374.712890625 127.018554688 397.9453125 127.301757812 408.428710938 c 0
 127.584960938 418.912109375 127.7265625 429.39453125 127.7265625 439.877929688 c 0
 127.7265625 450.361328125 127.443359375 467.502929688 126.876953125 491.302734375 c 0
 126.309570312 515.102539062 126.02734375 530.828125 126.02734375 538.477539062 c 0
 126.02734375 546.127929688 126.876953125 567.517578125 128.577148438 602.650390625 c 0
 129.143554688 615.68359375 132.543945312 625.31640625 138.77734375 631.549804688 c 0
 145.009765625 637.782226562 152.943359375 640.899414062 162.576171875 640.899414062 c 2
 165.125976562 640.899414062 l 2
 174.193359375 640.899414062 181.842773438 638.208007812 188.076171875 632.82421875 c 0
 194.309570312 627.44140625 197.42578125 618.233398438 197.42578125 605.200195312 c 0
 197.42578125 599.533203125 196.717773438 587.494140625 195.30078125 569.077148438 c 0
 193.883789062 550.66015625 193.174804688 533.66015625 193.174804688 518.077148438 c 0
 193.174804688 502.494140625 193.458984375 479.543945312 194.026367188 449.2265625 c 0
 194.592773438 418.91015625 194.875976562 395.818359375 194.875976562 379.951171875 c 2
 194.875976562 371.451171875 l 2
 197.142578125 365.784179688 199.693359375 365.784179688 202.526367188 371.451171875 c 1
 247.859375 372.583984375 302.258789062 377.966796875 365.725585938 387.600585938 c 0
 390.092773438 391 409.642578125 393.267578125 424.375976562 394.400390625 c 1
 424.375976562 402.05078125 l 2
 424.375976562 406.017578125 424.092773438 411.966796875 423.526367188 419.900390625 c 0
 422.958984375 427.833007812 422.67578125 433.783203125 422.67578125 437.75 c 0
 422.109375 472.883789062 421.826171875 495.975585938 421.826171875 507.025390625 c 0
 421.826171875 518.075195312 422.392578125 535.5 423.526367188 559.30078125 c 0
 424.659179688 583.100585938 425.225585938 597.55078125 425.225585938 602.650390625 c 0
 425.225585938 615.68359375 428.484375 625.31640625 435.000976562 631.549804688 c 0
 441.517578125 637.782226562 449.309570312 640.899414062 458.376953125 640.899414062 c 2
 460.926757812 640.899414062 l 2
 470.559570312 640.899414062 478.493164062 638.208007812 484.725585938 632.82421875 c 0
 490.958984375 627.44140625 494.076171875 618.233398438 494.076171875 605.200195312 c 0
 494.076171875 594.43359375 493.651367188 572.475585938 492.80078125 539.325195312 c 0
 491.951171875 506.17578125 491.526367188 476.850585938 491.526367188 451.350585938 c 0
 491.526367188 425.850585938 491.809570312 389.30078125 492.375976562 341.700195312 c 0
 492.943359375 328.666992188 493.225585938 310.25 493.225585938 286.450195312 c 0xe8
 493.225585938 262.650390625 492.375976562 225.67578125 490.67578125 175.525390625 c 0
 488.975585938 125.375 488.125976562 90.1005859375 488.125976562 69.7001953125 c 2
 488.125976562 64.6005859375 l 1
 488.125976562 62.900390625 l 2
 488.125976562 53.8330078125 483.592773438 46.18359375 474.526367188 39.9501953125 c 0
 467.159179688 34.283203125 458.659179688 31.4501953125 449.026367188 31.4501953125 c 1
 448.458984375 26.3505859375 447.609375 26.6337890625 446.475585938 32.30078125 c 1
 437.409179688 31.7333984375 430.04296875 34.56640625 424.375976562 40.7998046875 c 0
 419.842773438 45.8994140625 417.575195312 52.982421875 417.575195312 62.0498046875 c 2
 417.575195312 66.2998046875 l 1xf0
 422.674804688 138.266601562 425.225585938 218.166015625 425.225585938 305.999023438 c 2
 425.225585938 341.700195312 l 1
 421.825195312 336.033203125 418.708007812 335.749023438 415.875 340.849609375 c 1
 406.2421875 340.282226562 373.942382812 335.749023438 318.975585938 327.249023438 c 0
 264.575195312 319.31640625 225.192382812 315.349609375 200.825195312 315.349609375 c 2
 193.174804688 315.349609375 l 1
 193.174804688 306.849609375 l 2
 193.174804688 305.149414062 193.033203125 302.321289062 192.75 298.354492188 c 0xe8
EndSplineSet
Validated: 524289
EndChar

StartChar: I
Encoding: 73 73 42
Width: 570
VWidth: 900
GlyphClass: 2
Flags: HMW
HStem: 45.2434 49.6393 570.885 58.6509 581.085 54.4009
VStem: 272.223 64.6009 278.173 63.7508
LayerCount: 2
Fore
SplineSet
275.624023438 509.685546875 m 2xc8
 275.624023438 515.352539062 276.189453125 526.686523438 277.323242188 543.686523438 c 0
 278.456054688 560.686523438 279.0234375 570.603515625 279.0234375 573.436523438 c 2
 279.0234375 581.086914062 l 1
 250.124023438 581.653320312 226.041015625 581.936523438 206.7734375 581.936523438 c 0
 185.806640625 581.936523438 171.356445312 581.794921875 163.423828125 581.51171875 c 0
 155.491210938 581.228515625 151.241210938 581.086914062 150.673828125 581.086914062 c 0
 139.340820312 581.086914062 130.982421875 583.495117188 125.599609375 588.311523438 c 0
 120.216796875 593.12890625 117.524414062 599.220703125 117.524414062 606.587890625 c 2
 117.524414062 609.137695312 l 2
 117.524414062 615.9375 120.07421875 622.029296875 125.174804688 627.413085938 c 0
 130.274414062 632.795898438 139.057617188 635.487304688 151.524414062 635.487304688 c 0xa8
 198.557617188 637.1875 240.772460938 638.038085938 278.171875 638.038085938 c 0
 352.971679688 638.038085938 417.291015625 635.205078125 471.124023438 629.538085938 c 0
 480.756835938 628.404296875 488.125 626.137695312 493.224609375 622.737304688 c 0
 498.891601562 618.770507812 502.008789062 612.25390625 502.575195312 603.186523438 c 0
 502.575195312 594.686523438 500.025390625 586.75390625 494.92578125 579.38671875 c 0
 492.658203125 575.987304688 489.541992188 573.436523438 485.57421875 571.737304688 c 0
 482.741210938 570.603515625 480.19140625 570.037109375 477.924804688 570.037109375 c 0
 475.657226562 570.037109375 473.390625 570.3203125 471.124023438 570.88671875 c 0
 453.556640625 573.719726562 410.490234375 576.836914062 341.922851562 580.237304688 c 1
 341.922851562 571.737304688 l 2
 341.922851562 567.204101562 341.639648438 552.329101562 341.073242188 527.112304688 c 0
 340.505859375 501.89453125 340.22265625 479.653320312 340.22265625 460.385742188 c 2
 340.22265625 421.286132812 l 2
 340.22265625 403.71875 340.505859375 385.727539062 341.073242188 367.310546875 c 0
 341.639648438 348.893554688 341.922851562 327.926757812 341.922851562 304.409179688 c 0xc8
 341.922851562 280.892578125 341.073242188 244.484375 339.373046875 195.184570312 c 0
 337.672851562 145.884765625 336.823242188 115.284179688 336.823242188 103.384765625 c 2
 336.823242188 94.884765625 l 1
 344.47265625 94.884765625 l 2
 364.873046875 94.884765625 408.505859375 94.6015625 475.373046875 94.0341796875 c 0
 486.706054688 94.0341796875 494.213867188 91.9091796875 497.897460938 87.6591796875 c 0
 501.580078125 83.4091796875 503.705078125 77.6015625 504.272460938 70.234375 c 0
 504.272460938 65.701171875 503.846679688 61.734375 502.997070312 58.333984375 c 0
 502.147460938 54.9345703125 500.588867188 51.5341796875 498.322265625 48.134765625 c 0
 497.189453125 45.3017578125 495.206054688 43.458984375 492.373046875 42.609375 c 0
 489.540039062 41.759765625 486.84765625 41.1923828125 484.297851562 40.9091796875 c 0
 481.748046875 40.6259765625 479.33984375 40.7685546875 477.073242188 41.3349609375 c 0
 461.7734375 43.6025390625 437.40625 44.7353515625 403.97265625 44.7353515625 c 0
 400.005859375 44.7353515625 390.373046875 44.876953125 375.073242188 45.16015625 c 0
 372.014648438 45.216796875 368.7421875 45.2451171875 365.25390625 45.2451171875 c 0
 351.290039062 45.2451171875 333.879882812 44.7919921875 313.0234375 43.884765625 c 2
 256.923828125 37.7646484375 l 2
 244.45703125 37.7646484375 231.990234375 38.671875 219.5234375 40.484375 c 0
 184.389648438 39.3515625 160.165039062 38.7841796875 146.84765625 38.7841796875 c 0
 133.53125 38.7841796875 124.180664062 40.9091796875 118.797851562 45.1591796875 c 0
 113.415039062 49.4091796875 110.72265625 54.9345703125 110.72265625 61.734375 c 2
 110.72265625 63.4345703125 l 2
 110.72265625 70.234375 113.2734375 76.326171875 118.373046875 81.708984375 c 0
 123.47265625 87.0927734375 132.255859375 90.0673828125 144.72265625 90.634765625 c 0
 168.5234375 91.201171875 211.0234375 92.333984375 272.22265625 94.033203125 c 1xd0
 276.189453125 164.30078125 278.172851562 234.284179688 278.172851562 303.984375 c 0
 278.362304688 315.701171875 278.45703125 327.48046875 278.45703125 339.323242188 c 0
 278.45703125 362.991210938 278.079101562 386.912109375 277.32421875 411.083984375 c 0
 276.190429688 436.016601562 275.624023438 462.93359375 275.624023438 491.833984375 c 2
 275.624023438 509.685546875 l 2xc8
EndSplineSet
Validated: 524289
EndChar

StartChar: J
Encoding: 74 74 43
Width: 570
VWidth: 899
GlyphClass: 2
Flags: HMW
HStem: 19.4508 69.7009 581.3 55.2508
VStem: 109.024 59.5 324.924 54.4009
LayerCount: 2
Fore
SplineSet
226.325195312 581.299804688 m 0
 199.69140625 581.299804688 181.274414062 581.015625 171.07421875 580.44921875 c 0
 160.874023438 579.881835938 155.491210938 579.599609375 154.923828125 579.599609375 c 0
 143.590820312 579.599609375 135.090820312 582.006835938 129.423828125 586.82421875 c 0
 123.756835938 591.640625 120.923828125 597.733398438 120.923828125 605.099609375 c 2
 120.923828125 607.650390625 l 2
 120.923828125 614.450195312 123.616210938 620.541992188 128.999023438 625.924804688 c 0
 134.381835938 631.307617188 143.306640625 634 155.774414062 634 c 0
 202.241210938 635.700195312 244.173828125 636.549804688 281.57421875 636.549804688 c 0
 356.374023438 636.549804688 420.69140625 633.716796875 474.524414062 628.049804688 c 0
 484.157226562 627.483398438 491.524414062 625.215820312 496.624023438 621.249023438 c 0
 502.291015625 617.282226562 505.408203125 610.765625 505.974609375 601.698242188 c 0
 505.974609375 593.198242188 503.424804688 585.265625 498.325195312 577.8984375 c 0
 496.057617188 574.498046875 492.94140625 571.948242188 488.973632812 570.248046875 c 0
 486.70703125 569.115234375 484.298828125 568.548828125 481.749023438 568.548828125 c 0
 479.19921875 568.548828125 476.791015625 568.831054688 474.524414062 569.3984375 c 0
 457.524414062 572.231445312 424.657226562 574.78125 375.923828125 577.048828125 c 1
 375.923828125 568.548828125 l 2
 375.923828125 552.115234375 376.491210938 527.182617188 377.624023438 493.749023438 c 0
 378.19140625 458.048828125 379.041015625 427.732421875 380.173828125 402.798828125 c 0
 381.306640625 378.999023438 381.874023438 349.95703125 381.874023438 315.673828125 c 0
 381.874023438 281.390625 381.024414062 250.932617188 379.32421875 224.299804688 c 0
 375.357421875 173.299804688 369.264648438 132.5 361.047851562 101.900390625 c 0
 352.831054688 71.2998046875 343.338867188 49.908203125 332.572265625 37.724609375 c 0
 321.805664062 25.5419921875 309.055664062 19.4501953125 294.322265625 19.4501953125 c 0
 277.889648438 19.4501953125 261.456054688 22.7080078125 245.0234375 29.224609375 c 0
 228.58984375 35.7421875 214.139648438 44.3837890625 201.672851562 55.150390625 c 0
 188.639648438 65.91796875 176.315429688 77.8173828125 164.698242188 90.8505859375 c 0
 153.081054688 103.883789062 143.448242188 116.775390625 135.797851562 129.525390625 c 0
 128.1484375 142.275390625 122.056640625 153.750976562 117.5234375 163.951171875 c 0
 112.990234375 174.150390625 110.440429688 182.368164062 109.873046875 188.600585938 c 0
 109.306640625 191.43359375 109.0234375 194.55078125 109.0234375 197.951171875 c 0
 109.0234375 204.750976562 110.15625 212.400390625 112.422851562 220.900390625 c 0
 113.556640625 226.567382812 116.248046875 231.243164062 120.498046875 234.92578125 c 0
 124.748046875 238.608398438 130.2734375 241.016601562 137.073242188 242.150390625 c 2
 143.873046875 242.150390625 l 2
 150.672851562 242.716796875 156.056640625 241.016601562 160.0234375 237.049804688 c 0
 165.690429688 231.3828125 168.5234375 224.299804688 168.5234375 215.799804688 c 0
 168.5234375 199.3671875 173.623046875 180.383789062 183.823242188 158.850585938 c 0
 189.490234375 146.951171875 196.857421875 135.900390625 205.923828125 125.701171875 c 0
 213.857421875 115.500976562 224.764648438 106.858398438 238.6484375 99.775390625 c 0
 252.53125 92.6923828125 267.973632812 89.150390625 284.973632812 89.150390625 c 0
 297.440429688 89.150390625 306.790039062 100.767578125 313.0234375 124.000976562 c 0
 319.255859375 148.93359375 323.223632812 189.166992188 324.922851562 244.700195312 c 2
 324.922851562 265.099609375 l 2
 324.922851562 276.432617188 324.498046875 312.700195312 323.6484375 373.900390625 c 0
 323.138671875 410.622070312 322.883789062 449.893554688 322.883789062 491.715820312 c 0
 322.883789062 519.59375 322.997070312 548.60546875 323.223632812 578.750976562 c 1
 284.124023438 580.451171875 251.825195312 581.299804688 226.325195312 581.299804688 c 0
EndSplineSet
Validated: 524289
EndChar

StartChar: K
Encoding: 75 75 44
Width: 570
VWidth: 901
GlyphClass: 2
Flags: HMW
HStem: 33.7766 17.85G 641.556 17.85G
VStem: 114.975 67.1517 118.377 70.55
LayerCount: 2
Fore
SplineSet
113.275390625 511.930664062 m 0xe0
 113.275390625 524.680664062 113.842773438 543.23828125 114.975585938 567.60546875 c 0
 116.109375 591.405273438 116.67578125 606.422851562 116.67578125 612.655273438 c 0
 117.243164062 628.522460938 120.642578125 640.139648438 126.875976562 647.506835938 c 0
 133.109375 654.873046875 141.041992188 658.556640625 150.674804688 658.556640625 c 2
 153.224609375 658.556640625 l 2
 162.291992188 659.123046875 169.942382812 656.006835938 176.174804688 649.206054688 c 0
 182.408203125 642.973632812 185.525390625 631.640625 185.525390625 615.20703125 c 0
 185.525390625 602.173828125 184.958007812 572.70703125 183.825195312 526.807617188 c 0
 182.692382812 480.907226562 181.841796875 436.140625 181.275390625 392.506835938 c 1
 210.174804688 423.107421875 243.608398438 459.657226562 281.575195312 502.157226562 c 0
 357.5078125 583.190429688 402.275390625 629.657226562 415.875 641.557617188 c 0
 422.674804688 649.490234375 429.192382812 654.590820312 435.424804688 656.857421875 c 0
 439.391601562 658.557617188 442.791992188 659.407226562 445.625 659.407226562 c 0
 451.291992188 659.407226562 456.674804688 656.006835938 461.775390625 649.206054688 c 0
 466.30859375 641.83984375 468.575195312 634.190429688 468.575195312 626.256835938 c 0
 468.575195312 618.890625 463.474609375 610.390625 453.275390625 600.756835938 c 0
 444.775390625 590.557617188 415.875 559.673828125 366.575195312 508.107421875 c 0
 319.541992188 454.274414062 275.909179688 405.256835938 235.67578125 361.057617188 c 1
 240.776367188 355.107421875 l 2
 258.909179688 335.274414062 289.225585938 303.541015625 331.725585938 259.908203125 c 0
 417.29296875 172.641601562 468.576171875 119.090820312 485.576171875 99.2578125 c 0
 492.942382812 90.7578125 497.475585938 85.0908203125 499.17578125 82.2578125 c 0
 500.875976562 79.4248046875 501.725585938 76.591796875 501.725585938 73.7587890625 c 0
 501.725585938 68.6591796875 501.159179688 64.1259765625 500.026367188 60.1591796875 c 0
 497.192382812 51.6591796875 492.942382812 45.1416015625 487.276367188 40.609375 c 0
 481.609375 36.076171875 476.225585938 33.80859375 471.125976562 33.80859375 c 0
 470.790039062 33.787109375 470.453125 33.7763671875 470.115234375 33.7763671875 c 0
 461.34375 33.7763671875 452.047851562 40.87109375 442.224609375 55.05859375 c 0
 435.9921875 62.9912109375 415.875 82.541015625 381.875 113.708007812 c 0
 350.141601562 145.44140625 315.859375 180.291015625 279.026367188 218.2578125 c 0
 242.192382812 259.05859375 214.709960938 291.358398438 196.577148438 315.158203125 c 2
 182.126953125 333.0078125 l 1
 182.126953125 293.05859375 l 1xe0
 188.926757812 72.0576171875 l 2
 188.359375 59.5908203125 184.107421875 49.9580078125 176.173828125 43.158203125 c 0
 168.241210938 36.3583984375 159.4609375 32.9580078125 149.827148438 32.9580078125 c 1
 149.260742188 27.8583984375 148.41015625 28.1416015625 147.27734375 33.80859375 c 1
 138.2109375 33.2412109375 130.84375 36.923828125 125.176757812 44.857421875 c 0
 120.643554688 51.6572265625 118.376953125 60.724609375 118.376953125 72.0576171875 c 2
 118.376953125 75.45703125 l 2xd0
 120.077148438 94.1572265625 120.926757812 125.32421875 120.926757812 168.95703125 c 0
 120.359375 249.990234375 118.375 339.807617188 114.974609375 438.407226562 c 0
 113.841796875 474.673828125 113.275390625 499.180664062 113.275390625 511.930664062 c 0xe0
EndSplineSet
Validated: 524289
EndChar

StartChar: L
Encoding: 76 76 45
Width: 570
VWidth: 900
GlyphClass: 2
Flags: HMW
HStem: 37.6437 56.9509
VStem: 138.773 61.2033
LayerCount: 2
Fore
SplineSet
492.799804688 112.018554688 m 0
 495.349609375 108.3359375 497.474609375 104.369140625 499.174804688 100.119140625 c 0
 500.875 95.869140625 501.724609375 91.7607421875 501.724609375 87.7939453125 c 0
 501.724609375 79.2939453125 499.8828125 72.9189453125 496.200195312 68.6689453125 c 0
 492.516601562 64.4189453125 484.442382812 61.1611328125 471.974609375 58.8935546875 c 0
 434.0078125 51.5263671875 378.7578125 46.1435546875 306.224609375 42.744140625 c 0
 233.125 39.34375 178.442382812 37.6435546875 142.174804688 37.6435546875 c 0
 133.674804688 37.0771484375 126.591796875 39.91015625 120.924804688 46.142578125 c 0
 115.825195312 51.2431640625 113.275390625 58.326171875 113.275390625 67.392578125 c 0
 113.275390625 69.0927734375 113.416992188 71.642578125 113.700195312 75.04296875 c 0
 113.983398438 78.443359375 117.241210938 109.892578125 123.474609375 169.392578125 c 0
 129.70703125 230.026367188 134.240234375 288.392578125 137.073242188 344.493164062 c 0
 138.206054688 359.79296875 138.7734375 380.334960938 138.7734375 406.118164062 c 0
 138.7734375 431.901367188 138.631835938 451.451171875 138.348632812 464.767578125 c 0
 138.065429688 478.084960938 137.357421875 521.577148438 136.224609375 595.244140625 c 0
 136.791015625 608.84375 140.333007812 618.760742188 146.849609375 624.994140625 c 0
 153.3671875 631.2265625 161.159179688 634.34375 170.225585938 634.34375 c 2
 172.775390625 634.34375 l 2
 181.842773438 634.34375 189.493164062 631.510742188 195.725585938 625.84375 c 0
 201.958984375 620.176757812 205.076171875 611.109375 205.076171875 598.642578125 c 0
 205.264648438 593.3515625 205.359375 587.366210938 205.359375 580.688476562 c 0
 205.359375 567.342773438 204.982421875 551.227539062 204.2265625 532.342773438 c 0
 202.526367188 490.41015625 201.109375 454.426757812 199.9765625 424.393554688 c 0
 198.276367188 381.327148438 196.859375 343.926757812 195.725585938 312.193359375 c 0
 195.159179688 288.9609375 193.176757812 254.677734375 189.776367188 209.344726562 c 0
 186.376953125 164.01171875 184.676757812 128.594726562 184.676757812 103.094726562 c 2
 184.676757812 94.5947265625 l 1
 205.076171875 94.5947265625 l 2
 247.008789062 95.1611328125 295.743164062 98.2783203125 351.275390625 103.9453125 c 0
 409.076171875 109.612304688 448.743164062 114.995117188 470.275390625 120.095703125 c 0
 472.54296875 120.662109375 474.66796875 120.9453125 476.650390625 120.9453125 c 0
 478.633789062 120.9453125 480.758789062 120.662109375 483.025390625 120.095703125 c 0
 486.993164062 118.395507812 490.25 115.702148438 492.799804688 112.018554688 c 0
EndSplineSet
Validated: 524289
EndChar

StartChar: M
Encoding: 77 77 46
Width: 570
VWidth: 902
GlyphClass: 2
Flags: HMW
HStem: 43.5501 17.85G<119.225 123.759> 633.451 17G
VStem: 94.5751 57.8009 269.676 73.0991
LayerCount: 2
Fore
SplineSet
143.025390625 56.2998046875 m 0
 136.224609375 47.7998046875 128.291992188 43.5498046875 119.224609375 43.5498046875 c 0
 102.791992188 44.1171875 94.5751953125 63.3837890625 94.5751953125 101.350585938 c 0
 94.5751953125 108.151367188 95.283203125 119.909179688 96.7001953125 136.625976562 c 0
 98.1171875 153.342773438 100.2421875 175.30078125 103.075195312 202.500976562 c 0
 105.908203125 229.701171875 108.174804688 253.500976562 109.875 273.901367188 c 0
 114.974609375 343.034179688 118.375 386.951171875 120.075195312 405.651367188 c 0
 122.341796875 430.017578125 125.174804688 460.05078125 128.575195312 495.750976562 c 0
 135.375 564.883789062 142.458007812 606.534179688 149.825195312 620.701171875 c 0
 155.4921875 630.901367188 163.424804688 638.55078125 173.625 643.651367188 c 0
 183.2578125 648.18359375 192.325195312 650.451171875 200.825195312 650.451171875 c 2
 204.224609375 650.451171875 l 2
 213.858398438 650.451171875 221.791015625 648.750976562 228.024414062 645.350585938 c 0
 235.391601562 640.817382812 240.208007812 633.734375 242.474609375 624.1015625 c 0
 248.708007812 599.168945312 255.650390625 558.0859375 263.299804688 500.852539062 c 0
 270.950195312 443.619140625 278.7421875 378.02734375 286.674804688 304.077148438 c 0
 294.608398438 230.127929688 300.276367188 181.252929688 303.67578125 157.452148438 c 0
 305.942382812 142.719726562 308.4921875 123.450195312 311.325195312 99.650390625 c 1
 313.025390625 122.8828125 314.442382812 142.15234375 315.575195312 157.452148438 c 0
 320.674804688 237.919921875 326.625 310.169921875 333.424804688 374.202148438 c 0
 338.525390625 421.235351562 345.18359375 468.268554688 353.400390625 515.301757812 c 0
 361.6171875 562.334960938 368.841796875 598.6015625 375.075195312 624.1015625 c 0
 376.775390625 630.901367188 380.599609375 636.568359375 386.549804688 641.1015625 c 0
 392.5 645.634765625 398.591796875 648.467773438 404.825195312 649.600585938 c 0
 409.358398438 650.16796875 413.325195312 650.451171875 416.724609375 650.451171875 c 2
 425.224609375 650.451171875 l 1
 428.625 650.451171875 l 1
 439.674804688 650.451171875 l 2
 442.5078125 650.451171875 446.333007812 649.883789062 451.150390625 648.750976562 c 0
 455.966796875 647.618164062 459.508789062 646.059570312 461.776367188 644.077148438 c 0
 464.04296875 642.09375 466.451171875 639.119140625 469.000976562 635.151367188 c 0
 471.55078125 631.184570312 473.392578125 626.084960938 474.526367188 619.8515625 c 0
 476.79296875 602.28515625 483.451171875 517.426757812 494.500976562 365.276367188 c 0
 505.55078125 213.126953125 513.342773438 126.8515625 517.875976562 106.452148438 c 0
 519.576171875 97.384765625 520.42578125 89.16796875 520.42578125 81.80078125 c 0
 520.42578125 64.80078125 514.475585938 53.4677734375 502.576171875 47.80078125 c 0
 498.609375 46.1005859375 494.500976562 45.2509765625 490.250976562 45.2509765625 c 0
 486.000976562 45.2509765625 481.326171875 46.66796875 476.225585938 49.5009765625 c 0
 467.725585938 54.0341796875 460.92578125 64.234375 455.826171875 80.1005859375 c 0
 443.92578125 117.500976562 433.442382812 282.401367188 424.375976562 574.80078125 c 0
 423.80859375 588.967773438 423.2421875 607.100585938 422.674804688 629.201171875 c 1
 419.275390625 607.66796875 415.875 590.100585938 412.474609375 576.500976562 c 0
 396.608398438 494.333984375 386.408203125 419.534179688 381.875 352.100585938 c 0
 377.341796875 287.500976562 370.966796875 226.30078125 362.75 168.500976562 c 0
 354.533203125 110.701171875 347.875 75.5673828125 342.775390625 63.1005859375 c 0
 338.2421875 51.767578125 325.208984375 46.1005859375 303.67578125 46.1005859375 c 2
 300.276367188 46.1005859375 l 2
 292.342773438 46.1005859375 285.54296875 47.6591796875 279.875976562 50.7763671875 c 0
 274.208984375 53.892578125 270.80859375 58.28515625 269.67578125 63.9521484375 c 0
 263.442382812 91.1513671875 252.959960938 153.34375 238.2265625 250.526367188 c 0
 223.494140625 347.709960938 209.893554688 441.3515625 197.426757812 531.452148438 c 0
 194.59375 544.484375 192.043945312 561.767578125 189.776367188 583.30078125 c 1
 188.077148438 561.767578125 186.376953125 544.484375 184.676757812 531.452148438 c 0
 180.709960938 481.584960938 177.592773438 441.067382812 175.326171875 409.901367188 c 0
 173.625976562 381.000976562 171.92578125 356.350585938 170.225585938 335.951171875 c 0
 168.526367188 307.618164062 166.826171875 282.967773438 165.125976562 262.000976562 c 0
 163.42578125 238.201171875 161.442382812 213.55078125 159.17578125 188.05078125 c 0
 157.475585938 163.68359375 155.776367188 143.567382812 154.076171875 127.700195312 c 0
 152.942382812 115.799804688 152.375976562 106.450195312 152.375976562 99.650390625 c 0
 152.942382812 92.849609375 153.225585938 91.150390625 153.225585938 91.150390625 c 2
 153.225585938 76.4169921875 149.825195312 64.7998046875 143.025390625 56.2998046875 c 0
EndSplineSet
Validated: 524289
EndChar

StartChar: N
Encoding: 78 78 47
Width: 570
VWidth: 901
GlyphClass: 2
Flags: HMW
HStem: 41.2517 17.85G 633.7 17G<155.774 162.574 461.775 468.858>
VStem: 114.975 53.55 121.137 49.9374 437.976 62.0491 446.901 53.124
LayerCount: 2
Fore
SplineSet
466.024414062 650.700195312 m 0xc8
 471.69140625 650.700195312 476.223632812 650.1328125 479.624023438 649 c 0
 483.024414062 647.299804688 485.57421875 645.599609375 487.274414062 643.900390625 c 0
 488.973632812 642.200195312 490.390625 638.516601562 491.524414062 632.849609375 c 0
 493.223632812 629.450195312 494.357421875 625.766601562 494.923828125 621.799804688 c 0
 495.491210938 617.833007812 496.340820312 611.599609375 497.473632812 603.099609375 c 0
 498.607421875 595.166992188 499.45703125 550.1171875 500.024414062 467.950195312 c 2
 500.024414062 432.25 l 2
 500.024414062 360.849609375 499.173828125 294.266601562 497.473632812 232.5 c 0
 495.774414062 170.166992188 493.791015625 127.666992188 491.524414062 105 c 0
 489.256835938 81.2001953125 486.990234375 66.466796875 484.723632812 60.7998046875 c 0
 480.190429688 46.6328125 467.157226562 39.5498046875 445.624023438 39.5498046875 c 1
 443.923828125 33.8828125 442.506835938 33.8828125 441.374023438 39.5498046875 c 1
 434.006835938 39.5498046875 427.774414062 41.533203125 422.673828125 45.5 c 0
 417.57421875 49.466796875 413.890625 54.849609375 411.624023438 61.650390625 c 0
 407.657226562 70.716796875 394.624023438 95.93359375 372.524414062 137.30078125 c 2
 309.624023438 261.400390625 l 2
 288.090820312 302.767578125 265.708007812 349.234375 242.474609375 400.801757812 c 0
 218.674804688 453.501953125 200.2578125 498.268554688 187.224609375 535.1015625 c 0
 180.424804688 554.934570312 173.908203125 572.78515625 167.674804688 588.651367188 c 1
 168.807617188 569.951171875 169.94140625 550.118164062 171.07421875 529.151367188 c 0
 173.907226562 480.418945312 175.32421875 433.951171875 175.32421875 389.751953125 c 0
 175.32421875 378.418945312 175.041015625 356.885742188 174.473632812 325.15234375 c 0
 173.907226562 292.852539062 172.774414062 253.469726562 171.07421875 207.002929688 c 0xd8
 169.374023438 160.53515625 168.524414062 128.518554688 168.524414062 110.951171875 c 2
 168.524414062 104.151367188 l 2
 169.090820312 100.184570312 169.374023438 96.78515625 169.374023438 93.951171875 c 2
 169.374023438 88.8515625 l 2
 169.374023438 72.4189453125 166.541015625 60.5185546875 160.874023438 53.1513671875 c 0
 155.20703125 45.21875 148.124023438 41.251953125 139.624023438 41.251953125 c 2
 137.923828125 41.251953125 l 2
 133.95703125 41.251953125 130.556640625 42.384765625 127.723632812 44.6513671875 c 0
 124.890625 46.9189453125 122.624023438 50.8857421875 120.923828125 56.552734375 c 0
 116.95703125 65.619140625 114.973632812 79.5029296875 114.973632812 98.2021484375 c 0xe0
 114.973632812 108.969726562 115.82421875 152.602539062 117.524414062 229.102539062 c 0
 119.223632812 306.168945312 120.357421875 373.319335938 120.923828125 430.552734375 c 0
 121.06640625 444.862304688 121.13671875 459.030273438 121.13671875 473.055664062 c 0
 121.13671875 515.12890625 120.499023438 555.928710938 119.223632812 595.452148438 c 2
 119.223632812 601.40234375 l 2
 119.791015625 609.90234375 121.208007812 617.552734375 123.474609375 624.352539062 c 0
 125.7421875 631.719726562 129.141601562 637.38671875 133.674804688 641.353515625 c 0
 141.607421875 647.5859375 150.673828125 650.700195312 160.874023438 650.700195312 c 0
 164.274414062 650.700195312 167.391601562 650.419921875 170.224609375 649.853515625 c 2
 171.07421875 649.853515625 l 2
 180.140625 649.853515625 187.791992188 647.8671875 194.024414062 643.900390625 c 0
 201.391601562 639.3671875 206.4921875 631.153320312 209.325195312 619.252929688 c 0
 220.658203125 581.853515625 251.2578125 511.5859375 301.125 408.453125 c 0
 350.424804688 305.88671875 393.208007812 223.153320312 429.474609375 160.252929688 c 0
 434.0078125 149.486328125 438.541015625 141.553710938 443.07421875 136.453125 c 1
 443.640625 144.953125 444.208007812 155.436523438 444.774414062 167.903320312 c 0
 445.908203125 204.169921875 446.474609375 250.919921875 446.474609375 308.153320312 c 0
 446.758789062 322.3203125 446.900390625 337.1953125 446.900390625 352.778320312 c 0xd4
 446.900390625 368.361328125 446.758789062 384.653320312 446.475585938 401.653320312 c 0
 444.775390625 504.220703125 441.942382812 571.9375 437.975585938 604.803710938 c 1
 437.975585938 609.904296875 l 2
 437.975585938 620.670898438 440.2421875 629.73828125 444.775390625 637.104492188 c 0
 450.442382812 646.171875 457.524414062 650.700195312 466.024414062 650.700195312 c 0xc8
EndSplineSet
Validated: 524289
EndChar

StartChar: O
Encoding: 79 79 48
Width: 570
VWidth: 902
GlyphClass: 2
Flags: HMW
HStem: 31.6518 62.8991 601.582 60.7685
VStem: 115.824 65.4517 433.725 65.4491
LayerCount: 2
Fore
SplineSet
396.32421875 154.051757812 m 0
 407.090820312 168.78515625 415.307617188 185.501953125 420.974609375 204.202148438 c 0
 423.2421875 211.568359375 425.649414062 228.8515625 428.200195312 256.051757812 c 0
 430.75 283.251953125 432.591796875 315.268554688 433.724609375 352.1015625 c 0
 434.291992188 362.869140625 434.575195312 373.635742188 434.575195312 384.40234375 c 0
 434.575195312 411.036132812 433.44140625 437.102539062 431.174804688 462.602539062 c 0
 427.774414062 501.703125 415.024414062 534.569335938 392.924804688 561.203125 c 0
 372.524414062 587.8359375 347.307617188 601.293945312 317.274414062 601.577148438 c 0
 316.930664062 601.580078125 316.5859375 601.58203125 316.2421875 601.58203125 c 0
 286.663085938 601.58203125 261.791015625 589.538085938 241.625 565.451171875 c 0
 221.791992188 541.651367188 207.05859375 509.068359375 197.42578125 467.701171875 c 0
 186.659179688 423.500976562 181.275390625 373.068359375 181.275390625 316.401367188 c 0
 181.842773438 281.267578125 183.825195312 250.384765625 187.225585938 223.751953125 c 0
 188.92578125 207.884765625 192.325195312 192.017578125 197.42578125 176.151367188 c 0
 202.525390625 160.284179688 208.758789062 146.401367188 216.125976562 134.500976562 c 0
 222.92578125 122.600585938 231.9921875 112.967773438 243.325195312 105.600585938 c 0
 254.659179688 98.234375 267.407226562 94.55078125 281.57421875 94.55078125 c 0
 311.607421875 94.55078125 338.525390625 102.767578125 362.325195312 119.201171875 c 0
 374.79296875 127.701171875 386.124023438 139.318359375 396.32421875 154.051757812 c 0
115.82421875 273.900390625 m 2
 115.82421875 299.966796875 116.108398438 320.791992188 116.674804688 336.375 c 0
 117.2421875 351.958007812 118.375 372.783203125 120.075195312 398.850585938 c 0
 123.474609375 449.283203125 132.825195312 495.75 148.125 538.25 c 0
 162.291992188 574.517578125 186.375 604.267578125 220.375 627.5 c 0
 251.541992188 650.733398438 286.958984375 662.350585938 326.625976562 662.350585938 c 0
 346.458984375 662.350585938 365.44140625 658.100585938 383.575195312 649.600585938 c 0
 402.274414062 641.100585938 419.557617188 628.775390625 435.424804688 612.625 c 0
 451.291992188 596.475585938 464.466796875 575.791992188 474.950195312 550.575195312 c 0
 485.432617188 525.358398438 492.090820312 496.8828125 494.923828125 465.150390625 c 0
 497.756835938 430.017578125 499.173828125 394.034179688 499.173828125 357.201171875 c 0
 499.173828125 328.868164062 498.181640625 299.259765625 496.19921875 268.376953125 c 0
 494.215820312 237.494140625 490.673828125 212.418945312 485.57421875 193.151367188 c 0
 478.20703125 166.518554688 469.282226562 143.568359375 458.798828125 124.301757812 c 0
 448.31640625 105.03515625 436.982421875 89.4521484375 424.799804688 77.5517578125 c 0
 412.6171875 65.6513671875 398.591796875 56.3017578125 382.724609375 49.501953125 c 0
 367.9921875 42.7021484375 352.69140625 37.884765625 336.825195312 35.0517578125 c 0
 320.958007812 32.78515625 302.541015625 31.6513671875 281.57421875 31.6513671875 c 0
 251.541015625 31.6513671875 223.774414062 41.8515625 198.274414062 62.251953125 c 0
 171.640625 82.6513671875 151.241210938 109.8515625 137.07421875 143.8515625 c 0
 122.907226562 177.8515625 115.82421875 214.684570312 115.82421875 254.3515625 c 2
 115.82421875 258.6015625 l 1
 115.82421875 273.900390625 l 2
EndSplineSet
Validated: 524289
EndChar

StartChar: P
Encoding: 80 80 49
Width: 570
VWidth: 900
GlyphClass: 2
Flags: HMW
HStem: 34.3249 17.85G<163.426 168.526 168.526 171.076> 245.975 61.1983 594.472 44.2025
VStem: 131.976 63.75 138.096 69.5291 429.475 62.05<450.824 488.222>
LayerCount: 2
Fore
SplineSet
198.275390625 586.823242188 m 1xf4
 195.725585938 516.2734375 l 2
 193.912109375 458.704101562 193.005859375 405.66796875 193.005859375 357.1640625 c 0
 193.005859375 345.033203125 193.0625 333.186523438 193.17578125 321.623046875 c 1
 199.125976562 319.922851562 l 2
 222.359375 311.422851562 248.42578125 307.172851562 277.326171875 307.172851562 c 0
 292.625976562 307.172851562 306.650390625 308.448242188 319.400390625 310.998046875 c 0
 332.150390625 313.547851562 343.342773438 316.948242188 352.975585938 321.198242188 c 0
 362.609375 325.448242188 371.109375 330.973632812 378.475585938 337.7734375 c 0
 386.409179688 344.573242188 393.208984375 351.515625 398.875976562 358.598632812 c 0
 404.54296875 365.681640625 409.359375 373.755859375 413.326171875 382.823242188 c 0
 417.293945312 391.890625 420.268554688 400.248046875 422.251953125 407.8984375 c 0
 424.234375 415.547851562 425.79296875 424.190429688 426.92578125 433.823242188 c 0
 428.05859375 443.456054688 428.766601562 451.389648438 429.049804688 457.622070312 c 0
 429.333007812 463.85546875 429.474609375 471.22265625 429.474609375 479.72265625 c 0
 429.474609375 496.72265625 426.358398438 512.1640625 420.125 526.047851562 c 0
 413.891601562 539.930664062 405.958007812 551.122070312 396.325195312 559.622070312 c 0
 387.2578125 567.555664062 377.201171875 574.213867188 366.150390625 579.596679688 c 0
 355.100585938 584.979492188 344.618164062 588.8046875 334.701171875 591.071289062 c 0
 324.784179688 593.338867188 315.0078125 594.471679688 305.375 594.471679688 c 0
 287.807617188 594.471679688 252.109375 591.922851562 198.275390625 586.823242188 c 1xf4
131.125 582.575195312 m 1
 129.9921875 578.608398438 128.575195312 580.0234375 126.875 586.823242188 c 0
 124.608398438 590.790039062 123.474609375 594.474609375 123.474609375 597.875 c 0
 124.041992188 598.44140625 124.325195312 599.291992188 124.325195312 600.424804688 c 0
 124.891601562 606.091796875 127.016601562 611.049804688 130.700195312 615.299804688 c 0
 134.3828125 619.549804688 138.208007812 622.2421875 142.174804688 623.375 c 0
 162.0078125 627.908203125 191.474609375 631.590820312 230.575195312 634.423828125 c 0
 266.275390625 637.256835938 291.208007812 638.673828125 305.375 638.673828125 c 0
 339.375 638.673828125 369.692382812 632.157226562 396.325195312 619.124023438 c 0
 425.224609375 606.090820312 448.174804688 586.541015625 465.174804688 560.473632812 c 0
 482.174804688 534.407226562 490.958007812 502.95703125 491.525390625 466.124023438 c 0
 491.525390625 435.524414062 486.567382812 406.765625 476.650390625 379.848632812 c 0
 466.733398438 352.932617188 453.1328125 329.557617188 435.849609375 309.723632812 c 0
 418.567382812 289.890625 398.025390625 274.307617188 374.224609375 262.974609375 c 0
 351.557617188 251.641601562 326.908203125 245.974609375 300.275390625 245.974609375 c 0
 260.608398438 245.974609375 228.875 248.807617188 205.075195312 254.474609375 c 1
 201.108398438 249.94140625 197.424804688 250.791992188 194.025390625 257.025390625 c 1
 196.291992188 211.69140625 199.692382812 161.541992188 204.224609375 106.575195312 c 0
 206.4921875 80.5078125 207.625 65.4912109375 207.625 61.5244140625 c 2
 207.625 60.673828125 l 2
 207.625 52.7412109375 204.224609375 46.5078125 197.424804688 41.974609375 c 0
 189.4921875 36.875 180.708984375 34.3251953125 171.076171875 34.3251953125 c 2
 168.525390625 34.3251953125 l 2
 158.326171875 34.3251953125 150.109375 37.158203125 143.875976562 42.8251953125 c 0
 139.342773438 47.3583984375 137.076171875 53.5908203125 137.076171875 61.5244140625 c 0
 137.076171875 63.2236328125 137.217773438 67.6162109375 137.500976562 74.69921875 c 0
 137.784179688 81.7822265625 137.92578125 97.7900390625 137.92578125 122.723632812 c 0
 138.0390625 128.504882812 138.095703125 135.568359375 138.095703125 143.913085938 c 0xec
 138.095703125 177.278320312 137.189453125 231.131835938 135.375976562 305.473632812 c 0
 133.67578125 366.672851562 132.826171875 408.323242188 132.826171875 430.422851562 c 0
 132.258789062 444.0234375 131.975585938 462.297851562 131.975585938 485.248046875 c 0
 131.975585938 508.198242188 132.54296875 539.790039062 133.67578125 580.0234375 c 1
 132.54296875 575.490234375 131.692382812 576.341796875 131.125 582.575195312 c 1
EndSplineSet
Validated: 524289
EndChar

